<svg width="163" height="40" viewBox="0 0 163 40" fill="none" xmlns="http://www.w3.org/2000/svg">
<path d="M49.248 14.8H52.624C53.4453 14.8 54.1547 14.944 54.752 15.232C55.3493 15.5093 55.8133 15.9093 56.144 16.432C56.4747 16.9547 56.64 17.5733 56.64 18.288C56.64 19.3547 56.2773 20.2027 55.552 20.832C54.8267 21.4507 53.8507 21.76 52.624 21.76H51.136V26H49.248V14.8ZM52.624 16.464H51.136V20.096H52.624C53.2747 20.096 53.7973 19.9467 54.192 19.648C54.5867 19.3387 54.784 18.8853 54.784 18.288C54.784 17.6907 54.5867 17.2373 54.192 16.928C53.7973 16.6187 53.2747 16.464 52.624 16.464ZM58.4536 20.592L57.7656 19.344C58.107 19.1413 58.5283 18.944 59.0296 18.752C59.5416 18.56 60.1283 18.464 60.7896 18.464C61.6963 18.464 62.4323 18.6667 62.9976 19.072C63.5736 19.4667 63.8616 20.0267 63.8616 20.752V26H62.1656V24.944C61.9416 25.3387 61.6056 25.6427 61.1576 25.856C60.7203 26.0587 60.2243 26.16 59.6696 26.16C58.9443 26.16 58.331 25.968 57.8296 25.584C57.339 25.2 57.0936 24.6347 57.0936 23.888C57.0936 23.1307 57.3763 22.5387 57.9416 22.112C58.507 21.6853 59.275 21.472 60.2456 21.472C60.651 21.472 61.0136 21.5253 61.3336 21.632C61.6643 21.728 61.9416 21.84 62.1656 21.968V20.944C62.1656 20.6027 62.0216 20.3413 61.7336 20.16C61.4563 19.968 61.115 19.872 60.7096 19.872C60.187 19.872 59.723 19.9627 59.3176 20.144C58.923 20.3253 58.635 20.4747 58.4536 20.592ZM58.8376 23.824C58.8376 24.1653 58.971 24.4213 59.2376 24.592C59.5043 24.7627 59.8243 24.848 60.1976 24.848C60.763 24.848 61.2323 24.72 61.6056 24.464C61.979 24.1973 62.1656 23.7387 62.1656 23.088V22.944C61.6856 22.6987 61.131 22.576 60.5016 22.576C59.947 22.576 59.531 22.688 59.2536 22.912C58.9763 23.136 58.8376 23.44 58.8376 23.824ZM65.2106 21.36C65.2106 20.3573 65.3013 19.4773 65.4826 18.72C65.6746 17.952 66.0053 17.296 66.4746 16.752C66.9546 16.208 67.616 15.7813 68.4586 15.472C69.184 15.2053 69.728 14.912 70.0906 14.592C70.464 14.2613 70.688 13.904 70.7626 13.52H72.4586C72.384 14.2347 72.048 14.864 71.4506 15.408C70.8533 15.9413 70.1173 16.3627 69.2426 16.672C68.6453 16.8747 68.1706 17.152 67.8186 17.504C67.4666 17.856 67.2053 18.256 67.0346 18.704C66.8746 19.1413 66.7786 19.5947 66.7466 20.064C67.0133 19.5627 67.3653 19.1733 67.8026 18.896C68.2506 18.6187 68.7626 18.48 69.3386 18.48C70.0853 18.48 70.752 18.6453 71.3386 18.976C71.9253 19.3067 72.384 19.76 72.7146 20.336C73.056 20.912 73.2266 21.5733 73.2266 22.32C73.2266 23.056 73.056 23.7173 72.7146 24.304C72.3733 24.88 71.904 25.3333 71.3066 25.664C70.72 25.9947 70.0373 26.16 69.2586 26.16C68.4906 26.16 67.7973 25.984 67.1786 25.632C66.5706 25.2693 66.0906 24.7307 65.7386 24.016C65.3866 23.3013 65.2106 22.416 65.2106 21.36ZM67.0506 22.32C67.0506 23.0027 67.264 23.5627 67.6906 24C68.1173 24.4267 68.64 24.64 69.2586 24.64C69.888 24.64 70.4106 24.4267 70.8266 24C71.2426 23.5627 71.4506 23.0027 71.4506 22.32C71.4506 21.6267 71.2426 21.0667 70.8266 20.64C70.4106 20.2133 69.888 20 69.2586 20C68.9173 20 68.576 20.0907 68.2346 20.272C67.8933 20.4427 67.6106 20.704 67.3866 21.056C67.1626 21.3973 67.0506 21.8187 67.0506 22.32ZM74.1996 22.32C74.1996 21.5627 74.3703 20.896 74.7116 20.32C75.0636 19.744 75.5383 19.296 76.1356 18.976C76.7436 18.6453 77.421 18.48 78.1676 18.48C78.925 18.48 79.6023 18.6453 80.1996 18.976C80.797 19.296 81.2663 19.744 81.6076 20.32C81.9596 20.896 82.1356 21.5627 82.1356 22.32C82.1356 23.0667 81.9596 23.7333 81.6076 24.32C81.2663 24.896 80.797 25.3493 80.1996 25.68C79.6023 26 78.925 26.16 78.1676 26.16C77.421 26.16 76.7436 26 76.1356 25.68C75.5383 25.3493 75.0636 24.896 74.7116 24.32C74.3703 23.7333 74.1996 23.0667 74.1996 22.32ZM75.9756 22.32C75.9756 23.0027 76.1836 23.5627 76.5996 24C77.0263 24.4267 77.549 24.64 78.1676 24.64C78.797 24.64 79.3196 24.4267 79.7356 24C80.1516 23.5627 80.3596 23.0027 80.3596 22.32C80.3596 21.6267 80.1516 21.0667 79.7356 20.64C79.3196 20.2133 78.797 20 78.1676 20C77.549 20 77.0263 20.2133 76.5996 20.64C76.1836 21.0667 75.9756 21.6267 75.9756 22.32ZM82.6313 18.64H87.2873V20.16H85.8153V26H84.1193V20.16H82.6313V18.64ZM89.0518 20.592L88.3638 19.344C88.7051 19.1413 89.1264 18.944 89.6278 18.752C90.1398 18.56 90.7264 18.464 91.3878 18.464C92.2944 18.464 93.0304 18.6667 93.5958 19.072C94.1718 19.4667 94.4598 20.0267 94.4598 20.752V26H92.7638V24.944C92.5398 25.3387 92.2038 25.6427 91.7558 25.856C91.3184 26.0587 90.8224 26.16 90.2678 26.16C89.5424 26.16 88.9291 25.968 88.4278 25.584C87.9371 25.2 87.6918 24.6347 87.6918 23.888C87.6918 23.1307 87.9744 22.5387 88.5398 22.112C89.1051 21.6853 89.8731 21.472 90.8438 21.472C91.2491 21.472 91.6118 21.5253 91.9318 21.632C92.2624 21.728 92.5398 21.84 92.7638 21.968V20.944C92.7638 20.6027 92.6198 20.3413 92.3318 20.16C92.0544 19.968 91.7131 19.872 91.3078 19.872C90.7851 19.872 90.3211 19.9627 89.9158 20.144C89.5211 20.3253 89.2331 20.4747 89.0518 20.592ZM89.4358 23.824C89.4358 24.1653 89.5691 24.4213 89.8358 24.592C90.1024 24.7627 90.4224 24.848 90.7958 24.848C91.3611 24.848 91.8304 24.72 92.2038 24.464C92.5771 24.1973 92.7638 23.7387 92.7638 23.088V22.944C92.2838 22.6987 91.7291 22.576 91.0998 22.576C90.5451 22.576 90.1291 22.688 89.8518 22.912C89.5744 23.136 89.4358 23.44 89.4358 23.824ZM103.249 24.16C103.003 24.5547 102.721 24.9067 102.401 25.216C102.081 25.5147 101.691 25.7493 101.233 25.92C100.774 26.08 100.214 26.16 99.5527 26.16C98.7954 26.16 98.1341 25.9947 97.5687 25.664C97.0034 25.3333 96.5661 24.88 96.2567 24.304C95.9474 23.7173 95.7927 23.056 95.7927 22.32C95.7927 22.1813 95.7981 22.048 95.8087 21.92C95.8194 21.792 95.8354 21.664 95.8567 21.536C96.0061 20.6293 96.4114 19.8933 97.0727 19.328C97.7341 18.7627 98.5874 18.48 99.6327 18.48C100.774 18.48 101.67 18.816 102.321 19.488C102.982 20.16 103.313 21.0773 103.313 22.24C103.313 22.304 103.313 22.3787 103.313 22.464C103.313 22.5493 103.307 22.6347 103.297 22.72H97.5687C97.6327 23.392 97.8514 23.8987 98.2247 24.24C98.5981 24.5707 99.0674 24.736 99.6327 24.736C100.134 24.736 100.555 24.6347 100.897 24.432C101.249 24.2187 101.531 23.9307 101.745 23.568L103.249 24.16ZM99.6167 19.792C99.0941 19.792 98.6461 19.9467 98.2727 20.256C97.8994 20.5547 97.6754 20.976 97.6007 21.52H101.441C101.377 20.9973 101.195 20.5813 100.897 20.272C100.609 19.952 100.182 19.792 99.6167 19.792ZM103.834 26L105.882 18.08L108.746 23.584L111.658 18.08L113.706 26H111.866L111.098 22.224L108.746 26.496L106.442 22.24L105.674 26H103.834ZM118.662 26L123.83 20.544C124.235 20.1173 124.55 19.712 124.774 19.328C124.998 18.9333 125.11 18.512 125.11 18.064C125.11 17.7653 125.035 17.4827 124.886 17.216C124.747 16.9493 124.534 16.7307 124.246 16.56C123.969 16.3893 123.622 16.304 123.206 16.304C122.566 16.304 122.059 16.528 121.686 16.976C121.323 17.4133 121.142 18.0107 121.142 18.768H119.27C119.27 17.968 119.419 17.2587 119.718 16.64C120.027 16.0107 120.475 15.5147 121.062 15.152C121.659 14.7893 122.385 14.608 123.238 14.608C123.889 14.608 124.454 14.7147 124.934 14.928C125.414 15.1307 125.809 15.4027 126.118 15.744C126.438 16.0747 126.673 16.4373 126.822 16.832C126.982 17.216 127.062 17.5947 127.062 17.968C127.062 18.5547 126.918 19.12 126.63 19.664C126.353 20.1973 125.985 20.6827 125.526 21.12L122.358 24.24H127.206V26H118.662ZM128.151 23.856L134.471 14.8H135.607V22.224H137.367V23.856H135.607V26H133.671V23.856H128.151ZM130.919 22.368H133.783V18.176L130.919 22.368ZM144.701 14.8H146.413L139.789 28.4H138.045L144.701 14.8ZM146.993 16.576V14.8H155.345L149.969 26H147.953L152.545 16.576H146.993Z" fill="black"/>
<g clip-path="url(#clip0)">
<path d="M16.7857 24.2857C17.1802 24.2857 17.5 23.966 17.5 23.5715C17.5 23.177 17.1802 22.8572 16.7857 22.8572C16.3912 22.8572 16.0714 23.177 16.0714 23.5715C16.0714 23.966 16.3912 24.2857 16.7857 24.2857Z" fill="#161616"/>
<path d="M11.0715 33.5714C11.466 33.5714 11.7857 33.2516 11.7857 32.8571C11.7857 32.4626 11.466 32.1428 11.0715 32.1428C10.677 32.1428 10.3572 32.4626 10.3572 32.8571C10.3572 33.2516 10.677 33.5714 11.0715 33.5714Z" fill="#161616"/>
<path d="M32.5001 30.7143V24.4928L28.043 23.0714C23.693 25.6143 19.6215 28.7714 18.9215 34.3714C18.6858 36.2714 18.9358 37.6071 19.693 38.4643C20.5287 39.4071 22.0501 39.7786 23.7787 39.9214C22.9063 39.0872 22.2894 38.0219 22.0001 36.85C21.2001 33.5643 23.2501 30.45 23.3358 30.3214C23.464 30.0826 23.7162 29.9368 23.9872 29.9451C24.2581 29.9534 24.501 30.1144 24.6142 30.3606C24.7275 30.6069 24.6916 30.896 24.5215 31.1071C24.5073 31.1357 22.7358 33.85 23.3858 36.5214C23.8211 38.0323 24.867 39.2932 26.2715 40H29.343C28.1144 39.05 26.7858 37.4071 26.7858 34.2857C26.7858 29.05 29.043 26.7357 29.1358 26.6357C29.4159 26.3556 29.87 26.3556 30.1501 26.6357C30.4302 26.9158 30.4302 27.3699 30.1501 27.65C30.1287 27.6643 28.2144 29.6857 28.2144 34.2857C28.2144 37.8571 30.1358 38.9214 31.4073 39.6214C31.6501 39.7571 31.843 39.8786 32.0215 40H35.1644C35.4332 39.9986 35.6784 39.8464 35.799 39.6063C35.9196 39.3661 35.8952 39.0785 35.7358 38.8621C34.2573 36.8478 32.5001 33.8057 32.5001 30.7143Z" fill="#161616"/>
<path d="M28.895 21.8458L32.9771 23.1472C33.3527 23.2669 33.7542 23.0598 33.8743 22.6844V22.6808C33.9319 22.5003 33.9155 22.3042 33.8285 22.1358C33.7416 21.9674 33.5913 21.8405 33.4107 21.783L29.3286 20.4815C28.953 20.3619 28.5516 20.569 28.4314 20.9444V20.948C28.3738 21.1285 28.3902 21.3245 28.4772 21.4929C28.5641 21.6613 28.7144 21.7883 28.895 21.8458Z" fill="#161616"/>
<path d="M38.9285 0.77135C38.752 0.436308 38.4524 0.182806 38.0928 0.0642072C37.3398 -0.170983 36.5376 0.242842 36.2928 0.992779L30.6592 18.6556C30.5391 19.0314 30.7463 19.4334 31.1221 19.5535L32.4835 19.9892C32.6641 20.0469 32.8601 20.0304 33.0285 19.9435C33.1969 19.8565 33.3238 19.7062 33.3814 19.5256L39.0142 1.86421C39.1332 1.50314 39.1023 1.10946 38.9285 0.77135Z" fill="#161616"/>
<path d="M10.3572 5.71406C10.3572 4.1361 11.6363 2.85692 13.2143 2.85692C14.7923 2.85692 16.0714 4.1361 16.0714 5.71406V10.8069C16.1572 10.9569 16.2357 11.1141 16.3072 11.2712C16.6741 11.0424 17.0776 10.8781 17.5 10.7855V5.71406C17.5 3.34712 15.5812 1.42834 13.2143 1.42834C10.8474 1.42834 8.92859 3.34712 8.92859 5.71406V8.2712C9.38661 8.08583 9.86685 7.96097 10.3572 7.89977V5.71406Z" fill="#161616"/>
<path d="M17.5 14.2855H20.3571C20.3536 13.1035 19.3963 12.1462 18.2143 12.1426C17.9704 12.1424 17.7285 12.1859 17.5 12.2712V14.2855Z" fill="#161616"/>
<path d="M17.5 15.7143V18.5714H22.5C22.8945 18.5714 23.2143 18.2516 23.2143 17.8572V16.4286C23.2143 16.0341 22.8945 15.7143 22.5 15.7143H17.5Z" fill="#161616"/>
<path d="M13.2142 15.7143H16.0714V18.5714H13.2142V15.7143Z" fill="#161616"/>
<path d="M3.21432 15.7143H1.07146C0.676974 15.7143 0.357178 16.0341 0.357178 16.4286V17.8572C0.357178 18.2516 0.676974 18.5714 1.07146 18.5714H3.21432V15.7143Z" fill="#161616"/>
<path d="M2.5 12.8569C2.50257 13.387 2.70393 13.8968 3.06429 14.2855H3.21429V13.5712C3.21429 13.1767 3.53408 12.8569 3.92857 12.8569C4.32306 12.8569 4.64286 13.1767 4.64286 13.5712V24.2855C4.64286 24.68 4.96265 24.9998 5.35714 24.9998C5.54322 25.003 5.72208 24.9278 5.85 24.7926C5.99259 24.6628 6.07312 24.4783 6.07143 24.2855V22.1426C6.07496 20.9606 7.03228 20.0033 8.21429 19.9998C9.39775 19.9998 10.3571 20.9592 10.3571 22.1426V27.1426C10.3571 27.5371 10.6769 27.8569 11.0714 27.8569C11.2575 27.8601 11.4364 27.7849 11.5643 27.6498C11.7069 27.5199 11.7874 27.3355 11.7857 27.1426V13.5712C11.7857 13.1767 12.1055 12.8569 12.5 12.8569C12.8945 12.8569 13.2143 13.1767 13.2143 13.5712V14.2855H16.0714V13.2426C15.6959 13.3063 15.3379 13.0592 15.2643 12.6855C14.8442 10.7047 13.0963 9.28728 11.0714 9.28548C10.8609 9.28409 10.6506 9.30082 10.4429 9.33548C9.17639 9.51816 8.06049 10.2638 7.40714 11.3641C7.28438 11.5583 7.07871 11.6848 6.85 11.7069C6.6231 11.7238 6.40128 11.634 6.25 11.4641C5.85052 10.99 5.26275 10.7157 4.64286 10.7141C3.46086 10.7176 2.50353 11.6749 2.5 12.8569Z" fill="#161616"/>
<path d="M17.5072 34.2C17.8454 31.3531 19.0871 28.6895 21.0501 26.6L21.7072 20H17.5001V21.5571C18.4841 21.905 19.0743 22.9112 18.8978 23.9398C18.7213 24.9684 17.8295 25.7203 16.7858 25.7203C15.7422 25.7203 14.8503 24.9684 14.6738 23.9398C14.4973 22.9112 15.0876 21.905 16.0715 21.5571V20H13.2144V27.1429C13.2144 28.3263 12.255 29.2857 11.0715 29.2857C9.88952 29.2822 8.9322 28.3249 8.92867 27.1429V22.1429C8.93187 21.9568 8.8567 21.7779 8.72152 21.65C8.59167 21.5074 8.40723 21.4269 8.21438 21.4286C7.81989 21.4286 7.50009 21.7484 7.50009 22.1429V24.2857C7.50009 25.4692 6.5407 26.4286 5.35724 26.4286C4.17524 26.425 3.21791 25.4677 3.21438 24.2857V20H1.86438L3.66438 38.0714C3.77456 39.1678 4.69823 40.0019 5.80009 40H17.7715C18.1694 39.9952 18.5579 39.8789 18.893 39.6643C18.8072 39.5786 18.7072 39.5 18.6215 39.4072C17.5787 38.2286 17.2144 36.5214 17.5072 34.2ZM11.0715 35C9.88805 35 8.92867 34.0406 8.92867 32.8571C8.92867 31.6737 9.88805 30.7143 11.0715 30.7143C12.255 30.7143 13.2144 31.6737 13.2144 32.8571C13.2108 34.0392 12.2535 34.9965 11.0715 35Z" fill="#161616"/>
<path d="M3.21427 7.14289C4.39774 7.14289 5.35713 6.1835 5.35713 5.00004C5.35713 3.81657 4.39774 2.85718 3.21427 2.85718C2.0308 2.85718 1.07141 3.81657 1.07141 5.00004C1.07141 6.1835 2.0308 7.14289 3.21427 7.14289ZM3.21427 4.28575C3.60876 4.28575 3.92855 4.60555 3.92855 5.00004C3.92855 5.39452 3.60876 5.71432 3.21427 5.71432C2.81978 5.71432 2.49998 5.39452 2.49998 5.00004C2.49998 4.60555 2.81978 4.28575 3.21427 4.28575Z" fill="#161616"/>
<path d="M22.5 8.57124C23.6835 8.57124 24.6429 7.61185 24.6429 6.42838C24.6429 5.24491 23.6835 4.28552 22.5 4.28552C21.3166 4.28552 20.3572 5.24491 20.3572 6.42838C20.3572 7.61185 21.3166 8.57124 22.5 8.57124ZM22.5 5.71409C22.8945 5.71409 23.2143 6.03389 23.2143 6.42838C23.2143 6.82287 22.8945 7.14267 22.5 7.14267C22.1055 7.14267 21.7857 6.82287 21.7857 6.42838C21.7857 6.03389 22.1055 5.71409 22.5 5.71409Z" fill="#161616"/>
<path d="M19.6429 2.14287C20.0374 2.14287 20.3572 1.82307 20.3572 1.42858C20.3572 1.03409 20.0374 0.714294 19.6429 0.714294C19.2484 0.714294 18.9286 1.03409 18.9286 1.42858C18.9286 1.82307 19.2484 2.14287 19.6429 2.14287Z" fill="#161616"/>
<path d="M7.50005 2.14287C7.89454 2.14287 8.21434 1.82307 8.21434 1.42858C8.21434 1.03409 7.89454 0.714294 7.50005 0.714294C7.10556 0.714294 6.78577 1.03409 6.78577 1.42858C6.78577 1.82307 7.10556 2.14287 7.50005 2.14287Z" fill="#161616"/>
</g>
<defs>
<clipPath id="clip0">
<rect width="40" height="40" fill="white"/>
</clipPath>
</defs>
</svg>
