<svg width="226" height="40" viewBox="0 0 226 40" fill="none" xmlns="http://www.w3.org/2000/svg">
<g clip-path="url(#clip0)">
<path d="M28.1459 7.55794C24.5101 3.21043 20.9212 0.384742 20.7704 0.266777C19.9511 -0.374061 18.7501 0.211545 18.7501 1.25112V6.74781C18.7501 9.58615 14.9939 10.585 13.5862 8.11808C13.1485 7.35295 12.0842 7.27233 11.5332 7.94543C7.75042 12.5618 4.37561 18.3825 4.37561 24.3754C4.37561 32.9907 11.3848 39.9998 20.0001 39.9998C28.6154 39.9998 35.6246 32.9907 35.6246 24.3754C35.6246 18.2274 32.0748 12.2564 28.1459 7.55794ZM13.1253 20.0005C13.1253 18.6216 14.2472 17.5006 15.6252 17.5006C17.0033 17.5006 18.1252 18.6216 18.1252 20.0005C18.1252 21.3794 17.0033 22.5004 15.6252 22.5004C14.2472 22.5004 13.1253 21.3794 13.1253 20.0005ZM16.6119 30.7673C16.1904 31.3107 15.4048 31.4118 14.8581 30.9868C14.3128 30.5626 14.2151 29.7775 14.6386 29.233L23.3883 17.9834C23.8125 17.4381 24.5976 17.3404 25.1421 17.7638C25.6874 18.1881 25.7851 18.9732 25.3616 19.5177L16.6119 30.7673ZM24.3749 31.2501C22.9969 31.2501 21.875 30.1291 21.875 28.7502C21.875 27.3713 22.9969 26.2503 24.3749 26.2503C25.753 26.2503 26.8749 27.3713 26.8749 28.7502C26.8749 30.1291 25.753 31.2501 24.3749 31.2501Z" fill="black"/>
</g>
<path d="M50.656 20.4C50.656 21.1893 50.832 21.8827 51.184 22.48C51.536 23.0773 52 23.5413 52.576 23.872C53.1627 24.192 53.7973 24.352 54.48 24.352C55.2693 24.352 55.952 24.2027 56.528 23.904C57.1147 23.5947 57.6 23.2107 57.984 22.752V25.008C57.5253 25.392 57.0187 25.6853 56.464 25.888C55.92 26.0907 55.2373 26.192 54.416 26.192C53.5947 26.192 52.832 26.0533 52.128 25.776C51.424 25.488 50.8053 25.088 50.272 24.576C49.7493 24.064 49.3387 23.456 49.04 22.752C48.752 22.0373 48.608 21.2533 48.608 20.4C48.608 19.5467 48.752 18.768 49.04 18.064C49.3387 17.3493 49.7493 16.736 50.272 16.224C50.8053 15.712 51.424 15.3173 52.128 15.04C52.832 14.752 53.5947 14.608 54.416 14.608C55.2373 14.608 55.92 14.7093 56.464 14.912C57.0187 15.1147 57.5253 15.408 57.984 15.792V18.048C57.6 17.5893 57.1147 17.2107 56.528 16.912C55.952 16.6027 55.2693 16.448 54.48 16.448C53.7973 16.448 53.1627 16.6133 52.576 16.944C52 17.264 51.536 17.7227 51.184 18.32C50.832 18.9067 50.656 19.6 50.656 20.4ZM59.9825 18.64H61.6785V21.232L64.3825 18.64H66.4945L63.3265 21.68L66.8145 26H64.7185L61.6785 22.256V26H59.9825V18.64ZM69.5928 18.64V22.848L74.5848 18.08V26H72.8888V21.776L67.8808 26.56V18.64H69.5928ZM84.0244 26H78.0244V27.44H76.2644V24.512H77.6244L80.9844 18.08L84.3444 24.512H85.7044V27.44H84.0244V26ZM80.9844 21.136L79.4484 24.512H82.5204L80.9844 21.136ZM87.3413 18.64H89.0373V21.232L91.7413 18.64H93.8533L90.6853 21.68L94.1733 26H92.0773L89.0373 22.256V26H87.3413V18.64ZM96.9515 18.64V22.848L101.944 18.08V26H100.248V21.776L95.2395 26.56V18.64H96.9515ZM108.764 18.64H110.46V21.392H114.22V18.64H115.916V26H114.22V22.848H110.46V26H108.764V18.64ZM117.443 22.32C117.443 21.5627 117.614 20.896 117.955 20.32C118.307 19.744 118.782 19.296 119.379 18.976C119.987 18.6453 120.665 18.48 121.411 18.48C122.169 18.48 122.846 18.6453 123.443 18.976C124.041 19.296 124.51 19.744 124.851 20.32C125.203 20.896 125.379 21.5627 125.379 22.32C125.379 23.0667 125.203 23.7333 124.851 24.32C124.51 24.896 124.041 25.3493 123.443 25.68C122.846 26 122.169 26.16 121.411 26.16C120.665 26.16 119.987 26 119.379 25.68C118.782 25.3493 118.307 24.896 117.955 24.32C117.614 23.7333 117.443 23.0667 117.443 22.32ZM119.219 22.32C119.219 23.0027 119.427 23.5627 119.843 24C120.27 24.4267 120.793 24.64 121.411 24.64C122.041 24.64 122.563 24.4267 122.979 24C123.395 23.5627 123.603 23.0027 123.603 22.32C123.603 21.6267 123.395 21.0667 122.979 20.64C122.563 20.2133 122.041 20 121.411 20C120.793 20 120.27 20.2133 119.843 20.64C119.427 21.0667 119.219 21.6267 119.219 22.32ZM126.995 18.64H130.179C130.638 18.64 131.054 18.7093 131.427 18.848C131.811 18.976 132.12 19.1893 132.355 19.488C132.59 19.776 132.707 20.16 132.707 20.64C132.707 21.056 132.595 21.3973 132.371 21.664C132.147 21.9307 131.854 22.1333 131.491 22.272C131.95 22.368 132.318 22.5493 132.595 22.816C132.883 23.0827 133.027 23.4773 133.027 24C133.027 24.5547 132.84 25.0293 132.467 25.424C132.104 25.808 131.502 26 130.659 26H126.995V18.64ZM129.971 19.92H128.691V21.648H129.971C130.291 21.648 130.547 21.5627 130.739 21.392C130.931 21.2213 131.027 21.0133 131.027 20.768C131.027 20.5227 130.931 20.32 130.739 20.16C130.547 20 130.291 19.92 129.971 19.92ZM130.131 22.912H128.691V24.72H130.131C130.547 24.72 130.851 24.6293 131.043 24.448C131.246 24.2667 131.347 24.0533 131.347 23.808C131.347 23.5627 131.246 23.3547 131.043 23.184C130.851 23.0027 130.547 22.912 130.131 22.912ZM141.618 18.64H143.362V26H141.618V18.64ZM134.482 18.64H136.21V21.296H137.97C138.727 21.296 139.362 21.4827 139.874 21.856C140.397 22.2187 140.658 22.7947 140.658 23.584C140.658 24.3733 140.397 24.976 139.874 25.392C139.362 25.7973 138.727 26 137.97 26H134.482V18.64ZM137.81 22.608H136.21V24.576H137.81C138.194 24.576 138.487 24.4853 138.69 24.304C138.893 24.1227 138.994 23.8827 138.994 23.584C138.994 23.2747 138.893 23.0347 138.69 22.864C138.487 22.6933 138.194 22.608 137.81 22.608ZM144.416 26L146.464 18.08L149.328 23.584L152.24 18.08L154.288 26H152.448L151.68 22.224L149.328 26.496L147.024 22.24L146.256 26H144.416ZM159.964 18.64H161.66V21.232L164.364 18.64H166.476L163.308 21.68L166.796 26H164.7L161.66 22.256V26H159.964V18.64ZM174.775 18.64V26H173.079V20.24H169.735V23.44C169.735 24.3147 169.516 24.96 169.079 25.376C168.641 25.792 167.905 26 166.871 26V24.432C167.191 24.432 167.463 24.352 167.687 24.192C167.921 24.0213 168.039 23.6907 168.039 23.2V18.64H174.775ZM178.798 18.64V22.848L183.79 18.08V26H182.094V21.776L177.086 26.56V18.64H178.798ZM192.83 24.16C192.585 24.5547 192.302 24.9067 191.982 25.216C191.662 25.5147 191.273 25.7493 190.814 25.92C190.355 26.08 189.795 26.16 189.134 26.16C188.377 26.16 187.715 25.9947 187.15 25.664C186.585 25.3333 186.147 24.88 185.838 24.304C185.529 23.7173 185.374 23.056 185.374 22.32C185.374 22.1813 185.379 22.048 185.39 21.92C185.401 21.792 185.417 21.664 185.438 21.536C185.587 20.6293 185.993 19.8933 186.654 19.328C187.315 18.7627 188.169 18.48 189.214 18.48C190.355 18.48 191.251 18.816 191.902 19.488C192.563 20.16 192.894 21.0773 192.894 22.24C192.894 22.304 192.894 22.3787 192.894 22.464C192.894 22.5493 192.889 22.6347 192.878 22.72H187.15C187.214 23.392 187.433 23.8987 187.806 24.24C188.179 24.5707 188.649 24.736 189.214 24.736C189.715 24.736 190.137 24.6347 190.478 24.432C190.83 24.2187 191.113 23.9307 191.326 23.568L192.83 24.16ZM189.198 19.792C188.675 19.792 188.227 19.9467 187.854 20.256C187.481 20.5547 187.257 20.976 187.182 21.52H191.022C190.958 20.9973 190.777 20.5813 190.478 20.272C190.19 19.952 189.763 19.792 189.198 19.792ZM194.439 18.64H196.135V21.392H199.895V18.64H201.591V26H199.895V22.848H196.135V26H194.439V18.64ZM202.654 18.64H207.31V20.16H205.838V26H204.142V20.16H202.654V18.64ZM209.075 20.592L208.387 19.344C208.728 19.1413 209.15 18.944 209.651 18.752C210.163 18.56 210.75 18.464 211.411 18.464C212.318 18.464 213.054 18.6667 213.619 19.072C214.195 19.4667 214.483 20.0267 214.483 20.752V26H212.787V24.944C212.563 25.3387 212.227 25.6427 211.779 25.856C211.342 26.0587 210.846 26.16 210.291 26.16C209.566 26.16 208.952 25.968 208.451 25.584C207.96 25.2 207.715 24.6347 207.715 23.888C207.715 23.1307 207.998 22.5387 208.563 22.112C209.128 21.6853 209.896 21.472 210.867 21.472C211.272 21.472 211.635 21.5253 211.955 21.632C212.286 21.728 212.563 21.84 212.787 21.968V20.944C212.787 20.6027 212.643 20.3413 212.355 20.16C212.078 19.968 211.736 19.872 211.331 19.872C210.808 19.872 210.344 19.9627 209.939 20.144C209.544 20.3253 209.256 20.4747 209.075 20.592ZM209.459 23.824C209.459 24.1653 209.592 24.4213 209.859 24.592C210.126 24.7627 210.446 24.848 210.819 24.848C211.384 24.848 211.854 24.72 212.227 24.464C212.6 24.1973 212.787 23.7387 212.787 23.088V22.944C212.307 22.6987 211.752 22.576 211.123 22.576C210.568 22.576 210.152 22.688 209.875 22.912C209.598 23.136 209.459 23.44 209.459 23.824ZM215.352 26L217.4 18.08L220.264 23.584L223.176 18.08L225.224 26H223.384L222.616 22.224L220.264 26.496L217.96 22.24L217.192 26H215.352Z" fill="black"/>
<defs>
<clipPath id="clip0">
<rect width="40" height="40" fill="white"/>
</clipPath>
</defs>
</svg>
