<svg width="237" height="40" viewBox="0 0 237 40" fill="none" xmlns="http://www.w3.org/2000/svg">
<path d="M51.104 14.8V22.224L59.28 14.24V26H57.424V18.576L49.248 26.56V14.8H51.104ZM61.4996 18.64H63.1956V21.392H66.9556V18.64H68.6516V26H66.9556V22.848H63.1956V26H61.4996V18.64ZM78.035 26H72.035V27.44H70.275V24.512H71.635L74.995 18.08L78.355 24.512H79.715V27.44H78.035V26ZM74.995 21.136L73.459 24.512H76.531L74.995 21.136ZM83.1759 18.64V22.848L88.1679 18.08V26H86.4719V21.776L81.4639 26.56V18.64H83.1759ZM90.4075 18.64H93.5915C94.0502 18.64 94.4662 18.7093 94.8395 18.848C95.2235 18.976 95.5328 19.1893 95.7675 19.488C96.0022 19.776 96.1195 20.16 96.1195 20.64C96.1195 21.056 96.0075 21.3973 95.7835 21.664C95.5595 21.9307 95.2662 22.1333 94.9035 22.272C95.3622 22.368 95.7302 22.5493 96.0075 22.816C96.2955 23.0827 96.4395 23.4773 96.4395 24C96.4395 24.5547 96.2528 25.0293 95.8795 25.424C95.5168 25.808 94.9142 26 94.0715 26H90.4075V18.64ZM93.3835 19.92H92.1035V21.648H93.3835C93.7035 21.648 93.9595 21.5627 94.1515 21.392C94.3435 21.2213 94.4395 21.0133 94.4395 20.768C94.4395 20.5227 94.3435 20.32 94.1515 20.16C93.9595 20 93.7035 19.92 93.3835 19.92ZM93.5435 22.912H92.1035V24.72H93.5435C93.9595 24.72 94.2635 24.6293 94.4555 24.448C94.6582 24.2667 94.7595 24.0533 94.7595 23.808C94.7595 23.5627 94.6582 23.3547 94.4555 23.184C94.2635 23.0027 93.9595 22.912 93.5435 22.912ZM99.6546 18.64V22.848L104.647 18.08V26H102.951V21.776L97.9426 26.56V18.64H99.6546ZM114.086 26H108.086V27.44H106.326V24.512H107.686L111.046 18.08L114.406 24.512H115.766V27.44H114.086V26ZM111.046 21.136L109.51 24.512H112.582L111.046 21.136ZM123.901 18.64L119.101 29.52H117.261L119.197 25.136L116.221 18.64H118.205L120.141 23.424L122.045 18.64H123.901ZM125.52 20.592L124.832 19.344C125.173 19.1413 125.595 18.944 126.096 18.752C126.608 18.56 127.195 18.464 127.856 18.464C128.763 18.464 129.499 18.6667 130.064 19.072C130.64 19.4667 130.928 20.0267 130.928 20.752V26H129.232V24.944C129.008 25.3387 128.672 25.6427 128.224 25.856C127.787 26.0587 127.291 26.16 126.736 26.16C126.011 26.16 125.397 25.968 124.896 25.584C124.405 25.2 124.16 24.6347 124.16 23.888C124.16 23.1307 124.443 22.5387 125.008 22.112C125.573 21.6853 126.341 21.472 127.312 21.472C127.717 21.472 128.08 21.5253 128.4 21.632C128.731 21.728 129.008 21.84 129.232 21.968V20.944C129.232 20.6027 129.088 20.3413 128.8 20.16C128.523 19.968 128.181 19.872 127.776 19.872C127.253 19.872 126.789 19.9627 126.384 20.144C125.989 20.3253 125.701 20.4747 125.52 20.592ZM125.904 23.824C125.904 24.1653 126.037 24.4213 126.304 24.592C126.571 24.7627 126.891 24.848 127.264 24.848C127.829 24.848 128.299 24.72 128.672 24.464C129.045 24.1973 129.232 23.7387 129.232 23.088V22.944C128.752 22.6987 128.197 22.576 127.568 22.576C127.013 22.576 126.597 22.688 126.32 22.912C126.043 23.136 125.904 23.44 125.904 23.824ZM139.781 18.64V26H138.085V20.24H134.741V23.44C134.741 24.3147 134.522 24.96 134.085 25.376C133.648 25.792 132.912 26 131.877 26V24.432C132.197 24.432 132.469 24.352 132.693 24.192C132.928 24.0213 133.045 23.6907 133.045 23.2V18.64H139.781ZM142.077 18.64H143.821V21.296H145.581C146.338 21.296 146.973 21.4827 147.485 21.856C148.007 22.2187 148.269 22.7947 148.269 23.584C148.269 24.3733 148.007 24.976 147.485 25.392C146.973 25.7973 146.338 26 145.581 26H142.077V18.64ZM145.405 22.608H143.821V24.576H145.405C145.789 24.576 146.082 24.4853 146.285 24.304C146.487 24.1227 146.589 23.8827 146.589 23.584C146.589 23.2747 146.487 23.0347 146.285 22.864C146.082 22.6933 145.789 22.608 145.405 22.608ZM150.034 18.64H151.73V21.392H155.49V18.64H157.186V26H155.49V22.848H151.73V26H150.034V18.64ZM166.409 18.64H168.153V26H166.409V18.64ZM159.273 18.64H161.001V21.296H162.761C163.519 21.296 164.153 21.4827 164.665 21.856C165.188 22.2187 165.449 22.7947 165.449 23.584C165.449 24.3733 165.188 24.976 164.665 25.392C164.153 25.7973 163.519 26 162.761 26H159.273V18.64ZM162.601 22.608H161.001V24.576H162.601C162.985 24.576 163.279 24.4853 163.481 24.304C163.684 24.1227 163.785 23.8827 163.785 23.584C163.785 23.2747 163.684 23.0347 163.481 22.864C163.279 22.6933 162.985 22.608 162.601 22.608ZM171.144 14.88H172.456C172.456 15.1147 172.546 15.36 172.728 15.616C172.92 15.8613 173.245 15.984 173.704 15.984C174.173 15.984 174.498 15.8613 174.68 15.616C174.861 15.36 174.952 15.1147 174.952 14.88H176.28C176.28 15.2747 176.178 15.648 175.976 16C175.784 16.3413 175.496 16.6187 175.112 16.832C174.738 17.0453 174.269 17.152 173.704 17.152C173.149 17.152 172.68 17.0453 172.296 16.832C171.912 16.6187 171.624 16.3413 171.432 16C171.24 15.648 171.144 15.2747 171.144 14.88ZM171.992 18.64V22.848L176.984 18.08V26H175.288V21.776L170.28 26.56V18.64H171.992ZM190.316 18.64V26H188.62V20.192H185.5V26H183.804V18.64H190.316ZM191.843 22.32C191.843 21.5627 192.013 20.896 192.355 20.32C192.707 19.744 193.181 19.296 193.779 18.976C194.387 18.6453 195.064 18.48 195.811 18.48C196.568 18.48 197.245 18.6453 197.843 18.976C198.44 19.296 198.909 19.744 199.251 20.32C199.603 20.896 199.779 21.5627 199.779 22.32C199.779 23.0667 199.603 23.7333 199.251 24.32C198.909 24.896 198.44 25.3493 197.843 25.68C197.245 26 196.568 26.16 195.811 26.16C195.064 26.16 194.387 26 193.779 25.68C193.181 25.3493 192.707 24.896 192.355 24.32C192.013 23.7333 191.843 23.0667 191.843 22.32ZM193.619 22.32C193.619 23.0027 193.827 23.5627 194.243 24C194.669 24.4267 195.192 24.64 195.811 24.64C196.44 24.64 196.963 24.4267 197.379 24C197.795 23.5627 198.003 23.0027 198.003 22.32C198.003 21.6267 197.795 21.0667 197.379 20.64C196.963 20.2133 196.44 20 195.811 20C195.192 20 194.669 20.2133 194.243 20.64C193.827 21.0667 193.619 21.6267 193.619 22.32ZM207.798 26H201.798V27.44H200.038V24.512H201.398L204.758 18.08L208.118 24.512H209.478V27.44H207.798V26ZM204.758 21.136L203.222 24.512H206.294L204.758 21.136ZM215.418 18.64H217.354L214.714 22.208L217.514 26H215.578L213.818 23.472L212.058 26H210.074L212.89 22.208L210.234 18.64H212.218L213.818 20.944L215.418 18.64ZM217.686 22.32C217.686 21.5627 217.857 20.896 218.198 20.32C218.55 19.744 219.025 19.296 219.622 18.976C220.23 18.6453 220.907 18.48 221.654 18.48C222.411 18.48 223.089 18.6453 223.686 18.976C224.283 19.296 224.753 19.744 225.094 20.32C225.446 20.896 225.622 21.5627 225.622 22.32C225.622 23.0667 225.446 23.7333 225.094 24.32C224.753 24.896 224.283 25.3493 223.686 25.68C223.089 26 222.411 26.16 221.654 26.16C220.907 26.16 220.23 26 219.622 25.68C219.025 25.3493 218.55 24.896 218.198 24.32C217.857 23.7333 217.686 23.0667 217.686 22.32ZM219.462 22.32C219.462 23.0027 219.67 23.5627 220.086 24C220.513 24.4267 221.035 24.64 221.654 24.64C222.283 24.64 222.806 24.4267 223.222 24C223.638 23.5627 223.846 23.0027 223.846 22.32C223.846 21.6267 223.638 21.0667 223.222 20.64C222.806 20.2133 222.283 20 221.654 20C221.035 20 220.513 20.2133 220.086 20.64C219.67 21.0667 219.462 21.6267 219.462 22.32ZM233.641 26H227.641V27.44H225.881V24.512H227.241L230.601 18.08L233.961 24.512H235.321V27.44H233.641V26ZM230.601 21.136L229.065 24.512H232.137L230.601 21.136Z" fill="black"/>
<path d="M19.1918 25.1423C18.9713 26.2808 19.8481 27.3274 20.9936 27.3274H21.2203V36.9769C21.2203 37.4601 20.8286 37.8517 20.3455 37.8517H19.1957C19.1957 37.8408 19.1964 37.8301 19.1964 37.8191C19.1964 37.5287 19.1598 37.2466 19.0914 36.9769C18.715 35.4942 17.3694 34.3941 15.7714 34.3941C14.1733 34.3941 12.8277 35.4944 12.4514 36.9769C12.3829 37.2464 12.3463 37.5285 12.3463 37.8191C12.3463 37.8301 12.347 37.8408 12.3471 37.8517H8.69866C8.69873 37.8408 8.69944 37.8301 8.69944 37.8191C8.69944 37.5287 8.6628 37.2466 8.59436 36.9769C8.21803 35.4942 6.87241 34.3941 5.27436 34.3941C3.67632 34.3941 2.3307 35.4944 1.95437 36.9769C1.88593 37.2464 1.84929 37.5285 1.84929 37.8191C1.84929 37.8301 1.85 37.8408 1.85007 37.8517H0.874764C0.39164 37.8517 0 37.4601 0 36.9769V36.1022V34.9568C0 34.1727 0.635624 33.5373 1.41961 33.5373H2.3582C2.30546 33.461 2.26789 33.373 2.25062 33.2769H7.72608C7.70889 33.373 7.67124 33.4611 7.6185 33.5373H10.3712V21.1181C10.3712 20.5122 10.8623 20.021 11.4683 20.021H14.3426L10.5595 7.76583C10.417 7.30427 10.6756 6.81451 11.1372 6.67201C11.5988 6.52958 12.0886 6.7881 12.2311 7.24974L16.1735 20.021C16.1735 20.021 20.1015 20.056 20.1814 20.0332L19.1918 25.1423Z" fill="#161616"/>
<path d="M15.7713 35.5574C14.5706 35.5574 13.5973 36.5308 13.5973 37.7314C13.5973 38.932 14.5706 39.9054 15.7713 39.9054C16.972 39.9054 17.9453 38.932 17.9453 37.7314C17.9453 36.5308 16.972 35.5574 15.7713 35.5574ZM15.7713 38.506C15.3436 38.506 14.9969 38.1592 14.9969 37.7316C14.9969 37.3039 15.3436 36.9572 15.7713 36.9572C16.199 36.9572 16.5456 37.3039 16.5456 37.7316C16.5457 38.1592 16.1989 38.506 15.7713 38.506Z" fill="#161616"/>
<path d="M5.27444 35.5574C4.07374 35.5574 3.10046 36.5308 3.10046 37.7314C3.10046 38.932 4.07382 39.9054 5.27444 39.9054C6.47507 39.9054 7.44843 38.932 7.44843 37.7314C7.44843 36.5308 6.47507 35.5574 5.27444 35.5574ZM5.27444 38.506C4.84679 38.506 4.50007 38.1592 4.50007 37.7316C4.50007 37.3039 4.84679 36.9572 5.27444 36.9572C5.70218 36.9572 6.04882 37.3039 6.04882 37.7316C6.04882 38.1592 5.7021 38.506 5.27444 38.506Z" fill="#161616"/>
<path d="M38.6135 35.2574V33.4198L36.7824 33C34.9953 33.7511 33.3227 34.6835 33.0351 36.3376C32.9383 36.8987 33.041 37.2932 33.352 37.5464C33.6954 37.8249 34.3204 37.9346 35.0306 37.9768C34.6721 37.7304 34.4187 37.4158 34.2999 37.0696C33.9712 36.0992 34.8134 35.1793 34.8486 35.1414C34.9013 35.0708 35.0049 35.0277 35.1162 35.0302C35.2275 35.0327 35.3273 35.0802 35.3738 35.1529C35.4203 35.2257 35.4056 35.3111 35.3357 35.3734C35.3299 35.3819 34.6021 36.1835 34.8692 36.9726C35.048 37.4188 35.4777 37.7912 36.0547 38H37.3165C36.8118 37.7194 36.266 37.2342 36.266 36.3122C36.266 34.7658 37.1932 34.0823 37.2314 34.0527C37.3465 33.97 37.533 33.97 37.6481 34.0527C37.7632 34.1355 37.7632 34.2696 37.6481 34.3523C37.6393 34.3565 36.8529 34.9536 36.8529 36.3122C36.8529 37.3671 37.6422 37.6814 38.1646 37.8882C38.2643 37.9283 38.3436 37.9641 38.4169 38H39.7081C39.8185 37.9996 39.9192 37.9547 39.9688 37.8837C40.0183 37.8128 40.0083 37.7278 39.9428 37.6639C39.3354 37.069 38.6135 36.1705 38.6135 35.2574Z" fill="#161616"/>
<path d="M26.3709 6.59286C28.1695 6.59286 29.6275 5.13481 29.6275 3.33622C29.6275 1.53763 28.1695 0.0795898 26.3709 0.0795898C24.5723 0.0795898 23.1143 1.53763 23.1143 3.33622C23.1143 5.13481 24.5723 6.59286 26.3709 6.59286Z" fill="#161616"/>
<path d="M23.9292 7.63135C24.199 8.39252 24.9914 10.6285 25.2933 11.4803C26.1157 11.4803 26.6703 11.4803 27.4059 11.4803C27.709 10.6252 28.5066 8.37447 28.7699 7.63135C26.7825 7.63135 26.056 7.63135 23.9292 7.63135Z" fill="#161616"/>
<path d="M25.2784 16.3706C21.533 14.5517 22.5352 15.0454 21.418 14.4775C21.418 14.4774 23.1893 11.58 23.1894 11.5799L22.5187 13.9088L23.7408 14.5022L24.0805 11.7247C23.4626 9.98074 23.3895 9.77472 22.678 7.76715C22.0112 7.96832 21.5419 8.37215 21.1824 8.82676C20.7619 9.35871 17.8842 14.1268 17.7901 14.273C17.2791 15.0675 17.5822 16.1272 18.4244 16.5362L23.9055 19.1978C24.6863 19.577 25.6265 19.2513 26.0056 18.4706C26.3847 17.6899 26.0591 16.7497 25.2784 16.3706Z" fill="#161616"/>
<path d="M4.52938 20.0587C4.52938 19.409 5.10878 18.8822 5.8235 18.8822C6.53822 18.8822 7.11762 19.409 7.11762 20.0587V22.1558C7.15644 22.2175 7.19203 22.2822 7.22438 22.3469C7.39059 22.2527 7.57334 22.1851 7.76468 22.1469V20.0587C7.76468 19.0841 6.89558 18.294 5.8235 18.294C4.75142 18.294 3.88232 19.0841 3.88232 20.0587V21.1117C4.08978 21.0353 4.3073 20.9839 4.52938 20.9587V20.0587Z" fill="#161616"/>
<path d="M7.76465 23.5882H9.05876C9.05716 23.1015 8.62355 22.7073 8.08818 22.7058C7.97772 22.7057 7.86814 22.7236 7.76465 22.7588V23.5882Z" fill="#161616"/>
<path d="M7.76465 24.1765V25.353H10.0294C10.208 25.353 10.3529 25.2213 10.3529 25.0589V24.4706C10.3529 24.3082 10.208 24.1765 10.0294 24.1765H7.76465Z" fill="#161616"/>
<path d="M5.82349 24.1765H7.1176V25.353H5.82349V24.1765Z" fill="#161616"/>
<path d="M1.29412 24.1765H0.323529C0.144849 24.1765 0 24.3081 0 24.4706V25.0588C0 25.2212 0.144849 25.3529 0.323529 25.3529H1.29412V24.1765Z" fill="#161616"/>
<path d="M0.970581 22.9999C0.971743 23.2182 1.06295 23.4281 1.22617 23.5882H1.29411V23.294C1.29411 23.1316 1.43896 22.9999 1.61764 22.9999C1.79632 22.9999 1.94117 23.1316 1.94117 23.294V27.7058C1.94117 27.8682 2.08602 27.9999 2.2647 27.9999C2.34898 28.0012 2.42999 27.9703 2.48793 27.9146C2.55252 27.8612 2.589 27.7852 2.58823 27.7058V26.8234C2.58983 26.3367 3.02344 25.9425 3.55882 25.9411C4.09486 25.9411 4.52941 26.3361 4.52941 26.8234V28.8823C4.52941 29.0447 4.67425 29.1764 4.85293 29.1764C4.93722 29.1777 5.01823 29.1468 5.07617 29.0911C5.14076 29.0376 5.17723 28.9617 5.17646 28.8823V23.294C5.17646 23.1316 5.32131 22.9999 5.49999 22.9999C5.67867 22.9999 5.82352 23.1316 5.82352 23.294V23.5882H7.11764V23.1587C6.94753 23.185 6.78539 23.0832 6.75205 22.9293C6.56178 22.1137 5.77008 21.5301 4.85293 21.5293C4.75756 21.5288 4.66231 21.5356 4.56823 21.5499C3.99459 21.6251 3.48915 21.9322 3.19323 22.3852C3.13762 22.4652 3.04447 22.5173 2.94088 22.5264C2.8381 22.5333 2.73763 22.4964 2.66911 22.4264C2.48817 22.2312 2.22195 22.1183 1.94117 22.1176C1.40579 22.119 0.97218 22.5132 0.970581 22.9999Z" fill="#161616"/>
<path d="M7.76791 31.7882C7.92109 30.616 8.4835 29.5192 9.37262 28.6588L9.67026 25.9412H7.76468V26.5823C8.21035 26.7256 8.47769 27.1399 8.39776 27.5634C8.31782 27.987 7.91386 28.2966 7.44115 28.2966C6.96843 28.2966 6.56447 27.987 6.48454 27.5634C6.4046 27.1399 6.67194 26.7256 7.11762 26.5823V25.9412H5.8235V28.8823C5.8235 29.3696 5.38895 29.7647 4.85291 29.7647C4.31753 29.7632 3.88392 29.369 3.88232 28.8823V26.8235C3.88377 26.7469 3.84973 26.6732 3.7885 26.6206C3.72968 26.5619 3.64614 26.5287 3.55879 26.5294C3.38011 26.5294 3.23526 26.6611 3.23526 26.8235V27.7059C3.23526 28.1932 2.80072 28.5882 2.26468 28.5882C1.7293 28.5868 1.29569 28.1926 1.29409 27.7059V25.9412H0.682617L1.49791 33.3823C1.54782 33.8338 1.96618 34.1772 2.46526 34.1765H7.88762C8.06782 34.1745 8.2438 34.1266 8.39556 34.0382C8.35673 34.0029 8.31144 33.9706 8.27262 33.9323C7.80026 33.447 7.63526 32.7441 7.76791 31.7882ZM4.85291 32.1176C4.31687 32.1176 3.88232 31.7226 3.88232 31.2353C3.88232 30.748 4.31687 30.3529 4.85291 30.3529C5.38895 30.3529 5.8235 30.748 5.8235 31.2353C5.8219 31.722 5.38829 32.1162 4.85291 32.1176Z" fill="#161616"/>
<path d="M1.29407 20.647C1.83012 20.647 2.26466 20.252 2.26466 19.7647C2.26466 19.2774 1.83012 18.8823 1.29407 18.8823C0.758034 18.8823 0.323486 19.2774 0.323486 19.7647C0.323486 20.252 0.758034 20.647 1.29407 20.647ZM1.29407 19.4706C1.47276 19.4706 1.6176 19.6022 1.6176 19.7647C1.6176 19.9271 1.47276 20.0588 1.29407 20.0588C1.11539 20.0588 0.970545 19.9271 0.970545 19.7647C0.970545 19.6022 1.11539 19.4706 1.29407 19.4706Z" fill="#161616"/>
<path d="M10.0294 21.2352C10.5655 21.2352 11 20.8401 11 20.3528C11 19.8655 10.5655 19.4705 10.0294 19.4705C9.49339 19.4705 9.05884 19.8655 9.05884 20.3528C9.05884 20.8401 9.49339 21.2352 10.0294 21.2352ZM10.0294 20.0587C10.2081 20.0587 10.353 20.1904 10.353 20.3528C10.353 20.5152 10.2081 20.6469 10.0294 20.6469C9.85075 20.6469 9.7059 20.5152 9.7059 20.3528C9.7059 20.1904 9.85075 20.0587 10.0294 20.0587Z" fill="#161616"/>
<path d="M8.73527 18.5882C8.91395 18.5882 9.0588 18.4566 9.0588 18.2941C9.0588 18.1317 8.91395 18 8.73527 18C8.55659 18 8.41174 18.1317 8.41174 18.2941C8.41174 18.4566 8.55659 18.5882 8.73527 18.5882Z" fill="#161616"/>
<path d="M3.23527 18.5882C3.41395 18.5882 3.5588 18.4566 3.5588 18.2941C3.5588 18.1317 3.41395 18 3.23527 18C3.05659 18 2.91174 18.1317 2.91174 18.2941C2.91174 18.4566 3.05659 18.5882 3.23527 18.5882Z" fill="#161616"/>
<path fill-rule="evenodd" clip-rule="evenodd" d="M39.9955 34.6397C39.994 33.221 39.0276 32.0292 37.718 31.6831L37.7152 29H36.141L36.1438 31.6847C34.8349 32.0335 33.8712 33.2274 33.8727 34.6459L33.8729 34.8785L39.9961 34.8732L39.9955 34.6397ZM36.14 28L36.1276 16.1482L33.5765 17.2109C32.7385 17.56 31.7933 17.1252 31.4936 16.2924C31.1974 15.4693 30.5411 13.872 30.3782 13.4758L30.3467 13.399L32.6062 25.3252C32.7107 25.8651 32.297 26.3652 31.7491 26.3652H30.5499V38.0266C30.5499 39.0681 29.7056 39.9124 28.6641 39.9124C27.6167 39.9124 26.7784 39.0602 26.7784 38.0266V26.3652H25.9642V38.0266C25.9642 39.068 25.1199 39.9123 24.0784 39.9123C23.0369 39.9123 22.1926 39.068 22.1926 38.0266V26.3651H20.9935C20.4484 26.3651 20.0317 25.8656 20.1364 25.3251L21.3467 19.0768L22.8391 19.8015L22.4981 21.7858C22.417 22.2581 22.7828 22.688 23.2577 22.688C24.893 22.688 26.1691 22.6904 27.3934 22.6928C28.0732 22.6941 28.737 22.6954 29.4373 22.6962C29.6783 22.6964 29.9074 22.5902 30.064 22.4069C30.2206 22.2236 30.2891 21.9811 30.2514 21.7431L28.6507 11.6341L30.0254 7.75489C31.2336 8.09192 32.1402 9.12137 32.7269 10.8288C32.9387 11.4453 33.1892 12.0512 33.4694 12.7293C33.5944 13.0318 33.7254 13.3487 33.8615 13.6873L36.1237 12.745L36.1167 5.99997H37.6912L37.6978 12.2888C38.2573 12.342 38.7701 12.6939 39.0012 13.2489C39.3349 14.0501 38.956 14.97 38.1548 15.3038L37.7011 15.4928L37.7141 28H36.14ZM37.6876 2.5681L37.6902 4.99997H36.1156L36.1131 2.56966C36.1126 2.1349 36.4648 1.78208 36.8996 1.78162H36.9004C37.3348 1.78162 37.6872 2.13349 37.6876 2.5681Z" fill="#161616"/>
</svg>
