<svg width="173" height="40" viewBox="0 0 173 40" fill="none" xmlns="http://www.w3.org/2000/svg">
<path fill-rule="evenodd" clip-rule="evenodd" d="M20 40C26.1499 40 31.6515 37.2242 35.3203 32.8571H31.4286C30.6396 32.8571 30 32.2175 30 31.4286C30 30.6396 30.6396 30 31.4286 30H37.3244C37.9507 28.9172 38.4785 27.7703 38.8954 26.5714H37.8571C37.4626 26.5714 37.1428 26.2516 37.1428 25.8571C37.1428 25.4627 37.4626 25.1429 37.8571 25.1429H39.2857C39.3013 25.1429 39.3168 25.1434 39.3322 25.1443C39.7678 23.5029 40 21.7786 40 20C40 8.9543 31.0457 0 20 0C14.5506 0 9.61016 2.17947 6.00291 5.71429H7.14284C7.93182 5.71429 8.57141 6.35388 8.57141 7.14286C8.57141 7.93184 7.93182 8.57143 7.14284 8.57143H3.58483C2.10746 10.6895 1.02953 13.1068 0.460256 15.7143H8.57142C9.3604 15.7143 9.99999 16.3539 9.99999 17.1429C9.99999 17.9318 9.3604 18.5714 8.57142 18.5714H0.0502344C0.0169329 19.0433 0 19.5197 0 20C0 31.0457 8.9543 40 20 40ZM19.0699 13.8043C17.83 13.9478 16.9164 14.6918 16.9164 15.8795C16.9164 16.8192 17.5168 17.4979 18.7045 17.8894L18.7045 17.8894L18.7045 17.8894C18.822 17.9286 18.9394 17.9677 19.0699 17.9938V13.8043ZM21.0799 26.2686C22.4633 26.1511 23.4422 25.3027 23.4422 24.0237C23.4422 22.9535 22.8027 22.2356 21.3409 21.831C21.2626 21.818 21.1712 21.7919 21.0799 21.7658L21.0799 21.7658V26.2686ZM21.0929 29.0877L21.106 30.7453H18.9916L19.0046 29.1138C14.6845 28.8006 13.0661 26.2555 13.04 23.841H16.4596C16.5248 25.0417 17.3993 26.0467 19.0699 26.2686V21.4134L17.9475 21.1654C15.5199 20.6303 13.3794 19.1163 13.3794 16.1535C13.3794 13.0212 15.8592 11.2853 19.0177 10.9981V9.31449H21.1321V11.0112C24.4341 11.3636 26.5615 13.4258 26.6137 16.1405H23.2725C23.2334 15.0964 22.4633 14.0522 21.0799 13.8304V18.3854L22.1892 18.6203C24.8126 19.1815 26.94 20.5128 26.94 23.6713C26.94 26.7776 24.6691 28.7484 21.0929 29.0877Z" fill="#161616"/>
<path d="M58.768 26H50.448V27.76H48.64V24.304H50.208L54.608 14.24L58.992 24.304H60.56V27.76H58.768V26ZM54.608 18.048L52.256 24.304H56.96L54.608 18.048ZM61.6896 22.32C61.6896 21.5627 61.8603 20.896 62.2016 20.32C62.5536 19.744 63.0283 19.296 63.6256 18.976C64.2336 18.6453 64.911 18.48 65.6576 18.48C66.415 18.48 67.0923 18.6453 67.6896 18.976C68.287 19.296 68.7563 19.744 69.0976 20.32C69.4496 20.896 69.6256 21.5627 69.6256 22.32C69.6256 23.0667 69.4496 23.7333 69.0976 24.32C68.7563 24.896 68.287 25.3493 67.6896 25.68C67.0923 26 66.415 26.16 65.6576 26.16C64.911 26.16 64.2336 26 63.6256 25.68C63.0283 25.3493 62.5536 24.896 62.2016 24.32C61.8603 23.7333 61.6896 23.0667 61.6896 22.32ZM63.4656 22.32C63.4656 23.0027 63.6736 23.5627 64.0896 24C64.5163 24.4267 65.039 24.64 65.6576 24.64C66.287 24.64 66.8096 24.4267 67.2256 24C67.6416 23.5627 67.8496 23.0027 67.8496 22.32C67.8496 21.6267 67.6416 21.0667 67.2256 20.64C66.8096 20.2133 66.287 20 65.6576 20C65.039 20 64.5163 20.2133 64.0896 20.64C63.6736 21.0667 63.4656 21.6267 63.4656 22.32ZM72.2973 22.32C72.2973 22.7787 72.3986 23.1893 72.6013 23.552C72.8039 23.904 73.0759 24.1813 73.4173 24.384C73.7693 24.576 74.1586 24.672 74.5853 24.672C75.1186 24.672 75.6039 24.5547 76.0413 24.32C76.4893 24.0853 76.8039 23.7867 76.9853 23.424V25.328C76.7293 25.5947 76.3826 25.8027 75.9453 25.952C75.5079 26.0907 75.0279 26.16 74.5053 26.16C73.7479 26.16 73.0653 26 72.4573 25.68C71.8599 25.3493 71.3853 24.896 71.0333 24.32C70.6919 23.7333 70.5213 23.0667 70.5213 22.32C70.5213 21.5627 70.6919 20.896 71.0333 20.32C71.3853 19.744 71.8599 19.296 72.4573 18.976C73.0653 18.6453 73.7479 18.48 74.5053 18.48C75.0279 18.48 75.5079 18.5547 75.9453 18.704C76.3826 18.8533 76.7293 19.0507 76.9853 19.296V21.216C76.8039 20.8533 76.4839 20.5547 76.0253 20.32C75.5773 20.0853 75.0973 19.968 74.5853 19.968C74.1586 19.968 73.7693 20.0693 73.4173 20.272C73.0759 20.4747 72.8039 20.752 72.6013 21.104C72.3986 21.456 72.2973 21.8613 72.2973 22.32ZM77.7512 18.64H82.4072V20.16H80.9352V26H79.2392V20.16H77.7512V18.64ZM90.4641 18.64L85.6641 29.52H83.8241L85.7601 25.136L82.7841 18.64H84.7681L86.7041 23.424L88.6081 18.64H90.4641ZM97.891 18.64V26H96.195V20.192H93.075V26H91.379V18.64H97.891ZM99.9777 18.64H101.674V21.392H105.434V18.64H107.13V26H105.434V22.848H101.674V26H99.9777V18.64ZM116.353 18.64H118.097V26H116.353V18.64ZM109.217 18.64H110.945V21.296H112.705C113.462 21.296 114.097 21.4827 114.609 21.856C115.132 22.2187 115.393 22.7947 115.393 23.584C115.393 24.3733 115.132 24.976 114.609 25.392C114.097 25.7973 113.462 26 112.705 26H109.217V18.64ZM112.545 22.608H110.945V24.576H112.545C112.929 24.576 113.222 24.4853 113.425 24.304C113.628 24.1227 113.729 23.8827 113.729 23.584C113.729 23.2747 113.628 23.0347 113.425 22.864C113.222 22.6933 112.929 22.608 112.545 22.608ZM127.071 24.16C126.826 24.5547 126.543 24.9067 126.223 25.216C125.903 25.5147 125.514 25.7493 125.055 25.92C124.597 26.08 124.037 26.16 123.375 26.16C122.618 26.16 121.957 25.9947 121.391 25.664C120.826 25.3333 120.389 24.88 120.079 24.304C119.77 23.7173 119.615 23.056 119.615 22.32C119.615 22.1813 119.621 22.048 119.631 21.92C119.642 21.792 119.658 21.664 119.679 21.536C119.829 20.6293 120.234 19.8933 120.895 19.328C121.557 18.7627 122.41 18.48 123.455 18.48C124.597 18.48 125.493 18.816 126.143 19.488C126.805 20.16 127.135 21.0773 127.135 22.24C127.135 22.304 127.135 22.3787 127.135 22.464C127.135 22.5493 127.13 22.6347 127.119 22.72H121.391C121.455 23.392 121.674 23.8987 122.047 24.24C122.421 24.5707 122.89 24.736 123.455 24.736C123.957 24.736 124.378 24.6347 124.719 24.432C125.071 24.2187 125.354 23.9307 125.567 23.568L127.071 24.16ZM123.439 19.792C122.917 19.792 122.469 19.9467 122.095 20.256C121.722 20.5547 121.498 20.976 121.423 21.52H125.263C125.199 20.9973 125.018 20.5813 124.719 20.272C124.431 19.952 124.005 19.792 123.439 19.792ZM139.917 24.48H141.197V27.52H139.613V26H133.357V18.64H135.085V24.48H138.173V18.64H139.917V24.48ZM149.524 24.16C149.278 24.5547 148.996 24.9067 148.676 25.216C148.356 25.5147 147.966 25.7493 147.508 25.92C147.049 26.08 146.489 26.16 145.828 26.16C145.07 26.16 144.409 25.9947 143.844 25.664C143.278 25.3333 142.841 24.88 142.532 24.304C142.222 23.7173 142.068 23.056 142.068 22.32C142.068 22.1813 142.073 22.048 142.084 21.92C142.094 21.792 142.11 21.664 142.132 21.536C142.281 20.6293 142.686 19.8933 143.348 19.328C144.009 18.7627 144.862 18.48 145.908 18.48C147.049 18.48 147.945 18.816 148.596 19.488C149.257 20.16 149.588 21.0773 149.588 22.24C149.588 22.304 149.588 22.3787 149.588 22.464C149.588 22.5493 149.582 22.6347 149.572 22.72H143.844C143.908 23.392 144.126 23.8987 144.5 24.24C144.873 24.5707 145.342 24.736 145.908 24.736C146.409 24.736 146.83 24.6347 147.172 24.432C147.524 24.2187 147.806 23.9307 148.02 23.568L149.524 24.16ZM145.892 19.792C145.369 19.792 144.921 19.9467 144.548 20.256C144.174 20.5547 143.95 20.976 143.876 21.52H147.716C147.652 20.9973 147.47 20.5813 147.172 20.272C146.884 19.952 146.457 19.792 145.892 19.792ZM151.133 18.64H152.829V21.392H156.589V18.64H158.285V26H156.589V22.848H152.829V26H151.133V18.64ZM167.508 18.64H169.252V26H167.508V18.64ZM160.372 18.64H162.1V21.296H163.86C164.617 21.296 165.252 21.4827 165.764 21.856C166.287 22.2187 166.548 22.7947 166.548 23.584C166.548 24.3733 166.287 24.976 165.764 25.392C165.252 25.7973 164.617 26 163.86 26H160.372V18.64ZM163.7 22.608H162.1V24.576H163.7C164.084 24.576 164.377 24.4853 164.58 24.304C164.783 24.1227 164.884 23.8827 164.884 23.584C164.884 23.2747 164.783 23.0347 164.58 22.864C164.377 22.6933 164.084 22.608 163.7 22.608Z" fill="black"/>
</svg>
