<svg width="272" height="106" viewBox="0 0 272 106" fill="none" xmlns="http://www.w3.org/2000/svg">
<g filter="url(#filter0_d)">
<path d="M192.94 80L246 14H10L64.6443 80H192.94Z" fill="#FEC901"/>
</g>
<g clip-path="url(#clip0)">
<path d="M100.978 58.8309C101.656 57.4229 102.881 56.3063 104.434 55.7883C109.337 54.154 112.832 49.7769 113.339 44.6369C113.399 44.0321 113.198 43.4265 112.789 42.9753C112.378 42.5217 111.792 42.2617 111.18 42.2617H106.781C98.0794 42.2617 91 49.3411 91 58.0431C91 61.7139 92.2875 65.2413 94.5309 68.0422C95.315 65.2929 96.8038 62.748 98.9124 60.6195C99.557 59.969 100.249 59.3718 100.978 58.8309Z" fill="white"/>
<path d="M161.793 50.47L157.949 49.1894C156.498 48.7057 155.253 47.5491 154.445 45.933C152.522 42.0906 148.179 40.0445 144.012 40.9666C141.732 38.0981 138.991 36.2294 137.363 35.2796C136.805 34.9538 136.111 34.9522 135.551 35.2758C134.991 35.599 134.645 36.2014 134.648 36.8475C134.658 38.9354 134.96 42.7711 136.724 46.5548L133.846 55.1594C132.959 57.8194 130.479 59.6066 127.675 59.6066H111.653C108.073 59.6066 104.552 61.0881 101.993 63.6713C99.5328 66.1545 98.1956 69.3744 98.2271 72.738C98.2618 76.431 99.8282 79.8562 102.562 82.2952V100.798C102.562 101.995 103.533 102.966 104.73 102.966H112.618C113.299 102.966 113.96 102.678 114.381 102.143C114.971 101.391 114.997 100.366 114.483 99.5956L111.957 95.8055V90.2711C113.46 88.9716 114.727 87.3932 115.689 85.6221C116.678 83.9521 117.343 82.0886 117.609 80.1483C117.757 79.0656 118.667 78.251 119.76 78.251C121.066 78.251 122.084 79.3977 121.913 80.6922C121.686 82.3962 121.226 84.0551 120.556 85.6221H132.654L133.933 100.978C134.027 102.102 134.966 102.966 136.094 102.966H143.982C144.663 102.966 145.324 102.677 145.744 102.142C146.335 101.391 146.36 100.366 145.847 99.5954L143.385 95.9019L144.653 82.774C149.207 79.6984 151.992 74.5205 151.992 69.001V59.6065H160.312C162.901 59.6065 165 57.5075 165 54.9182C165 52.8997 163.708 51.1079 161.793 50.47Z" fill="white"/>
</g>
<defs>
<filter id="filter0_d" x="0" y="0" width="272" height="102" filterUnits="userSpaceOnUse" color-interpolation-filters="sRGB">
<feFlood flood-opacity="0" result="BackgroundImageFix"/>
<feColorMatrix in="SourceAlpha" type="matrix" values="0 0 0 0 0 0 0 0 0 0 0 0 0 0 0 0 0 0 127 0"/>
<feOffset dx="8" dy="4"/>
<feGaussianBlur stdDeviation="9"/>
<feColorMatrix type="matrix" values="0 0 0 0 0.171129 0 0 0 0 0.171129 0 0 0 0 0.171129 0 0 0 0.15 0"/>
<feBlend mode="normal" in2="BackgroundImageFix" result="effect1_dropShadow"/>
<feBlend mode="normal" in="SourceGraphic" in2="effect1_dropShadow" result="shape"/>
</filter>
<clipPath id="clip0">
<rect width="74" height="74" fill="white" transform="translate(91 32)"/>
</clipPath>
</defs>
</svg>
