<svg width="272" height="106" viewBox="0 0 272 106" fill="none" xmlns="http://www.w3.org/2000/svg">
<g filter="url(#filter0_d)">
<path d="M192.94 80L246 14H10L64.6443 80H192.94Z" fill="#FEC901"/>
</g>
<path d="M128 38.9375L102.562 51.6562V99.0625C102.562 100.34 103.597 101.375 104.875 101.375H151.125C152.403 101.375 153.438 100.34 153.438 99.0625V51.6562L128 38.9375Z" fill="white"/>
<path d="M126.844 85.1875H119.906V42.9844L115.281 45.2969V85.1875H108.344C107.066 85.1875 106.031 86.2223 106.031 87.5V89.8125H129.156V87.5C129.156 86.2223 128.121 85.1875 126.844 85.1875Z" fill="#303030"/>
<path d="M128 38.9375L102.562 51.6562V55.125L128 42.4062L153.438 55.125V51.6562L128 38.9375Z" fill="#F0F0F0"/>
<path d="M128 41.25L155.069 54.7851C156.445 55.4719 158.062 54.4718 158.062 52.9351C158.062 52.1512 157.62 51.4354 156.919 51.0851L129.034 37.1419C128.383 36.8158 127.616 36.8158 126.965 37.1419L99.081 51.0851C98.3803 51.4354 97.9375 52.1512 97.9375 52.9351C97.9375 54.4729 99.5551 55.4731 100.931 54.7851L128 41.25Z" fill="white"/>
<path d="M129.156 96.75H150.506C150.9 96.0701 151.125 95.2804 151.125 94.4375C151.125 91.8833 149.054 89.8125 146.5 89.8125C144.482 89.8125 142.766 91.104 142.135 92.9055C141.4 92.4129 140.514 92.125 139.562 92.125C139.562 89.8379 137.902 87.9394 135.721 87.5671C134.788 84.8372 132.202 82.875 129.156 82.875C125.324 82.875 122.219 85.9807 122.219 89.8125C122.219 93.6443 125.324 96.75 129.156 96.75Z" fill="#D2D2D2"/>
<path d="M151.125 101.375H104.875C103.597 101.375 102.562 100.34 102.562 99.0625V96.75H153.438V99.0625C153.438 100.34 152.403 101.375 151.125 101.375Z" fill="white"/>
<path d="M114.455 80.5625H118.42V46.7617C118.42 45.7242 117.533 44.8839 116.437 44.8839C115.342 44.8839 114.455 45.7242 114.455 46.7617V80.5625Z" fill="#FEC901"/>
<path d="M118.75 85.1875V80.5625H114.125V85.1875H107.188C105.91 85.1875 104.875 86.2223 104.875 87.5V89.8125H128V87.5C128 86.2223 126.965 85.1875 125.688 85.1875H118.75Z" fill="#303030"/>
<path d="M114.125 79.4062H118.75V80.5625H114.125V79.4062Z" fill="white"/>
<path d="M125.688 96.75H107.188C105.91 96.75 104.875 95.7152 104.875 94.4375V89.8125H128V94.4375C128 95.7152 126.965 96.75 125.688 96.75Z" fill="#FAB400"/>
<path d="M104.875 89.8125H128V90.9688H104.875V89.8125Z" fill="#DC9600"/>
<path d="M121.062 94.4375H123.375C123.375 91.8833 125.446 89.8125 128 89.8125C130.554 89.8125 132.625 91.8833 132.625 94.4375C133.903 94.4375 134.938 95.4723 134.938 96.75H118.75C118.75 95.4723 119.785 94.4375 121.062 94.4375Z" fill="#F0F0F0"/>
<path d="M125.688 73.625C126.965 73.625 128 72.5897 128 71.3125C128 70.0353 126.965 69 125.688 69C124.41 69 123.375 70.0353 123.375 71.3125C123.375 72.5897 124.41 73.625 125.688 73.625Z" fill="#F0F0F0"/>
<path d="M137.25 80.5625C139.804 80.5625 141.875 78.4918 141.875 75.9375C141.875 73.3832 139.804 71.3125 137.25 71.3125C134.696 71.3125 132.625 73.3832 132.625 75.9375C132.625 78.4918 134.696 80.5625 137.25 80.5625Z" fill="#F0F0F0"/>
<defs>
<filter id="filter0_d" x="0" y="0" width="272" height="102" filterUnits="userSpaceOnUse" color-interpolation-filters="sRGB">
<feFlood flood-opacity="0" result="BackgroundImageFix"/>
<feColorMatrix in="SourceAlpha" type="matrix" values="0 0 0 0 0 0 0 0 0 0 0 0 0 0 0 0 0 0 127 0"/>
<feOffset dx="8" dy="4"/>
<feGaussianBlur stdDeviation="9"/>
<feColorMatrix type="matrix" values="0 0 0 0 0.171129 0 0 0 0 0.171129 0 0 0 0 0.171129 0 0 0 0.15 0"/>
<feBlend mode="normal" in2="BackgroundImageFix" result="effect1_dropShadow"/>
<feBlend mode="normal" in="SourceGraphic" in2="effect1_dropShadow" result="shape"/>
</filter>
</defs>
</svg>
