<svg width="272" height="106" viewBox="0 0 272 106" fill="none" xmlns="http://www.w3.org/2000/svg">
<g filter="url(#filter0_d)">
<path d="M192.94 80L246 14H10L64.6443 80H192.94Z" fill="#FEC901"/>
</g>
<path d="M158.641 59.4609V51.5233C158.641 47.7713 156.17 45.5859 152.418 45.5859H104.762C101.011 45.5859 97.3594 47.7713 97.3594 51.5233V59.4609H98.3942C101.665 59.4609 103.719 61.2554 103.719 64.5265V72.7578H152.281V64.5265C152.281 61.2554 155.515 59.4609 158.786 59.4609H158.641Z" fill="white"/>
<path d="M103.719 75.0703V75.7866V77.3782C103.719 78.4969 105.236 80.2734 106.354 80.2734H150.826C151.944 80.2734 152.281 78.4969 152.281 77.3782V75.7866V75.0703H103.719Z" fill="white"/>
<path d="M161.97 61.7734H158.786C156.789 61.7734 154.594 62.5302 154.594 64.5265V75.7866V77.3782C154.594 79.7716 153.219 82.5859 150.826 82.5859H106.354C103.961 82.5859 101.406 79.7716 101.406 77.3782V75.7866V64.5265C101.406 62.5302 100.39 61.7734 98.3942 61.7734H95.2099C93.2142 61.7734 91 62.5302 91 64.5265V78.9611C91 82.7131 94.6428 86.6328 98.3942 86.6328H97.9375V90.9688C97.9375 91.2879 98.7833 92.4141 99.103 92.4141H103.141C103.46 92.4141 103.141 91.2879 103.141 90.9688V86.6328H152.859V90.9688C152.859 91.2879 153.662 92.4141 153.981 92.4141H158.019C158.338 92.4141 158.062 91.2879 158.062 90.9688V86.6328H158.786C162.538 86.6328 165 82.7131 165 78.9611V64.5265C165 62.5302 163.966 61.7734 161.97 61.7734Z" fill="white"/>
<defs>
<filter id="filter0_d" x="0" y="0" width="272" height="102" filterUnits="userSpaceOnUse" color-interpolation-filters="sRGB">
<feFlood flood-opacity="0" result="BackgroundImageFix"/>
<feColorMatrix in="SourceAlpha" type="matrix" values="0 0 0 0 0 0 0 0 0 0 0 0 0 0 0 0 0 0 127 0"/>
<feOffset dx="8" dy="4"/>
<feGaussianBlur stdDeviation="9"/>
<feColorMatrix type="matrix" values="0 0 0 0 0.171129 0 0 0 0 0.171129 0 0 0 0 0.171129 0 0 0 0.15 0"/>
<feBlend mode="normal" in2="BackgroundImageFix" result="effect1_dropShadow"/>
<feBlend mode="normal" in="SourceGraphic" in2="effect1_dropShadow" result="shape"/>
</filter>
</defs>
</svg>
