<svg width="155" height="69" viewBox="0 0 155 69" fill="none" xmlns="http://www.w3.org/2000/svg">
<path d="M4.44034 66.364C4.73012 66.364 4.98331 66.2762 5.19991 66.1006C5.41651 65.925 5.53651 65.7055 5.55993 65.442H6.32828C6.31364 65.7142 6.21998 65.9733 6.04728 66.2191C5.87459 66.465 5.64335 66.6611 5.35357 66.8075C5.06673 66.9538 4.76231 67.027 4.44034 67.027C3.79347 67.027 3.27831 66.8119 2.89487 66.3816C2.51435 65.9484 2.3241 65.3571 2.3241 64.6078V64.4717C2.3241 64.0092 2.40898 63.598 2.57875 63.238C2.74852 62.8779 2.99146 62.5984 3.30758 62.3994C3.62663 62.2003 4.00275 62.1008 4.43595 62.1008C4.96867 62.1008 5.41065 62.2603 5.7619 62.5794C6.11607 62.8984 6.30486 63.3126 6.32828 63.8219H5.55993C5.53651 63.5146 5.41943 63.2628 5.20869 63.0667C5.00087 62.8677 4.74329 62.7682 4.43595 62.7682C4.02324 62.7682 3.70273 62.9175 3.47442 63.216C3.24904 63.5116 3.13635 63.9404 3.13635 64.5024V64.6561C3.13635 65.2035 3.24904 65.625 3.47442 65.9206C3.6998 66.2162 4.02178 66.364 4.44034 66.364Z" fill="white"/>
<path d="M8.5736 66.9392H7.76135V60.1953H8.5736V66.9392Z" fill="white"/>
<path d="M12.2985 67.027C11.6546 67.027 11.1307 66.8163 10.7267 66.3948C10.3228 65.9703 10.1208 65.404 10.1208 64.6956V64.5463C10.1208 64.0751 10.2101 63.6551 10.3887 63.2863C10.5701 62.9145 10.8219 62.6247 11.1438 62.4169C11.4687 62.2062 11.82 62.1008 12.1976 62.1008C12.8152 62.1008 13.2952 62.3042 13.6377 62.7111C13.9801 63.118 14.1514 63.7004 14.1514 64.4585V64.7966H10.9331C10.9448 65.2649 11.0809 65.644 11.3414 65.9338C11.6048 66.2206 11.9385 66.364 12.3424 66.364C12.6293 66.364 12.8722 66.3055 13.0713 66.1884C13.2703 66.0713 13.4445 65.9162 13.5938 65.723L14.0899 66.1094C13.6918 66.7211 13.0947 67.027 12.2985 67.027ZM12.1976 62.7682C11.8697 62.7682 11.5946 62.8882 11.3721 63.1282C11.1497 63.3653 11.0121 63.699 10.9594 64.1292H13.3391V64.0678C13.3157 63.6551 13.2045 63.336 13.0054 63.1106C12.8064 62.8823 12.5371 62.7682 12.1976 62.7682Z" fill="white"/>
<path d="M18.4778 66.9392C18.431 66.8455 18.3929 66.6787 18.3636 66.4387C17.9861 66.8309 17.5353 67.027 17.0114 67.027C16.543 67.027 16.1581 66.8953 15.8566 66.6319C15.5581 66.3655 15.4088 66.0289 15.4088 65.622C15.4088 65.1274 15.5961 64.7439 15.9708 64.4717C16.3484 64.1966 16.8782 64.059 17.5602 64.059H18.3505V63.6858C18.3505 63.4019 18.2656 63.1765 18.0958 63.0097C17.9261 62.8399 17.6758 62.755 17.345 62.755C17.0553 62.755 16.8123 62.8282 16.6162 62.9745C16.4201 63.1209 16.322 63.298 16.322 63.5058H15.5054C15.5054 63.2687 15.5888 63.0404 15.7557 62.8209C15.9254 62.5984 16.1537 62.4228 16.4406 62.294C16.7304 62.1652 17.0479 62.1008 17.3933 62.1008C17.9407 62.1008 18.3695 62.2384 18.6798 62.5135C18.99 62.7857 19.151 63.1619 19.1627 63.6419V65.8284C19.1627 66.2645 19.2183 66.6114 19.3296 66.8689V66.9392H18.4778ZM17.1299 66.3201C17.3846 66.3201 17.626 66.2543 17.8543 66.1226C18.0827 65.9908 18.248 65.8196 18.3505 65.6089V64.6342H17.7138C16.7187 64.6342 16.2211 64.9254 16.2211 65.5079C16.2211 65.7625 16.3059 65.9616 16.4757 66.105C16.6455 66.2484 16.8635 66.3201 17.1299 66.3201Z" fill="white"/>
<path d="M21.6539 62.1886L21.6803 62.7857C22.0432 62.3291 22.5174 62.1008 23.1028 62.1008C24.1068 62.1008 24.6132 62.6672 24.6219 63.8V66.9392H23.8097V63.7956C23.8068 63.4531 23.7277 63.1999 23.5726 63.036C23.4204 62.8721 23.1818 62.7901 22.8569 62.7901C22.5935 62.7901 22.3623 62.8604 22.1632 63.0009C21.9642 63.1414 21.8091 63.3258 21.6978 63.5541V66.9392H20.8856V62.1886H21.6539Z" fill="white"/>
<path d="M27.179 66.9392H26.3667V62.1886H27.179V66.9392ZM26.3009 60.9285C26.3009 60.7968 26.3404 60.6856 26.4194 60.5949C26.5014 60.5041 26.6214 60.4587 26.7794 60.4587C26.9375 60.4587 27.0575 60.5041 27.1395 60.5949C27.2214 60.6856 27.2624 60.7968 27.2624 60.9285C27.2624 61.0603 27.2214 61.17 27.1395 61.2578C27.0575 61.3456 26.9375 61.3895 26.7794 61.3895C26.6214 61.3895 26.5014 61.3456 26.4194 61.2578C26.3404 61.17 26.3009 61.0603 26.3009 60.9285Z" fill="white"/>
<path d="M29.7009 62.1886L29.7273 62.7857C30.0902 62.3291 30.5644 62.1008 31.1498 62.1008C32.1538 62.1008 32.6602 62.6672 32.6689 63.8V66.9392H31.8567V63.7956C31.8538 63.4531 31.7747 63.1999 31.6196 63.036C31.4674 62.8721 31.2288 62.7901 30.9039 62.7901C30.6405 62.7901 30.4093 62.8604 30.2102 63.0009C30.0112 63.1414 29.8561 63.3258 29.7448 63.5541V66.9392H28.9326V62.1886H29.7009Z" fill="white"/>
<path d="M34.1503 64.5244C34.1503 63.7839 34.3215 63.1955 34.664 62.7594C35.0065 62.3203 35.4601 62.1008 36.0251 62.1008C36.6046 62.1008 37.0568 62.3057 37.3817 62.7155L37.4213 62.1886H38.1633V66.825C38.1633 67.4397 37.9803 67.9241 37.6144 68.2783C37.2515 68.6325 36.7627 68.8096 36.148 68.8096C35.8055 68.8096 35.4704 68.7364 35.1426 68.59C34.8147 68.4437 34.5645 68.2432 34.3918 67.9885L34.8133 67.5012C35.1616 67.9315 35.5875 68.1466 36.0909 68.1466C36.4861 68.1466 36.7934 68.0354 37.0129 67.8129C37.2354 67.5905 37.3466 67.2773 37.3466 66.8733V66.465C37.0217 66.8397 36.5783 67.027 36.0163 67.027C35.4601 67.027 35.0094 66.8031 34.664 66.3553C34.3215 65.9074 34.1503 65.2971 34.1503 64.5244ZM34.9669 64.6166C34.9669 65.1522 35.0767 65.5737 35.2962 65.8811C35.5158 66.1855 35.8231 66.3377 36.2183 66.3377C36.7305 66.3377 37.1066 66.105 37.3466 65.6396V63.4707C37.0978 63.017 36.7246 62.7901 36.227 62.7901C35.8319 62.7901 35.5231 62.9438 35.3006 63.2511C35.0782 63.5585 34.9669 64.0136 34.9669 64.6166Z" fill="white"/>
<path d="M44.4277 66.364C44.7175 66.364 44.9707 66.2762 45.1873 66.1006C45.4039 65.925 45.5239 65.7055 45.5473 65.442H46.3156C46.301 65.7142 46.2073 65.9733 46.0346 66.2191C45.8619 66.465 45.6307 66.6611 45.3409 66.8075C45.0541 66.9538 44.7497 67.027 44.4277 67.027C43.7808 67.027 43.2657 66.8119 42.8822 66.3816C42.5017 65.9484 42.3115 65.3571 42.3115 64.6078V64.4717C42.3115 64.0092 42.3963 63.598 42.5661 63.238C42.7359 62.8779 42.9788 62.5984 43.2949 62.3994C43.614 62.2003 43.9901 62.1008 44.4233 62.1008C44.956 62.1008 45.398 62.2603 45.7492 62.5794C46.1034 62.8984 46.2922 63.3126 46.3156 63.8219H45.5473C45.5239 63.5146 45.4068 63.2628 45.196 63.0667C44.9882 62.8677 44.7306 62.7682 44.4233 62.7682C44.0106 62.7682 43.6901 62.9175 43.4618 63.216C43.2364 63.5116 43.1237 63.9404 43.1237 64.5024V64.6561C43.1237 65.2035 43.2364 65.625 43.4618 65.9206C43.6872 66.2162 44.0091 66.364 44.4277 66.364Z" fill="white"/>
<path d="M47.4633 64.52C47.4633 64.0546 47.5541 63.636 47.7355 63.2643C47.9199 62.8926 48.1746 62.6057 48.4995 62.4038C48.8273 62.2018 49.2005 62.1008 49.6191 62.1008C50.266 62.1008 50.7884 62.3247 51.1865 62.7726C51.5875 63.2204 51.788 63.8161 51.788 64.5595V64.6166C51.788 65.0791 51.6987 65.4947 51.5202 65.8635C51.3446 66.2294 51.0914 66.5148 50.7606 66.7197C50.4328 66.9246 50.0552 67.027 49.6279 67.027C48.9839 67.027 48.4614 66.8031 48.0604 66.3553C47.6624 65.9074 47.4633 65.3147 47.4633 64.5771V64.52ZM48.28 64.6166C48.28 65.1435 48.4014 65.5664 48.6444 65.8855C48.8902 66.2045 49.2181 66.364 49.6279 66.364C50.0406 66.364 50.3684 66.203 50.6113 65.8811C50.8543 65.5562 50.9758 65.1025 50.9758 64.52C50.9758 63.999 50.8514 63.5775 50.6026 63.2555C50.3567 62.9306 50.0289 62.7682 49.6191 62.7682C49.2181 62.7682 48.8946 62.9277 48.6488 63.2467C48.4029 63.5658 48.28 64.0224 48.28 64.6166Z" fill="white"/>
<path d="M54.0202 62.1886L54.0421 62.7155C54.3904 62.3057 54.8602 62.1008 55.4515 62.1008C56.1159 62.1008 56.5681 62.3555 56.8082 62.8648C56.9662 62.6365 57.1711 62.4521 57.4228 62.3116C57.6775 62.1711 57.9775 62.1008 58.3229 62.1008C59.3649 62.1008 59.8947 62.6526 59.9123 63.756V66.9392H59.1V63.8043C59.1 63.4648 59.0225 63.2116 58.8673 63.0448C58.7122 62.875 58.4517 62.7901 58.0858 62.7901C57.7843 62.7901 57.5341 62.8809 57.335 63.0623C57.136 63.2409 57.0204 63.4824 56.9882 63.7868V66.9392H56.1715V63.8263C56.1715 63.1355 55.8335 62.7901 55.1573 62.7901C54.6246 62.7901 54.2602 63.017 54.0641 63.4707V66.9392H53.2518V62.1886H54.0202Z" fill="white"/>
<path d="M65.6042 64.6166C65.6042 65.3396 65.4388 65.9221 65.1081 66.364C64.7773 66.806 64.3295 67.027 63.7645 67.027C63.1879 67.027 62.7342 66.8441 62.4035 66.4782V68.7657H61.5912V62.1886H62.3332L62.3727 62.7155C62.7035 62.3057 63.163 62.1008 63.7514 62.1008C64.3221 62.1008 64.7729 62.3159 65.1037 62.7462C65.4373 63.1765 65.6042 63.7751 65.6042 64.542V64.6166ZM64.7919 64.5244C64.7919 63.9887 64.6778 63.5658 64.4495 63.2555C64.2212 62.9453 63.908 62.7901 63.5099 62.7901C63.0182 62.7901 62.6493 63.0082 62.4035 63.4443V65.7142C62.6464 66.1474 63.0182 66.364 63.5187 66.364C63.908 66.364 64.2168 66.2104 64.4451 65.903C64.6763 65.5928 64.7919 65.1332 64.7919 64.5244Z" fill="white"/>
<path d="M70.0228 66.9392C69.976 66.8455 69.938 66.6787 69.9087 66.4387C69.5311 66.8309 69.0803 67.027 68.5564 67.027C68.0881 67.027 67.7032 66.8953 67.4017 66.6319C67.1031 66.3655 66.9538 66.0289 66.9538 65.622C66.9538 65.1274 67.1412 64.7439 67.5158 64.4717C67.8934 64.1966 68.4232 64.059 69.1052 64.059H69.8955V63.6858C69.8955 63.4019 69.8106 63.1765 69.6409 63.0097C69.4711 62.8399 69.2208 62.755 68.8901 62.755C68.6003 62.755 68.3574 62.8282 68.1612 62.9745C67.9651 63.1209 67.8671 63.298 67.8671 63.5058H67.0504C67.0504 63.2687 67.1339 63.0404 67.3007 62.8209C67.4705 62.5984 67.6988 62.4228 67.9856 62.294C68.2754 62.1652 68.593 62.1008 68.9384 62.1008C69.4857 62.1008 69.9145 62.2384 70.2248 62.5135C70.5351 62.7857 70.6961 63.1619 70.7078 63.6419V65.8284C70.7078 66.2645 70.7634 66.6114 70.8746 66.8689V66.9392H70.0228ZM68.6749 66.3201C68.9296 66.3201 69.1711 66.2543 69.3994 66.1226C69.6277 65.9908 69.7931 65.8196 69.8955 65.6089V64.6342H69.2589C68.2637 64.6342 67.7661 64.9254 67.7661 65.5079C67.7661 65.7625 67.851 65.9616 68.0207 66.105C68.1905 66.2484 68.4086 66.3201 68.6749 66.3201Z" fill="white"/>
<path d="M73.199 62.1886L73.2253 62.7857C73.5883 62.3291 74.0624 62.1008 74.6478 62.1008C75.6518 62.1008 76.1582 62.6672 76.167 63.8V66.9392H75.3547V63.7956C75.3518 63.4531 75.2728 63.1999 75.1176 63.036C74.9654 62.8721 74.7269 62.7901 74.402 62.7901C74.1385 62.7901 73.9073 62.8604 73.7083 63.0009C73.5092 63.1414 73.3541 63.3258 73.2429 63.5541V66.9392H72.4306V62.1886H73.199Z" fill="white"/>
<path d="M79.3958 65.7494L80.5022 62.1886H81.3715L79.4616 67.6724C79.166 68.4627 78.6962 68.8579 78.0523 68.8579L77.8986 68.8447L77.5956 68.7876V68.129L77.8152 68.1466C78.0903 68.1466 78.304 68.091 78.4562 67.9798C78.6113 67.8685 78.7387 67.6651 78.8382 67.3695L79.0182 66.8865L77.3234 62.1886H78.2103L79.3958 65.7494Z" fill="white"/>
<path d="M19.0296 47.2548C18.9568 48.8367 18.5301 50.2364 17.7495 51.4541C16.969 52.6613 15.871 53.598 14.4556 54.264C13.0507 54.9301 11.4427 55.2631 9.63189 55.2631C6.64501 55.2631 4.29298 54.29 2.57579 52.3439C0.858596 50.3977 0 47.6502 0 44.1014V42.9774C0 40.7502 0.385067 38.8041 1.1552 37.1389C1.93574 35.4634 3.05452 34.1729 4.51153 33.2674C5.96854 32.3516 7.65451 31.8937 9.56944 31.8937C12.3274 31.8937 14.5441 32.6222 16.2197 34.0792C17.8952 35.5258 18.8475 37.524 19.0764 40.0738H13.6126C13.571 38.6896 13.2224 37.6957 12.5667 37.0921C11.9111 36.4885 10.912 36.1867 9.56944 36.1867C8.2061 36.1867 7.207 36.6966 6.57216 37.7165C5.93732 38.7364 5.60429 40.3652 5.57307 42.6027V44.2106C5.57307 46.6355 5.87488 48.3683 6.4785 49.4091C7.09252 50.4498 8.14365 50.9701 9.63189 50.9701C10.8912 50.9701 11.8538 50.6735 12.5199 50.0803C13.186 49.4871 13.5398 48.5453 13.5814 47.2548H19.0296Z" fill="#161616"/>
<path d="M26.9287 54.9509H21.6522V30.9727H26.9287V54.9509Z" fill="#161616"/>
<path d="M38.3558 55.2631C35.7644 55.2631 33.6674 54.493 32.0647 52.9527C30.4619 51.402 29.6606 49.3882 29.6606 46.9113V46.4742C29.6606 44.7466 29.978 43.222 30.6129 41.9002C31.2581 40.5785 32.1947 39.5586 33.4228 38.8405C34.6509 38.112 36.1079 37.7478 37.7938 37.7478C40.1667 37.7478 42.04 38.4867 43.4137 39.9645C44.7875 41.4319 45.4744 43.4821 45.4744 46.1152V48.1602H35.0151C35.2024 49.1072 35.6135 49.8514 36.2484 50.3925C36.8832 50.9337 37.7054 51.2043 38.7149 51.2043C40.38 51.2043 41.6809 50.6215 42.6176 49.4559L45.0217 52.2971C44.366 53.2025 43.4346 53.9258 42.2273 54.467C41.0305 54.9977 39.74 55.2631 38.3558 55.2631ZM37.7626 41.8066C36.2223 41.8066 35.3065 42.8265 35.0151 44.8663H40.3228V44.4604C40.3436 43.6174 40.1303 42.967 39.6827 42.5091C39.2352 42.0407 38.5952 41.8066 37.7626 41.8066Z" fill="#161616"/>
<path d="M57.1201 54.9509C56.9327 54.6075 56.7662 54.1027 56.6205 53.4367C55.6526 54.6543 54.2997 55.2631 52.5617 55.2631C50.9694 55.2631 49.6164 54.7844 48.5029 53.8269C47.3893 52.8591 46.8325 51.6466 46.8325 50.1896C46.8325 48.3579 47.509 46.9738 48.8619 46.0371C50.2149 45.1005 52.1818 44.6321 54.7628 44.6321H56.3863V43.7423C56.3863 42.1916 55.7151 41.4163 54.3725 41.4163C53.1237 41.4163 52.4992 42.0303 52.4992 43.2584H47.2384C47.2384 41.6245 47.9305 40.2975 49.3146 39.2776C50.7092 38.2577 52.4836 37.7478 54.6379 37.7478C56.7922 37.7478 58.4938 38.2733 59.7427 39.3245C60.9915 40.3756 61.6316 41.817 61.6628 43.6487V51.1262C61.6836 52.6769 61.923 53.8633 62.3809 54.6855V54.9509H57.1201ZM53.8262 51.5165C54.4818 51.5165 55.023 51.376 55.4497 51.095C55.8868 50.814 56.199 50.4966 56.3863 50.1428V47.4421H54.8565C53.0248 47.4421 52.109 48.2643 52.109 49.9086C52.109 50.3873 52.2703 50.7776 52.5929 51.0794C52.9155 51.3708 53.3266 51.5165 53.8262 51.5165Z" fill="#161616"/>
<path d="M69.4214 38.06L69.5931 40.0426C70.7587 38.5127 72.3666 37.7478 74.4169 37.7478C76.1757 37.7478 77.487 38.2733 78.3508 39.3245C79.225 40.3756 79.6777 41.9575 79.7089 44.0701V54.9509H74.4325V44.2887C74.4325 43.4353 74.2607 42.8109 73.9173 42.4154C73.5739 42.0095 72.9494 41.8066 72.044 41.8066C71.0137 41.8066 70.2488 42.2125 69.7492 43.0242V54.9509H64.4884V38.06H69.4214Z" fill="#161616"/>
<path d="M130.46 40.4949C127.868 40.4949 125.771 39.7247 124.169 38.1844C122.566 36.6338 121.765 34.62 121.765 32.1431V31.706C121.765 29.9784 122.082 28.4537 122.717 27.132C123.362 25.8103 124.299 24.7903 125.527 24.0723C126.755 23.3437 128.212 22.9795 129.898 22.9795C132.271 22.9795 134.144 23.7184 135.518 25.1962C136.891 26.6636 137.578 28.7139 137.578 31.3469V33.3919H127.119C127.306 34.339 127.717 35.0831 128.352 35.6243C128.987 36.1654 129.809 36.436 130.819 36.436C132.484 36.436 133.785 35.8532 134.722 34.6876L137.126 37.5288C136.47 38.4342 135.538 39.1575 134.331 39.6987C133.134 40.2295 131.844 40.4949 130.46 40.4949ZM129.867 27.0383C128.326 27.0383 127.41 28.0582 127.119 30.098H132.427V29.6922C132.448 28.8492 132.234 28.1987 131.787 27.7408C131.339 27.2725 130.699 27.0383 129.867 27.0383Z" fill="white"/>
<path d="M147.881 40.4949C145.29 40.4949 143.193 39.7247 141.59 38.1844C139.988 36.6338 139.186 34.62 139.186 32.1431V31.706C139.186 29.9784 139.504 28.4537 140.138 27.132C140.784 25.8103 141.72 24.7903 142.948 24.0723C144.176 23.3437 145.633 22.9795 147.319 22.9795C149.692 22.9795 151.566 23.7184 152.939 25.1962C154.313 26.6636 155 28.7139 155 31.3469V33.3919H144.541C144.728 34.339 145.139 35.0831 145.774 35.6243C146.409 36.1654 147.231 36.436 148.241 36.436C149.906 36.436 151.207 35.8532 152.143 34.6876L154.547 37.5288C153.892 38.4342 152.96 39.1575 151.753 39.6987C150.556 40.2295 149.266 40.4949 147.881 40.4949ZM147.288 27.0383C145.748 27.0383 144.832 28.0582 144.541 30.098H149.848V29.6922C149.869 28.8492 149.656 28.1987 149.208 27.7408C148.761 27.2725 148.121 27.0383 147.288 27.0383Z" fill="white"/>
<path d="M101.489 43.7099C104.487 44.709 108.067 48.1226 109.482 49.7045C110.481 44.9588 106.984 44.9588 105.486 42.461C103.488 38.4647 106.818 37.6321 108.733 37.7153C107.817 36.633 105.336 34.768 102.738 35.9669C97.9925 38.2149 99.4912 42.7108 101.489 43.7099Z" fill="#161616"/>
<path d="M112.489 0.298636C94.592 -2.58414 88.3159 16.1139 87.415 25.8232C88.3159 16.6644 100.928 3.00124 108.886 6.15428C117.144 10.3424 98.6759 21.1687 99.1263 21.7693C113.841 25.5229 113.39 39.036 113.39 40.6876C124.2 31.2284 112.489 22.3699 103.931 21.0186C109.036 21.0186 124.651 3.90211 112.489 0.298636Z" fill="white"/>
<path fill-rule="evenodd" clip-rule="evenodd" d="M78.4159 11.8643C75.6695 8.26138 68.1133 1.98102 59.0279 4.74615C59.707 5.28942 61.3462 5.31572 63.3029 5.34711C64.9447 5.37345 66.81 5.40337 68.5193 5.74524C71.8933 6.42003 75.9437 9.44043 77.2292 12.17C77.0361 12.2421 76.8536 12.322 76.6831 12.4065C73.2616 9.18687 65.2157 4.44049 56.8702 8.24676C57.646 8.71419 58.956 8.56777 60.879 8.35286H60.879C62.3516 8.18827 64.1836 7.98351 66.4104 7.98351C69.7589 7.98351 74.0222 10.5202 75.7552 12.9969C73.7584 15.1687 71.3246 21.24 77.5111 28.2248C77.4235 28.1239 77.5859 28.0608 77.8707 27.9503C78.5455 27.6883 79.9073 27.1597 80.2586 25.2276C80.2986 25.4675 80.3514 25.6946 80.4027 25.9151L80.4027 25.9152C80.6715 27.0718 80.8978 28.0452 79.0098 29.7235C79.093 29.89 79.3595 30.273 79.7591 30.4728C79.7591 30.7226 80.2587 31.4719 80.7582 30.223C80.8246 30.0571 80.9968 29.7236 81.2361 29.2601L81.2362 29.26C82.7983 26.2347 87.2209 17.6697 83.7555 13.9877C81.9108 12.0277 79.9774 11.6366 78.4159 11.8643ZM108.483 50.9542C109.482 51.154 109.732 51.0375 109.732 50.9542C107.946 47.6203 105.081 46.8406 102.356 46.0988C99.3645 45.2844 96.5405 44.5157 95.4948 40.4637C93.8963 34.2694 101.156 32.3877 104.986 32.2212C98.592 27.2258 92.6641 32.9705 90.4994 36.4674C86.7528 26.976 95.245 26.7262 97.493 26.7262C95.245 25.2275 89.5002 24.2285 85.2541 28.2248C81.0079 32.2212 84.0052 43.7108 92.2477 45.9587C107.311 49.5264 107.905 50.4203 108.132 50.7621C108.191 50.8511 108.225 50.9026 108.483 50.9542ZM78.7436 18.6021C78.3833 20.3943 77.1227 21.6525 75.9279 21.4123C74.7331 21.1721 74.0566 19.5245 74.4168 17.7324C74.7771 15.9402 76.0378 14.682 77.2325 14.9222C78.4273 15.1624 79.1038 16.81 78.7436 18.6021Z" fill="#161616"/>
</svg>
