<svg width="367" height="163" viewBox="0 0 367 163" fill="none" xmlns="http://www.w3.org/2000/svg">
<path d="M10.5111 157.096C11.197 157.096 11.7964 156.889 12.3091 156.473C12.8219 156.057 13.1059 155.537 13.1614 154.914H14.9802C14.9455 155.558 14.7238 156.171 14.315 156.753C13.9062 157.335 13.3588 157.8 12.6729 158.146C11.9939 158.493 11.2733 158.666 10.5111 158.666C8.97981 158.666 7.76033 158.157 6.85265 157.138C5.9519 156.113 5.50153 154.713 5.50153 152.939V152.617C5.50153 151.522 5.70246 150.549 6.10434 149.696C6.50621 148.844 7.0813 148.182 7.82962 147.711C8.58486 147.24 9.47522 147.005 10.5007 147.005C11.7617 147.005 12.808 147.382 13.6395 148.137C14.4778 148.893 14.9248 149.873 14.9802 151.079H13.1614C13.1059 150.351 12.8288 149.755 12.3299 149.291C11.838 148.82 11.2282 148.584 10.5007 148.584C9.52372 148.584 8.76501 148.938 8.22456 149.644C7.69104 150.344 7.42428 151.359 7.42428 152.69V153.053C7.42428 154.349 7.69104 155.347 8.22456 156.047C8.75808 156.747 9.52026 157.096 10.5111 157.096Z" fill="#FEC901"/>
<path d="M20.2953 158.458H18.3726V142.494H20.2953V158.458Z" fill="#FEC901"/>
<path d="M29.113 158.666C27.5886 158.666 26.3483 158.167 25.3922 157.169C24.436 156.165 23.9579 154.824 23.9579 153.147V152.794C23.9579 151.678 24.1692 150.684 24.5919 149.811C25.0215 148.931 25.6174 148.245 26.3795 147.753C27.1486 147.254 27.9801 147.005 28.8739 147.005C30.3359 147.005 31.4722 147.486 32.2829 148.449C33.0936 149.412 33.4989 150.791 33.4989 152.586V153.386H25.8806C25.9084 154.495 26.2306 155.392 26.8472 156.078C27.4708 156.757 28.2607 157.096 29.2169 157.096C29.8959 157.096 30.471 156.958 30.9422 156.681C31.4133 156.404 31.8256 156.036 32.179 155.579L33.3534 156.494C32.4111 157.942 30.9976 158.666 29.113 158.666ZM28.8739 148.584C28.0979 148.584 27.4466 148.868 26.92 149.437C26.3934 149.998 26.0677 150.788 25.943 151.806H31.5762V151.661C31.5207 150.684 31.2574 149.929 30.7863 149.395C30.3151 148.855 29.6777 148.584 28.8739 148.584Z" fill="#FEC901"/>
<path d="M43.7404 158.458C43.6296 158.236 43.5395 157.841 43.4702 157.273C42.5764 158.202 41.5094 158.666 40.2691 158.666C39.1605 158.666 38.2493 158.354 37.5357 157.73C36.8289 157.1 36.4756 156.303 36.4756 155.34C36.4756 154.169 36.919 153.261 37.8059 152.617C38.6997 151.966 39.9538 151.64 41.5683 151.64H43.439V150.757C43.439 150.084 43.2381 149.551 42.8362 149.156C42.4344 148.754 41.8419 148.553 41.059 148.553C40.373 148.553 39.7979 148.726 39.3337 149.073C38.8695 149.419 38.6374 149.838 38.6374 150.33H36.7042C36.7042 149.769 36.9017 149.229 37.2966 148.709C37.6985 148.182 38.2389 147.767 38.918 147.462C39.6039 147.157 40.3557 147.005 41.1733 147.005C42.469 147.005 43.4841 147.33 44.2185 147.982C44.953 148.626 45.3341 149.516 45.3618 150.653V155.828C45.3618 156.861 45.4934 157.682 45.7567 158.292V158.458H43.7404ZM40.5497 156.993C41.1525 156.993 41.7242 156.837 42.2646 156.525C42.8051 156.213 43.1965 155.808 43.439 155.309V153.001H41.932C39.5762 153.001 38.3983 153.691 38.3983 155.07C38.3983 155.673 38.5992 156.144 39.0011 156.483C39.403 156.823 39.9192 156.993 40.5497 156.993Z" fill="#FEC901"/>
<path d="M51.2589 147.212L51.3213 148.626C52.1805 147.545 53.3029 147.005 54.6887 147.005C57.0653 147.005 58.264 148.345 58.2848 151.027V158.458H56.362V151.016C56.3551 150.206 56.168 149.606 55.8008 149.218C55.4405 148.83 54.8758 148.636 54.1067 148.636C53.4831 148.636 52.9357 148.803 52.4646 149.135C51.9934 149.468 51.6262 149.904 51.3629 150.445V158.458H49.4401V147.212H51.2589Z" fill="#FEC901"/>
<path d="M64.3378 158.458H62.4151V147.212H64.3378V158.458ZM62.2592 144.23C62.2592 143.918 62.3527 143.654 62.5398 143.44C62.7338 143.225 63.0179 143.117 63.392 143.117C63.7662 143.117 64.0503 143.225 64.2443 143.44C64.4383 143.654 64.5353 143.918 64.5353 144.23C64.5353 144.541 64.4383 144.801 64.2443 145.009C64.0503 145.217 63.7662 145.321 63.392 145.321C63.0179 145.321 62.7338 145.217 62.5398 145.009C62.3527 144.801 62.2592 144.541 62.2592 144.23Z" fill="#FEC901"/>
<path d="M70.3077 147.212L70.3701 148.626C71.2293 147.545 72.3517 147.005 73.7375 147.005C76.1141 147.005 77.3128 148.345 77.3336 151.027V158.458H75.4108V151.016C75.4039 150.206 75.2168 149.606 74.8496 149.218C74.4893 148.83 73.9246 148.636 73.1555 148.636C72.5319 148.636 71.9845 148.803 71.5133 149.135C71.0422 149.468 70.675 149.904 70.4117 150.445V158.458H68.4889V147.212H70.3077Z" fill="#FEC901"/>
<path d="M80.8403 152.742C80.8403 150.989 81.2456 149.596 82.0563 148.564C82.867 147.524 83.9409 147.005 85.2782 147.005C86.6501 147.005 87.7206 147.49 88.4897 148.46L88.5833 147.212H90.3397V158.188C90.3397 159.643 89.9067 160.79 89.0406 161.628C88.1814 162.466 87.0243 162.885 85.5692 162.885C84.7585 162.885 83.9652 162.712 83.1891 162.366C82.4131 162.019 81.8207 161.545 81.4119 160.942L82.4097 159.788C83.2342 160.807 84.2423 161.316 85.4341 161.316C86.3695 161.316 87.097 161.053 87.6167 160.526C88.1433 160 88.4066 159.258 88.4066 158.302V157.335C87.6375 158.222 86.5877 158.666 85.2574 158.666C83.9409 158.666 82.8739 158.136 82.0563 157.076C81.2456 156.016 80.8403 154.571 80.8403 152.742ZM82.7734 152.96C82.7734 154.228 83.0332 155.226 83.5529 155.953C84.0726 156.674 84.8001 157.034 85.7355 157.034C86.9481 157.034 87.8384 156.483 88.4066 155.382V150.247C87.8176 149.173 86.9342 148.636 85.7563 148.636C84.8209 148.636 84.0899 149 83.5633 149.728C83.0367 150.455 82.7734 151.533 82.7734 152.96Z" fill="#FEC901"/>
<path d="M105.169 157.096C105.855 157.096 106.454 156.889 106.967 156.473C107.48 156.057 107.764 155.537 107.819 154.914H109.638C109.603 155.558 109.382 156.171 108.973 156.753C108.564 157.335 108.017 157.8 107.331 158.146C106.652 158.493 105.931 158.666 105.169 158.666C103.638 158.666 102.418 158.157 101.51 157.138C100.61 156.113 100.159 154.713 100.159 152.939V152.617C100.159 151.522 100.36 150.549 100.762 149.696C101.164 148.844 101.739 148.182 102.487 147.711C103.243 147.24 104.133 147.005 105.158 147.005C106.419 147.005 107.466 147.382 108.297 148.137C109.136 148.893 109.583 149.873 109.638 151.079H107.819C107.764 150.351 107.487 149.755 106.988 149.291C106.496 148.82 105.886 148.584 105.158 148.584C104.181 148.584 103.423 148.938 102.882 149.644C102.349 150.344 102.082 151.359 102.082 152.69V153.053C102.082 154.349 102.349 155.347 102.882 156.047C103.416 156.747 104.178 157.096 105.169 157.096Z" fill="#FEC901"/>
<path d="M112.355 152.731C112.355 151.63 112.57 150.639 112.999 149.759C113.436 148.879 114.038 148.2 114.808 147.722C115.584 147.244 116.467 147.005 117.458 147.005C118.989 147.005 120.226 147.535 121.168 148.595C122.117 149.655 122.592 151.065 122.592 152.825V152.96C122.592 154.055 122.381 155.039 121.958 155.912C121.542 156.778 120.943 157.453 120.16 157.938C119.384 158.423 118.49 158.666 117.479 158.666C115.954 158.666 114.717 158.136 113.768 157.076C112.826 156.016 112.355 154.612 112.355 152.866V152.731ZM114.288 152.96C114.288 154.207 114.575 155.208 115.151 155.964C115.733 156.719 116.509 157.096 117.479 157.096C118.456 157.096 119.232 156.715 119.807 155.953C120.382 155.184 120.669 154.11 120.669 152.731C120.669 151.498 120.375 150.5 119.786 149.738C119.204 148.969 118.428 148.584 117.458 148.584C116.509 148.584 115.743 148.962 115.161 149.717C114.579 150.472 114.288 151.553 114.288 152.96Z" fill="#FEC901"/>
<path d="M127.876 147.212L127.928 148.46C128.753 147.49 129.865 147.005 131.264 147.005C132.837 147.005 133.908 147.607 134.476 148.813C134.85 148.273 135.335 147.836 135.931 147.503C136.534 147.171 137.244 147.005 138.061 147.005C140.528 147.005 141.782 148.311 141.824 150.923V158.458H139.901V151.037C139.901 150.233 139.717 149.634 139.35 149.239C138.983 148.837 138.366 148.636 137.5 148.636C136.787 148.636 136.194 148.851 135.723 149.281C135.252 149.703 134.978 150.275 134.902 150.996V158.458H132.969V151.089C132.969 149.454 132.168 148.636 130.568 148.636C129.307 148.636 128.444 149.173 127.98 150.247V158.458H126.057V147.212H127.876Z" fill="#FEC901"/>
<path d="M155.298 152.96C155.298 154.671 154.906 156.05 154.123 157.096C153.34 158.143 152.28 158.666 150.943 158.666C149.578 158.666 148.504 158.233 147.721 157.367V162.782H145.798V147.212H147.555L147.648 148.46C148.431 147.49 149.519 147.005 150.912 147.005C152.263 147.005 153.33 147.514 154.113 148.532C154.903 149.551 155.298 150.968 155.298 152.783V152.96ZM153.375 152.742C153.375 151.474 153.105 150.472 152.564 149.738C152.024 149.004 151.282 148.636 150.34 148.636C149.176 148.636 148.303 149.153 147.721 150.185V155.558C148.296 156.584 149.176 157.096 150.361 157.096C151.282 157.096 152.013 156.733 152.554 156.005C153.101 155.271 153.375 154.183 153.375 152.742Z" fill="#FEC901"/>
<path d="M165.757 158.458C165.647 158.236 165.557 157.841 165.487 157.273C164.593 158.202 163.526 158.666 162.286 158.666C161.177 158.666 160.266 158.354 159.553 157.73C158.846 157.1 158.493 156.303 158.493 155.34C158.493 154.169 158.936 153.261 159.823 152.617C160.717 151.966 161.971 151.64 163.585 151.64H165.456V150.757C165.456 150.084 165.255 149.551 164.853 149.156C164.451 148.754 163.859 148.553 163.076 148.553C162.39 148.553 161.815 148.726 161.351 149.073C160.886 149.419 160.654 149.838 160.654 150.33H158.721C158.721 149.769 158.919 149.229 159.314 148.709C159.715 148.182 160.256 147.767 160.935 147.462C161.621 147.157 162.373 147.005 163.19 147.005C164.486 147.005 165.501 147.33 166.236 147.982C166.97 148.626 167.351 149.516 167.379 150.653V155.828C167.379 156.861 167.51 157.682 167.774 158.292V158.458H165.757ZM162.567 156.993C163.17 156.993 163.741 156.837 164.282 156.525C164.822 156.213 165.214 155.808 165.456 155.309V153.001H163.949C161.593 153.001 160.415 153.691 160.415 155.07C160.415 155.673 160.616 156.144 161.018 156.483C161.42 156.823 161.936 156.993 162.567 156.993Z" fill="#FEC901"/>
<path d="M173.276 147.212L173.338 148.626C174.197 147.545 175.32 147.005 176.706 147.005C179.082 147.005 180.281 148.345 180.302 151.027V158.458H178.379V151.016C178.372 150.206 178.185 149.606 177.818 149.218C177.458 148.83 176.893 148.636 176.124 148.636C175.5 148.636 174.953 148.803 174.482 149.135C174.01 149.468 173.643 149.904 173.38 150.445V158.458H171.457V147.212H173.276Z" fill="#FEC901"/>
<path d="M187.945 155.641L190.564 147.212H192.622L188.101 160.194C187.401 162.064 186.289 163 184.765 163L184.401 162.969L183.684 162.834V161.275L184.203 161.316C184.855 161.316 185.361 161.184 185.721 160.921C186.088 160.658 186.389 160.176 186.625 159.477L187.051 158.333L183.039 147.212H185.139L187.945 155.641Z" fill="#FEC901"/>
<path d="M45.0467 111.859C44.8743 115.604 43.8642 118.918 42.0165 121.8C40.1688 124.658 37.5697 126.875 34.2193 128.452C30.8934 130.028 27.0872 130.817 22.8005 130.817C15.73 130.817 10.1623 128.513 6.09738 123.906C2.03246 119.299 0 112.796 0 104.395V101.734C0 96.462 0.911528 91.855 2.73458 87.9133C4.58228 83.9469 7.23064 80.8921 10.6797 78.7487C14.1287 76.5808 18.1197 75.4968 22.6527 75.4968C29.1812 75.4968 34.4287 77.2213 38.395 80.6703C42.3614 84.0947 44.6156 88.8248 45.1576 94.8606H32.2238C32.1252 91.584 31.2999 89.2313 29.7478 87.8024C28.1958 86.3736 25.8307 85.6591 22.6527 85.6591C19.4254 85.6591 17.0604 86.8663 15.5576 89.2806C14.0548 91.6949 13.2664 95.5504 13.1925 100.847V104.653C13.1925 110.394 13.907 114.495 15.3358 116.959C16.7894 119.423 19.2776 120.654 22.8005 120.654C25.7815 120.654 28.0603 119.952 29.637 118.548C31.2137 117.144 32.0513 114.914 32.1498 111.859H45.0467Z" fill="white"/>
<path d="M63.7454 130.078H51.255V73.3165H63.7454V130.078Z" fill="white"/>
<path d="M90.7956 130.817C84.6613 130.817 79.6971 128.994 75.9032 125.348C72.1093 121.677 70.2123 116.91 70.2123 111.046V110.012C70.2123 105.922 70.9637 102.313 72.4665 99.1842C73.9939 96.0555 76.2112 93.6411 79.1182 91.9413C82.0252 90.2168 85.4743 89.3545 89.4653 89.3545C95.0823 89.3545 99.5167 91.1036 102.769 94.6019C106.021 98.0756 107.647 102.929 107.647 109.162V114.003H82.8875C83.3309 116.245 84.304 118.006 85.8068 119.287C87.3096 120.568 89.2559 121.209 91.6455 121.209C95.5873 121.209 98.6668 119.829 100.884 117.07L106.575 123.795C105.023 125.939 102.818 127.651 99.9602 128.932C97.127 130.189 94.0722 130.817 90.7956 130.817ZM89.3914 98.9625C85.7452 98.9625 83.5773 101.377 82.8875 106.205H95.4518V105.245C95.5011 103.249 94.996 101.709 93.9367 100.625C92.8773 99.5168 91.3622 98.9625 89.3914 98.9625Z" fill="white"/>
<path d="M135.214 130.078C134.771 129.265 134.377 128.07 134.032 126.493C131.74 129.376 128.538 130.817 124.424 130.817C120.654 130.817 117.452 129.683 114.816 127.417C112.18 125.126 110.862 122.256 110.862 118.807C110.862 114.471 112.463 111.194 115.666 108.977C118.868 106.76 123.524 105.651 129.634 105.651H133.477V103.545C133.477 99.874 131.888 98.0387 128.71 98.0387C125.754 98.0387 124.276 99.4922 124.276 102.399H111.822C111.822 98.5314 113.461 95.3903 116.737 92.976C120.038 90.5617 124.239 89.3545 129.338 89.3545C134.438 89.3545 138.466 90.5986 141.422 93.0868C144.379 95.5751 145.894 98.9871 145.968 103.323V121.024C146.017 124.695 146.584 127.503 147.668 129.449V130.078H135.214ZM127.417 121.948C128.969 121.948 130.25 121.615 131.26 120.95C132.295 120.285 133.034 119.533 133.477 118.696V112.303H129.856C125.52 112.303 123.352 114.249 123.352 118.142C123.352 119.275 123.734 120.199 124.498 120.913C125.261 121.603 126.234 121.948 127.417 121.948Z" fill="white"/>
<path d="M164.334 90.0936L164.74 94.7867C167.499 91.1652 171.306 89.3545 176.159 89.3545C180.322 89.3545 183.427 90.5986 185.471 93.0868C187.541 95.5751 188.612 99.3197 188.686 104.321V130.078H176.196V104.838C176.196 102.818 175.789 101.34 174.976 100.404C174.163 99.4429 172.685 98.9625 170.542 98.9625C168.103 98.9625 166.292 99.9233 165.11 101.845V130.078H152.656V90.0936H164.334Z" fill="white"/>
<path d="M308.823 95.8582C302.689 95.8582 297.725 94.0352 293.931 90.389C290.137 86.7183 288.24 81.9513 288.24 76.0879V75.0532C288.24 70.9636 288.991 67.3545 290.494 64.2257C292.022 61.097 294.239 58.6826 297.146 56.9828C300.053 55.2583 303.502 54.396 307.493 54.396C313.11 54.396 317.544 56.1451 320.796 59.6434C324.048 63.1171 325.674 67.9704 325.674 74.2033V79.0442H300.915C301.359 81.2861 302.332 83.0475 303.835 84.3286C305.337 85.6097 307.284 86.2502 309.673 86.2502C313.615 86.2502 316.695 84.8706 318.912 82.1114L324.603 88.837C323.051 90.9803 320.846 92.6925 317.988 93.9736C315.155 95.23 312.1 95.8582 308.823 95.8582ZM307.419 64.004C303.773 64.004 301.605 66.4183 300.915 71.247H313.48V70.2862C313.529 68.2906 313.024 66.7509 311.964 65.6669C310.905 64.5583 309.39 64.004 307.419 64.004Z" fill="#FEC901"/>
<path d="M350.064 95.8582C343.93 95.8582 338.965 94.0352 335.171 90.389C331.378 86.7183 329.481 81.9513 329.481 76.0879V75.0532C329.481 70.9636 330.232 67.3545 331.735 64.2257C333.262 61.097 335.479 58.6826 338.386 56.9828C341.293 55.2583 344.742 54.396 348.734 54.396C354.35 54.396 358.785 56.1451 362.037 59.6434C365.289 63.1171 366.915 67.9704 366.915 74.2033V79.0442H342.156C342.599 81.2861 343.572 83.0475 345.075 84.3286C346.578 85.6097 348.524 86.2502 350.914 86.2502C354.856 86.2502 357.935 84.8706 360.152 82.1114L365.843 88.837C364.291 90.9803 362.086 92.6925 359.228 93.9736C356.395 95.23 353.34 95.8582 350.064 95.8582ZM348.66 64.004C345.013 64.004 342.846 66.4183 342.156 71.247H354.72V70.2862C354.769 68.2906 354.264 66.7509 353.205 65.6669C352.146 64.5583 350.63 64.004 348.66 64.004Z" fill="#FEC901"/>
<path d="M240.245 103.471C247.34 105.836 255.815 113.917 259.165 117.661C261.53 106.427 253.253 106.427 249.705 100.515C244.975 91.0544 252.858 89.0836 257.391 89.2806C255.224 86.7185 249.35 82.3038 243.201 85.1418C231.967 90.4632 235.515 101.106 240.245 103.471Z" fill="white"/>
<path d="M266.284 0.706929C223.918 -6.11716 209.061 38.1446 206.928 61.1285C209.061 39.4478 238.916 7.10451 257.754 14.5684C277.302 24.4823 233.585 50.1105 234.651 51.5322C269.483 60.4177 268.416 92.4056 268.416 96.3153C294.007 73.9237 266.284 52.9539 246.025 49.7551C258.109 49.7551 295.073 9.23704 266.284 0.706929Z" fill="#FEC901"/>
<path fill-rule="evenodd" clip-rule="evenodd" d="M185.625 28.0839C179.124 19.555 161.237 4.68822 139.73 11.2338C141.338 12.5198 145.218 12.5821 149.85 12.6564C153.737 12.7187 158.152 12.7896 162.198 13.5988C170.185 15.1962 179.773 22.3461 182.817 28.8074C182.359 28.9782 181.927 29.1672 181.524 29.3673C173.424 21.7458 154.378 10.5102 134.623 19.5204C136.459 20.6269 139.56 20.2803 144.112 19.7716C147.598 19.382 151.935 18.8973 157.206 18.8973C165.133 18.8973 175.225 24.9021 179.327 30.7648C174.6 35.906 168.839 50.278 183.484 66.8124C183.276 66.5734 183.661 66.4241 184.335 66.1624C185.932 65.5424 189.156 64.2909 189.988 59.7173C190.082 60.2853 190.207 60.823 190.329 61.345C190.965 64.0828 191.501 66.3871 187.031 70.3599C187.229 70.7541 187.859 71.6607 188.805 72.1337C188.805 72.7249 189.988 74.4987 191.17 71.5424C191.327 71.1496 191.735 70.3602 192.302 69.2628C196 62.1013 206.469 41.8263 198.265 33.1104C193.899 28.4707 189.322 27.5448 185.625 28.0839ZM256.8 120.617C259.165 121.09 259.757 120.814 259.757 120.617C255.529 112.725 248.748 110.879 242.297 109.123C235.215 107.196 228.53 105.376 226.055 95.7841C222.271 81.1208 239.457 76.6667 248.523 76.2725C233.386 64.4472 219.354 78.0463 214.229 86.3239C205.36 63.856 225.463 63.2647 230.785 63.2647C225.463 59.7171 211.864 57.3521 201.813 66.8123C191.761 76.2724 198.857 103.47 218.368 108.792C254.026 117.237 255.431 119.353 255.969 120.162C256.109 120.373 256.19 120.495 256.8 120.617ZM186.401 44.0335C185.548 48.276 182.564 51.2543 179.736 50.6857C176.908 50.1171 175.306 46.2171 176.159 41.9746C177.012 37.7321 179.996 34.7539 182.824 35.3224C185.653 35.891 187.254 39.7911 186.401 44.0335Z" fill="white"/>
</svg>
