<svg width="116" height="105" viewBox="0 0 116 105" fill="none" xmlns="http://www.w3.org/2000/svg">
<g filter="url(#filter0_d)">
<path d="M69.3289 13.9999H28.5235L10 47.4301L28.5235 82.9999H72.0134L90 47.4301L69.3289 13.9999Z" fill="#FEC901"/>
</g>
<g clip-path="url(#clip0)">
<path d="M49.9996 37.9997C52.761 37.9997 54.9995 35.7612 54.9995 32.9998C54.9995 30.2384 52.761 27.9999 49.9996 27.9999C47.2382 27.9999 44.9997 30.2384 44.9997 32.9998C44.9997 35.7612 47.2382 37.9997 49.9996 37.9997Z" fill="black"/>
<path d="M59.7175 64.3827L53.5601 66.6919L56.6221 67.8402C57.94 68.3295 59.3618 67.6515 59.841 66.3767C60.0961 65.6964 60.0207 64.984 59.7175 64.3827Z" fill="black"/>
<path d="M38.378 55.658C37.0877 55.1794 35.6449 55.8289 35.1591 57.1215C34.6745 58.4142 35.33 59.8546 36.6226 60.3404L39.3197 61.3517L46.4402 58.6811L38.378 55.658Z" fill="black"/>
<path d="M64.8409 57.1215C64.355 55.8288 62.9122 55.1794 61.622 55.658L41.6224 63.1578C40.3297 63.6437 39.6742 65.084 40.1588 66.3767C40.638 67.6512 42.0595 68.3297 43.3777 67.8403L63.3773 60.3404C64.6701 59.8546 65.3256 58.4143 64.8409 57.1215Z" fill="black"/>
<path d="M67.4996 47.9995H61.5452L57.2362 39.3815C56.7884 38.4868 55.8775 37.977 54.9386 37.9998H50H45.0611C44.1224 37.977 43.2127 38.4869 42.7638 39.3815L38.4548 47.9995H32.5004C31.1199 47.9995 30.0005 49.1189 30.0005 50.4994C30.0005 51.88 31.1199 52.9993 32.5004 52.9993H40.0002C40.9475 52.9993 41.813 52.4647 42.2365 51.6175L45.0001 46.0904V55.4716L49.9998 57.3464L54.9999 55.4711V46.0904L57.7635 51.6175C58.1871 52.4647 59.0525 52.9993 59.9997 52.9993H67.4996C68.8801 52.9993 69.9995 51.88 69.9995 50.4994C69.9995 49.1189 68.8802 47.9995 67.4996 47.9995Z" fill="black"/>
</g>
<defs>
<filter id="filter0_d" x="0" y="-0.00012207" width="116" height="105" filterUnits="userSpaceOnUse" color-interpolation-filters="sRGB">
<feFlood flood-opacity="0" result="BackgroundImageFix"/>
<feColorMatrix in="SourceAlpha" type="matrix" values="0 0 0 0 0 0 0 0 0 0 0 0 0 0 0 0 0 0 127 0"/>
<feOffset dx="8" dy="4"/>
<feGaussianBlur stdDeviation="9"/>
<feColorMatrix type="matrix" values="0 0 0 0 0.171129 0 0 0 0 0.171129 0 0 0 0 0.171129 0 0 0 0.15 0"/>
<feBlend mode="normal" in2="BackgroundImageFix" result="effect1_dropShadow"/>
<feBlend mode="normal" in="SourceGraphic" in2="effect1_dropShadow" result="shape"/>
</filter>
<clipPath id="clip0">
<rect width="40" height="40" fill="white" transform="translate(30 27.9999)"/>
</clipPath>
</defs>
</svg>
