<svg width="116" height="105" viewBox="0 0 116 105" fill="none" xmlns="http://www.w3.org/2000/svg">
<g filter="url(#filter0_d)">
<path d="M69.3289 13.9999H28.5235L10 47.4301L28.5235 82.9999H72.0134L90 47.4301L69.3289 13.9999Z" fill="#FEC901"/>
</g>
<g clip-path="url(#clip0)">
<path d="M62.3887 43.7422V44.42C62.7738 44.3898 63.7295 44.409 64.7422 44.6961V43.7422C64.7423 35.6132 58.129 28.9999 50 28.9999C41.8709 28.9999 35.2577 35.6132 35.2577 43.7422V44.6961C36.1044 44.456 37.056 44.3765 37.6112 44.42V43.7422C37.6112 36.9116 43.1686 31.3534 50 31.3534C56.8313 31.3534 62.3887 36.9116 62.3887 43.7422Z" fill="black"/>
<path d="M62.3888 59.5992C62.3888 62.8764 59.8319 65.1033 57.008 65.1033H54.2656C53.8268 64.1906 52.8936 63.5605 51.8131 63.5605H48.1869C46.6848 63.5605 45.4672 64.7782 45.4672 66.2802C45.4672 67.7822 46.6848 68.9999 48.1869 68.9999H51.8131C52.8937 68.9999 53.827 68.3697 54.2658 67.4568H57.008C60.9645 67.4568 64.7423 64.432 64.7423 59.3192C63.8102 59.5867 62.8708 59.6391 62.3888 59.5992Z" fill="black"/>
<path d="M37.3375 46.764C34.3204 46.764 31.9374 49.2884 32.0993 52.3018C32.2452 55.0263 34.4999 57.2025 37.2315 57.2559C38.0298 57.2759 38.5118 56.694 38.5118 56.076V47.9447C38.5119 47.316 38.0183 46.764 37.3375 46.764Z" fill="black"/>
<path d="M62.643 46.764C61.9971 46.7698 61.4883 47.3015 61.4883 47.9447V56.076C61.4883 56.6887 61.9651 57.2765 62.7678 57.256C65.4796 57.2041 67.7544 55.0444 67.9008 52.3018C68.0604 49.3336 65.7349 46.764 62.643 46.764Z" fill="black"/>
<path d="M55.5081 52.2509C56.7568 51.0022 56.7568 48.9776 55.5081 47.7289C54.2594 46.4802 52.2348 46.4802 50.9861 47.7289L50 48.7149L49.014 47.7289C47.7653 46.4802 45.7407 46.4802 44.492 47.7289C43.2432 48.9776 43.2432 51.0022 44.492 52.2509L49.4453 57.2043C49.7516 57.5106 50.2483 57.5106 50.5547 57.2043L55.5081 52.2509Z" fill="black"/>
</g>
<defs>
<filter id="filter0_d" x="0" y="-0.00012207" width="116" height="105" filterUnits="userSpaceOnUse" color-interpolation-filters="sRGB">
<feFlood flood-opacity="0" result="BackgroundImageFix"/>
<feColorMatrix in="SourceAlpha" type="matrix" values="0 0 0 0 0 0 0 0 0 0 0 0 0 0 0 0 0 0 127 0"/>
<feOffset dx="8" dy="4"/>
<feGaussianBlur stdDeviation="9"/>
<feColorMatrix type="matrix" values="0 0 0 0 0.171129 0 0 0 0 0.171129 0 0 0 0 0.171129 0 0 0 0.15 0"/>
<feBlend mode="normal" in2="BackgroundImageFix" result="effect1_dropShadow"/>
<feBlend mode="normal" in="SourceGraphic" in2="effect1_dropShadow" result="shape"/>
</filter>
<clipPath id="clip0">
<rect width="40" height="40" fill="white" transform="translate(30 28.9999)"/>
</clipPath>
</defs>
</svg>
