<svg width="116" height="105" viewBox="0 0 116 105" fill="none" xmlns="http://www.w3.org/2000/svg">
<g filter="url(#filter0_d)">
<path d="M69.3289 13.9999H28.5235L10 47.4301L28.5235 82.9999H72.0134L90 47.4301L69.3289 13.9999Z" fill="#FEC901"/>
</g>
<g clip-path="url(#clip0)">
<path d="M38.7522 30.2447C38.7522 29.5572 38.1949 28.9999 37.5074 28.9999C36.8199 28.9999 36.2626 29.5572 36.2626 30.2447V31.6555H38.7522V30.2447Z" fill="black"/>
<path d="M48.7169 30.2447C48.7169 29.5572 48.1596 28.9999 47.4721 28.9999C46.7846 28.9999 46.2273 29.5572 46.2273 30.2447V31.6555H48.7169V30.2447Z" fill="black"/>
<path d="M58.6671 30.2447C58.6671 29.5572 58.1098 28.9999 57.4223 28.9999C56.7348 28.9999 56.1775 29.5572 56.1775 30.2447V31.6555H58.6671V30.2447Z" fill="black"/>
<path d="M63.6524 32.9003C63.6524 32.2129 63.095 31.6555 62.4076 31.6555H58.6672V34.3061C58.6672 34.9935 58.1098 35.5509 57.4223 35.5509C56.7349 35.5509 56.1775 34.9935 56.1775 34.3061V31.6555H48.7169V34.3061C48.7169 34.9935 48.1596 35.5509 47.4721 35.5509C46.7847 35.5509 46.2273 34.9935 46.2273 34.3061V31.6555H38.7523V34.3061C38.7523 34.9935 38.1949 35.5509 37.5075 35.5509C36.82 35.5509 36.2627 34.9935 36.2627 34.3061V31.6555H32.532C31.8446 31.6555 31.2872 32.2129 31.2872 32.9003V39.8713H63.6524V32.9003Z" fill="black"/>
<path d="M49.4076 63.9384L46.2184 63.9368C45.5304 63.9359 44.9735 63.3783 44.9744 62.6911C44.9744 62.0064 45.5294 61.4471 46.22 61.4471L48.8557 61.448C48.7727 60.6527 48.7738 59.8068 48.874 58.9584H46.2192C45.5312 58.9584 44.9744 58.4007 44.9744 57.7135C44.9744 57.0264 45.5312 56.4687 46.2192 56.4687H49.4665C51.5462 50.7441 57.8603 47.6882 63.6524 49.6944V42.3608H31.2872V67.672C31.2872 68.3592 31.8449 68.9169 32.532 68.9169H52.8632C51.2948 67.6173 50.0856 65.9011 49.4076 63.9384ZM53.6881 46.5102H56.186C56.8731 46.5102 57.4308 47.0679 57.4308 47.755C57.4308 48.4422 56.8731 48.9998 56.186 48.9998H53.6881C53.0001 48.9998 52.4432 48.4422 52.4432 47.755C52.4432 47.0679 53.0001 46.5102 53.6881 46.5102ZM46.2192 46.5102H48.7171C49.4042 46.5102 49.9619 47.0679 49.9619 47.755C49.9619 48.4422 49.4042 48.9998 48.7171 48.9998H46.2192C45.5312 48.9998 44.9744 48.4422 44.9744 47.755C44.9744 47.0679 45.5312 46.5102 46.2192 46.5102ZM46.2192 51.4895H48.7171C49.4042 51.4895 49.9619 52.0471 49.9619 52.7343C49.9619 53.4214 49.4042 53.9791 48.7171 53.9791H46.2192C45.5312 53.9791 44.9744 53.4214 44.9744 52.7343C44.9744 52.0471 45.5312 51.4895 46.2192 51.4895ZM41.2483 63.9326C41.2475 63.9326 41.2475 63.9326 41.2475 63.9326L38.7496 63.9301C38.0616 63.9301 37.5047 63.3725 37.5056 62.6845C37.5056 61.9974 38.0632 61.4405 38.7504 61.4405H38.7512L41.2491 61.443C41.9363 61.4438 42.4931 62.0015 42.4931 62.6886C42.4922 63.3758 41.9354 63.9326 41.2483 63.9326ZM41.2483 58.9584H38.7504C38.0624 58.9584 37.5056 58.4007 37.5056 57.7135C37.5056 57.0264 38.0624 56.4687 38.7504 56.4687H41.2483C41.9354 56.4687 42.4931 57.0264 42.4931 57.7135C42.4931 58.4007 41.9354 58.9584 41.2483 58.9584ZM41.2483 53.9791H38.7504C38.0624 53.9791 37.5056 53.4214 37.5056 52.7343C37.5056 52.0471 38.0624 51.4895 38.7504 51.4895H41.2483C41.9354 51.4895 42.4931 52.0471 42.4931 52.7343C42.4931 53.4214 41.9354 53.9791 41.2483 53.9791Z" fill="black"/>
<path d="M59.9991 51.5725C55.1944 51.5725 51.2854 55.4815 51.2854 60.2862C51.2854 65.0909 55.1944 68.9999 59.9991 68.9999C64.8038 68.9999 68.7128 65.0909 68.7128 60.2862C68.7128 55.4815 64.8038 51.5725 59.9991 51.5725ZM62.0738 61.0331C62.0738 61.7206 61.5164 62.2779 60.829 62.2779H57.0157C56.3282 62.2779 55.7709 61.7206 55.7709 61.0331C55.7709 60.3456 56.3282 59.7883 57.0157 59.7883H59.5842V56.0538C59.5842 55.3664 60.1415 54.809 60.829 54.809C61.5164 54.809 62.0738 55.3664 62.0738 56.0538V61.0331Z" fill="black"/>
</g>
<defs>
<filter id="filter0_d" x="0" y="-0.00012207" width="116" height="105" filterUnits="userSpaceOnUse" color-interpolation-filters="sRGB">
<feFlood flood-opacity="0" result="BackgroundImageFix"/>
<feColorMatrix in="SourceAlpha" type="matrix" values="0 0 0 0 0 0 0 0 0 0 0 0 0 0 0 0 0 0 127 0"/>
<feOffset dx="8" dy="4"/>
<feGaussianBlur stdDeviation="9"/>
<feColorMatrix type="matrix" values="0 0 0 0 0.171129 0 0 0 0 0.171129 0 0 0 0 0.171129 0 0 0 0.15 0"/>
<feBlend mode="normal" in2="BackgroundImageFix" result="effect1_dropShadow"/>
<feBlend mode="normal" in="SourceGraphic" in2="effect1_dropShadow" result="shape"/>
</filter>
<clipPath id="clip0">
<rect width="40" height="40" fill="white" transform="translate(30 28.9999)"/>
</clipPath>
</defs>
</svg>
