<svg width="116" height="105" viewBox="0 0 116 105" fill="none" xmlns="http://www.w3.org/2000/svg">
<g filter="url(#filter0_d)">
<path d="M69.3289 13.9999H28.5235L10 47.4301L28.5235 82.9999H72.0134L90 47.4301L69.3289 13.9999Z" fill="#FEC901"/>
</g>
<g clip-path="url(#clip0)">
<path d="M67.1594 47.3787H63.1736H62.6405C61.4622 47.3787 60.5066 48.3343 60.5066 49.5165V49.7483C60.5066 50.9317 61.4622 51.8879 62.6422 51.8879H66.6319H67.1594C68.3399 51.8879 69.2984 50.9277 69.2984 49.7483L69.2961 49.5137C69.2984 48.3343 68.3399 47.3787 67.1594 47.3787Z" fill="black"/>
<path d="M67.1617 42.0451H66.2203V31.7023C66.2203 30.2158 65.0044 28.9999 63.5173 28.9999H45.6843C44.1978 28.9999 42.9819 30.2164 42.9819 31.7023V39.1229C39.3849 41.1563 35.6749 43.2805 35.6669 43.2856C33.6529 44.1145 30.7021 46.7889 30.7021 53.1043C30.7021 53.6684 30.7393 54.189 30.7912 54.6919C30.8078 54.8392 30.826 54.9808 30.846 55.1229C30.898 55.4922 30.963 55.8456 31.0407 56.1813C31.0686 56.3012 31.0903 56.4262 31.1206 56.5409C31.2251 56.9291 31.3461 57.2933 31.4819 57.6398C31.5504 57.8116 31.6247 57.9681 31.6994 58.129C31.7794 58.2986 31.8598 58.4653 31.946 58.6211C32.0459 58.8089 32.1458 58.9899 32.2555 59.1617C32.2817 59.2017 32.3103 59.2382 32.3371 59.2787C34.9379 63.2102 39.736 63.2279 39.736 63.2279H42.9819V66.2986C42.9819 67.7834 44.1978 68.9993 45.6843 68.9993H63.5168C65.0038 68.9993 66.2198 67.7828 66.2198 66.2986V62.5532H66.6319V62.5509H67.1577C68.3399 62.5509 69.2984 61.5947 69.2961 60.4125L69.2984 60.1796C69.2961 58.999 68.3399 58.0457 67.1594 58.0457H66.6319H63.1731H62.6399C61.4594 58.0457 60.5061 59.0013 60.5061 60.1813V60.4182C60.5061 61.5953 61.4617 62.5549 62.6416 62.5549H64.3394V64.0014H44.8617V44.5974C45.8402 43.9769 46.7461 43.3798 47.2627 42.9796C49.8801 40.9554 52.3645 39.3432 52.7007 37.8813C53.1386 35.9843 51.6823 34.3859 49.1563 35.6983C48.3605 36.1116 46.7273 37.0176 44.8617 38.0651V33.2825L64.3394 33.2853V42.044H63.1731V42.0463H62.6428C61.4617 42.0463 60.5032 43.0019 60.5032 44.1853V44.417C60.5032 45.5999 61.4617 46.5532 62.6399 46.5532H63.1703H66.6291H67.1605C68.3399 46.5532 69.2961 45.5976 69.2961 44.417V44.179C69.2984 43.0036 68.3428 42.0451 67.1617 42.0451ZM54.5983 64.9502C55.3472 64.9502 55.9512 65.5548 55.9512 66.302C55.9512 67.051 55.3466 67.6532 54.5983 67.6532C53.8521 67.6532 53.2493 67.0493 53.2493 66.302C53.2505 65.557 53.855 64.9502 54.5983 64.9502ZM57.4543 31.6018H51.748C51.5687 31.6018 51.4203 31.4563 51.4203 31.2765C51.4203 31.0938 51.5687 30.9482 51.748 30.9482H57.4543C57.6335 30.9482 57.7796 31.0932 57.7796 31.2765C57.7796 31.4557 57.6335 31.6018 57.4543 31.6018Z" fill="black"/>
<path d="M67.1594 52.7122H66.6319H62.6405C61.4623 52.7122 60.5038 53.6706 60.5038 54.8506V55.0846C60.5038 56.2657 61.46 57.2214 62.6405 57.2214H63.1708H66.6297H67.1583C68.3405 57.2214 69.2938 56.2657 69.2967 55.0846V54.8506C69.2961 53.6706 68.3428 52.7122 67.1594 52.7122Z" fill="black"/>
</g>
<defs>
<filter id="filter0_d" x="0" y="-0.00012207" width="116" height="105" filterUnits="userSpaceOnUse" color-interpolation-filters="sRGB">
<feFlood flood-opacity="0" result="BackgroundImageFix"/>
<feColorMatrix in="SourceAlpha" type="matrix" values="0 0 0 0 0 0 0 0 0 0 0 0 0 0 0 0 0 0 127 0"/>
<feOffset dx="8" dy="4"/>
<feGaussianBlur stdDeviation="9"/>
<feColorMatrix type="matrix" values="0 0 0 0 0.171129 0 0 0 0 0.171129 0 0 0 0 0.171129 0 0 0 0.15 0"/>
<feBlend mode="normal" in2="BackgroundImageFix" result="effect1_dropShadow"/>
<feBlend mode="normal" in="SourceGraphic" in2="effect1_dropShadow" result="shape"/>
</filter>
<clipPath id="clip0">
<rect width="40" height="40" fill="white" transform="translate(30 28.9999)"/>
</clipPath>
</defs>
</svg>
