<svg width="81" height="68" viewBox="0 0 81 68" fill="none" xmlns="http://www.w3.org/2000/svg">
<path d="M58.7884 57.591C62.7375 58.9074 67.4545 63.405 69.3194 65.4892C70.6357 59.2365 66.0284 59.2365 64.0539 55.9456C61.4211 50.6801 65.809 49.5831 68.3321 49.6928C67.1254 48.2667 63.8564 45.8095 60.4339 47.3892C54.1811 50.351 56.1557 56.2746 58.7884 57.591Z" fill="#161616"/>
<path d="M73.2814 0.393471C49.7007 -3.40477 41.4316 21.231 40.2447 34.0237C41.4316 21.9564 58.0489 3.95432 68.5336 8.10864C79.414 13.6267 55.0816 27.8911 55.675 28.6824C75.0619 33.628 74.4684 51.4323 74.4684 53.6083C88.7118 41.1454 73.2814 29.4737 62.0054 27.6933C68.7315 27.6933 89.3052 5.14127 73.2814 0.393471Z" fill="white"/>
<path fill-rule="evenodd" clip-rule="evenodd" d="M28.3877 15.6312C24.7691 10.8841 14.8135 2.60933 2.84285 6.25256C3.7376 6.96835 5.89733 7.003 8.47545 7.04436C10.6386 7.07906 13.0962 7.11849 15.3483 7.56892C19.7937 8.458 25.1305 12.4376 26.8242 16.0339C26.5698 16.129 26.3293 16.2341 26.1046 16.3455C21.5967 12.1035 10.9957 5.84983 0 10.8648C1.02213 11.4807 2.74818 11.2878 5.28174 11.0046C7.22199 10.7878 9.63583 10.518 12.5698 10.518C16.9816 10.518 22.5988 13.8602 24.882 17.1234C22.2511 19.9849 19.0445 27.9842 27.1956 37.1872C27.0802 37.0541 27.2942 36.9711 27.6694 36.8254C28.5584 36.4803 30.3528 35.7837 30.8156 33.2381C30.8683 33.5542 30.9379 33.8535 31.0054 34.144L31.0054 34.1441C31.3597 35.6679 31.6578 36.9505 29.1702 39.1617C29.2799 39.3811 29.6309 39.8857 30.1575 40.149C30.1575 40.4781 30.8157 41.4653 31.4738 39.8199C31.5613 39.6012 31.7882 39.1618 32.1036 38.5511C34.1618 34.565 39.9888 23.2801 35.4229 18.4289C32.9924 15.8465 30.445 15.3311 28.3877 15.6312ZM68.0029 67.1345C69.3193 67.3977 69.6484 67.2442 69.6484 67.1345C67.2952 62.7419 63.5212 61.7146 59.9305 60.7371C55.9888 59.6642 52.2679 58.6513 50.8902 53.3126C48.784 45.1512 58.3496 42.672 63.3957 42.4526C54.9709 35.8708 47.1605 43.4399 44.3084 48.0472C39.372 35.5417 50.5611 35.2126 53.5229 35.2126C50.5611 33.238 42.992 31.9217 37.3974 37.1871C31.8029 42.4526 35.752 57.5908 46.612 60.5526C66.459 65.2532 67.2411 66.431 67.5403 66.8814C67.6181 66.9986 67.6632 67.0665 68.0029 67.1345ZM28.8194 24.5087C28.3447 26.87 26.6838 28.5277 25.1096 28.2112C23.5354 27.8948 22.644 25.724 23.1187 23.3627C23.5934 21.0014 25.2544 19.3437 26.8286 19.6601C28.4028 19.9766 29.2941 22.1473 28.8194 24.5087Z" fill="#161616"/>
</svg>
