<svg width="301" height="130" viewBox="0 0 301 130" fill="none" xmlns="http://www.w3.org/2000/svg">
<path fill-rule="evenodd" clip-rule="evenodd" d="M209.677 11.533L143.482 71.0918L144.151 71.8351L210.199 12.4085L286.65 13.931L286.574 17.7256L293.282 21.5646L300.571 18.0044L300.744 9.3081L293.6 5.5678L286.737 9.56615L286.67 12.9312L210.022 11.4048L209.824 11.4009L209.677 11.533Z" fill="#FEC901"/>
<g filter="url(#filter0_d)">
<path d="M12.8162 60.4646H130.223L144.816 81.3746L130.223 101.465H12.8162V60.4646Z" fill="#161616"/>
</g>
<path d="M23.8363 66.6646H25.2363L22.3383 71.3266L25.4463 76.4646H24.0463L21.7363 72.3626L19.3563 76.4646H17.9563L21.1483 71.3266L18.3063 66.6646H19.7063L21.7503 70.2906L23.8363 66.6646ZM27.7169 70.0246V74.1966L31.9869 69.5346V76.4646H30.8669V72.2926L26.5969 76.9546V70.0246H27.7169ZM33.0708 76.4646L34.7508 69.5346L37.2288 74.6446L39.7488 69.5346L41.4288 76.4646H40.1688L39.3988 72.7126L37.2288 76.8986L35.1008 72.7266L34.3308 76.4646H33.0708ZM43.2197 70.0246V71.8726C43.2197 72.4326 43.3177 72.8386 43.5137 73.0906C43.7191 73.3333 44.0877 73.4546 44.6197 73.4546H46.0197V70.0246H47.1397V76.4646H46.0197V74.5046H44.6197C43.9757 74.5046 43.4671 74.4159 43.0937 74.2386C42.7297 74.0613 42.4731 73.7813 42.3237 73.3986C42.1744 73.0066 42.0997 72.4979 42.0997 71.8726V70.0246H43.2197ZM50.3296 70.0246V74.1966L54.5996 69.5346V76.4646H53.4796V72.2926L49.2096 76.9546V70.0246H50.3296ZM57.1675 73.2446C57.1675 73.6926 57.2609 74.0893 57.4475 74.4346C57.6435 74.7799 57.9049 75.0553 58.2315 75.2606C58.5675 75.4566 58.9455 75.5546 59.3655 75.5546C59.8882 75.5546 60.3549 75.4379 60.7655 75.2046C61.1762 74.9713 61.4562 74.6959 61.6055 74.3786V75.7786C61.3815 76.0399 61.0595 76.2453 60.6395 76.3946C60.2289 76.5346 59.8042 76.6046 59.3655 76.6046C58.7402 76.6046 58.1755 76.4599 57.6715 76.1706C57.1675 75.8813 56.7662 75.4846 56.4675 74.9806C56.1782 74.4673 56.0335 73.8886 56.0335 73.2446C56.0335 72.5913 56.1782 72.0126 56.4675 71.5086C56.7662 71.0046 57.1675 70.6079 57.6715 70.3186C58.1755 70.0293 58.7402 69.8846 59.3655 69.8846C59.8042 69.8846 60.2289 69.9593 60.6395 70.1086C61.0595 70.2486 61.3815 70.4493 61.6055 70.7106V72.1106C61.4562 71.7933 61.1762 71.5179 60.7655 71.2846C60.3549 71.0513 59.8882 70.9346 59.3655 70.9346C58.9455 70.9346 58.5675 71.0326 58.2315 71.2286C57.9049 71.4246 57.6435 71.6999 57.4475 72.0546C57.2609 72.3999 57.1675 72.7966 57.1675 73.2446ZM62.2641 70.0246H66.0441V71.0746H64.7141V76.4646H63.5941V71.0746H62.2641V70.0246ZM66.9929 70.0246H68.1129V72.2786L70.4929 70.0246H71.8929L69.0929 72.6846L72.1729 76.4646H70.7729L68.1129 73.2026V76.4646H66.9929V70.0246ZM73.6279 71.5366L73.0819 70.6826C73.3246 70.5053 73.6513 70.3279 74.0619 70.1506C74.4726 69.9733 74.9673 69.8846 75.5459 69.8846C76.2833 69.8846 76.8806 70.0573 77.3379 70.4026C77.7953 70.7386 78.0239 71.2193 78.0239 71.8446V76.4646H76.9039V75.5406C76.7079 75.8859 76.4139 76.1519 76.0219 76.3386C75.6299 76.5159 75.1913 76.6046 74.7059 76.6046C74.3046 76.6046 73.9359 76.5299 73.5999 76.3806C73.2639 76.2313 72.9933 76.0119 72.7879 75.7226C72.5919 75.4239 72.4939 75.0553 72.4939 74.6166C72.4939 73.9353 72.7366 73.4079 73.2219 73.0346C73.7166 72.6519 74.3886 72.4606 75.2379 72.4606C75.6113 72.4606 75.9379 72.5073 76.2179 72.6006C76.4979 72.6939 76.7266 72.8013 76.9039 72.9226V71.8446C76.9039 71.5179 76.7639 71.2753 76.4839 71.1166C76.2133 70.9486 75.9006 70.8646 75.5459 70.8646C75.0886 70.8646 74.6919 70.9486 74.3559 71.1166C74.0293 71.2846 73.7866 71.4246 73.6279 71.5366ZM73.6279 74.5746C73.6279 74.9199 73.7586 75.1813 74.0199 75.3586C74.2906 75.5266 74.6126 75.6106 74.9859 75.6106C75.5459 75.6106 76.0033 75.4846 76.3579 75.2326C76.7219 74.9713 76.9039 74.5419 76.9039 73.9446V73.6926C76.4279 73.4406 75.8913 73.3146 75.2939 73.3146C74.7246 73.3146 74.3046 73.4266 74.0339 73.6506C73.7633 73.8746 73.6279 74.1826 73.6279 74.5746ZM88.8761 75.4146H91.6061V70.0246H92.7261V76.4646H83.9061V70.0246H85.0261V75.4146H87.7561V70.0246H88.8761V75.4146ZM93.745 70.0246H97.525V71.0746H96.195V76.4646H95.075V71.0746H93.745V70.0246ZM97.7787 73.2446C97.7787 72.5913 97.9234 72.0126 98.2127 71.5086C98.5114 71.0046 98.9127 70.6079 99.4167 70.3186C99.9207 70.0293 100.485 69.8846 101.111 69.8846C101.745 69.8846 102.31 70.0293 102.805 70.3186C103.309 70.6079 103.705 71.0046 103.995 71.5086C104.293 72.0126 104.443 72.5913 104.443 73.2446C104.443 73.8886 104.293 74.4673 103.995 74.9806C103.705 75.4846 103.309 75.8813 102.805 76.1706C102.31 76.4599 101.745 76.6046 101.111 76.6046C100.485 76.6046 99.9207 76.4599 99.4167 76.1706C98.9127 75.8813 98.5114 75.4846 98.2127 74.9806C97.9234 74.4673 97.7787 73.8886 97.7787 73.2446ZM98.9127 73.2446C98.9127 73.6926 99.006 74.0893 99.1927 74.4346C99.3887 74.7799 99.65 75.0553 99.9767 75.2606C100.313 75.4566 100.691 75.5546 101.111 75.5546C101.531 75.5546 101.904 75.4566 102.231 75.2606C102.567 75.0553 102.828 74.7799 103.015 74.4346C103.211 74.0893 103.309 73.6926 103.309 73.2446C103.309 72.7966 103.211 72.3999 103.015 72.0546C102.828 71.6999 102.567 71.4246 102.231 71.2286C101.904 71.0326 101.531 70.9346 101.111 70.9346C100.691 70.9346 100.313 71.0326 99.9767 71.2286C99.65 71.4246 99.3887 71.6999 99.1927 72.0546C99.006 72.3999 98.9127 72.7966 98.9127 73.2446ZM106.926 79.5446H105.806V70.0246H106.926V71.1306C107.16 70.7293 107.463 70.4213 107.836 70.2066C108.219 69.9919 108.648 69.8846 109.124 69.8846C109.712 69.8846 110.244 70.0199 110.72 70.2906C111.206 70.5613 111.593 70.9486 111.882 71.4526C112.172 71.9473 112.316 72.5446 112.316 73.2446C112.316 73.9353 112.172 74.5326 111.882 75.0366C111.593 75.5406 111.206 75.9279 110.72 76.1986C110.244 76.4693 109.712 76.6046 109.124 76.6046C108.648 76.6046 108.219 76.4973 107.836 76.2826C107.463 76.0679 107.16 75.7599 106.926 75.3586V79.5446ZM111.182 73.2446C111.182 72.7499 111.08 72.3299 110.874 71.9846C110.678 71.6393 110.412 71.3779 110.076 71.2006C109.75 71.0233 109.386 70.9346 108.984 70.9346C108.658 70.9346 108.336 71.0233 108.018 71.2006C107.701 71.3779 107.44 71.6393 107.234 71.9846C107.029 72.3299 106.926 72.7499 106.926 73.2446C106.926 73.7393 107.029 74.1593 107.234 74.5046C107.44 74.8499 107.701 75.1113 108.018 75.2886C108.336 75.4659 108.658 75.5546 108.984 75.5546C109.386 75.5546 109.75 75.4659 110.076 75.2886C110.412 75.1113 110.678 74.8499 110.874 74.5046C111.08 74.1593 111.182 73.7393 111.182 73.2446ZM119.038 70.0246V74.1966L123.308 69.5346V76.4646H122.188V72.2926L117.918 76.9546V70.0246H119.038ZM19.6363 88.0246V89.8726C19.6363 90.4326 19.7343 90.8386 19.9303 91.0906C20.1356 91.3333 20.5043 91.4546 21.0363 91.4546H22.4363V88.0246H23.5563V94.4646H22.4363V92.5046H21.0363C20.3923 92.5046 19.8836 92.4159 19.5103 92.2386C19.1463 92.0613 18.8896 91.7813 18.7403 91.3986C18.591 91.0066 18.5163 90.4979 18.5163 89.8726V88.0246H19.6363ZM26.7462 88.0246V92.1966L31.0162 87.5346V94.4646H29.8962V90.2926L25.6262 94.9546V88.0246H26.7462ZM33.5841 91.2446C33.5841 91.6926 33.6774 92.0893 33.8641 92.4346C34.0601 92.7799 34.3214 93.0553 34.6481 93.2606C34.9841 93.4566 35.3621 93.5546 35.7821 93.5546C36.3048 93.5546 36.7714 93.4379 37.1821 93.2046C37.5928 92.9713 37.8728 92.6959 38.0221 92.3786V93.7786C37.7981 94.0399 37.4761 94.2453 37.0561 94.3946C36.6454 94.5346 36.2208 94.6046 35.7821 94.6046C35.1568 94.6046 34.5921 94.4599 34.0881 94.1706C33.5841 93.8813 33.1828 93.4846 32.8841 92.9806C32.5948 92.4673 32.4501 91.8886 32.4501 91.2446C32.4501 90.5913 32.5948 90.0126 32.8841 89.5086C33.1828 89.0046 33.5841 88.6079 34.0881 88.3186C34.5921 88.0293 35.1568 87.8846 35.7821 87.8846C36.2208 87.8846 36.6454 87.9593 37.0561 88.1086C37.4761 88.2486 37.7981 88.4493 38.0221 88.7106V90.1106C37.8728 89.7933 37.5928 89.5179 37.1821 89.2846C36.7714 89.0513 36.3048 88.9346 35.7821 88.9346C35.3621 88.9346 34.9841 89.0326 34.6481 89.2286C34.3214 89.4246 34.0601 89.6999 33.8641 90.0546C33.6774 90.3999 33.5841 90.7966 33.5841 91.2446ZM38.6807 88.0246H42.4607V89.0746H41.1307V94.4646H40.0107V89.0746H38.6807V88.0246ZM43.4095 88.0246H44.5295V90.2786L46.9095 88.0246H48.3095L45.5095 90.6846L48.5895 94.4646H47.1895L44.5295 91.2026V94.4646H43.4095V88.0246ZM50.0445 89.5366L49.4985 88.6826C49.7412 88.5053 50.0678 88.3279 50.4785 88.1506C50.8892 87.9733 51.3838 87.8846 51.9625 87.8846C52.6998 87.8846 53.2972 88.0573 53.7545 88.4026C54.2118 88.7386 54.4405 89.2193 54.4405 89.8446V94.4646H53.3205V93.5406C53.1245 93.8859 52.8305 94.1519 52.4385 94.3386C52.0465 94.5159 51.6078 94.6046 51.1225 94.6046C50.7212 94.6046 50.3525 94.5299 50.0165 94.3806C49.6805 94.2313 49.4098 94.0119 49.2045 93.7226C49.0085 93.4239 48.9105 93.0553 48.9105 92.6166C48.9105 91.9353 49.1532 91.4079 49.6385 91.0346C50.1332 90.6519 50.8052 90.4606 51.6545 90.4606C52.0278 90.4606 52.3545 90.5073 52.6345 90.6006C52.9145 90.6939 53.1432 90.8013 53.3205 90.9226V89.8446C53.3205 89.5179 53.1805 89.2753 52.9005 89.1166C52.6298 88.9486 52.3172 88.8646 51.9625 88.8646C51.5052 88.8646 51.1085 88.9486 50.7725 89.1166C50.4458 89.2846 50.2032 89.4246 50.0445 89.5366ZM50.0445 92.5746C50.0445 92.9199 50.1752 93.1813 50.4365 93.3586C50.7072 93.5266 51.0292 93.6106 51.4025 93.6106C51.9625 93.6106 52.4198 93.4846 52.7745 93.2326C53.1385 92.9713 53.3205 92.5419 53.3205 91.9446V91.6926C52.8445 91.4406 52.3078 91.3146 51.7105 91.3146C51.1412 91.3146 50.7212 91.4266 50.4505 91.6506C50.1798 91.8746 50.0445 92.1826 50.0445 92.5746ZM60.9527 88.0246L63.4727 90.4186V88.0246H64.5227V90.4186L67.0427 88.0246H68.4427L65.5027 90.8246L68.7227 94.4646H67.3227L64.5227 91.0346V94.4646H63.4727V91.0346L60.6727 94.4646H59.2727L62.4927 90.8246L59.5527 88.0246H60.9527ZM70.169 89.5366L69.623 88.6826C69.8656 88.5053 70.1923 88.3279 70.603 88.1506C71.0136 87.9733 71.5083 87.8846 72.087 87.8846C72.8243 87.8846 73.4216 88.0573 73.879 88.4026C74.3363 88.7386 74.565 89.2193 74.565 89.8446V94.4646H73.445V93.5406C73.249 93.8859 72.955 94.1519 72.563 94.3386C72.171 94.5159 71.7323 94.6046 71.247 94.6046C70.8456 94.6046 70.477 94.5299 70.141 94.3806C69.805 94.2313 69.5343 94.0119 69.329 93.7226C69.133 93.4239 69.035 93.0553 69.035 92.6166C69.035 91.9353 69.2776 91.4079 69.763 91.0346C70.2576 90.6519 70.9296 90.4606 71.779 90.4606C72.1523 90.4606 72.479 90.5073 72.759 90.6006C73.039 90.6939 73.2676 90.8013 73.445 90.9226V89.8446C73.445 89.5179 73.305 89.2753 73.025 89.1166C72.7543 88.9486 72.4416 88.8646 72.087 88.8646C71.6296 88.8646 71.233 88.9486 70.897 89.1166C70.5703 89.2846 70.3276 89.4246 70.169 89.5366ZM70.169 92.5746C70.169 92.9199 70.2996 93.1813 70.561 93.3586C70.8316 93.5266 71.1536 93.6106 71.527 93.6106C72.087 93.6106 72.5443 93.4846 72.899 93.2326C73.263 92.9713 73.445 92.5419 73.445 91.9446V91.6926C72.969 91.4406 72.4323 91.3146 71.835 91.3146C71.2656 91.3146 70.8456 91.4266 70.575 91.6506C70.3043 91.8746 70.169 92.1826 70.169 92.5746ZM81.9969 88.0246V94.4646H80.8769V89.0746H77.5869V92.2246C77.5869 92.9899 77.4095 93.5546 77.0549 93.9186C76.7095 94.2826 76.1729 94.4646 75.4449 94.4646V93.4426C75.7249 93.4426 75.9629 93.3539 76.1589 93.1766C76.3642 92.9993 76.4669 92.6819 76.4669 92.2246V88.0246H81.9969ZM84.0565 88.0246H85.1765V90.5446H86.3665C86.4598 90.0219 86.6605 89.5599 86.9685 89.1586C87.2765 88.7573 87.6592 88.4446 88.1165 88.2206C88.5738 87.9966 89.0778 87.8846 89.6285 87.8846C90.2632 87.8846 90.8278 88.0293 91.3225 88.3186C91.8265 88.6079 92.2232 89.0046 92.5125 89.5086C92.8112 90.0126 92.9605 90.5913 92.9605 91.2446C92.9605 91.8886 92.8112 92.4673 92.5125 92.9806C92.2232 93.4846 91.8265 93.8813 91.3225 94.1706C90.8278 94.4599 90.2632 94.6046 89.6285 94.6046C89.0405 94.6046 88.5038 94.4786 88.0185 94.2266C87.5425 93.9653 87.1505 93.6106 86.8425 93.1626C86.5438 92.7053 86.3665 92.1826 86.3105 91.5946H85.1765V94.4646H84.0565V88.0246ZM87.4305 91.2446C87.4305 91.6926 87.5238 92.0893 87.7105 92.4346C87.9065 92.7799 88.1678 93.0553 88.4945 93.2606C88.8305 93.4566 89.2085 93.5546 89.6285 93.5546C90.0485 93.5546 90.4218 93.4566 90.7485 93.2606C91.0845 93.0553 91.3458 92.7799 91.5325 92.4346C91.7285 92.0893 91.8265 91.6926 91.8265 91.2446C91.8265 90.7966 91.7285 90.3999 91.5325 90.0546C91.3458 89.6999 91.0845 89.4246 90.7485 89.2286C90.4218 89.0326 90.0485 88.9346 89.6285 88.9346C89.2085 88.9346 88.8305 89.0326 88.4945 89.2286C88.1678 89.4246 87.9065 89.6999 87.7105 90.0546C87.5238 90.3999 87.4305 90.7966 87.4305 91.2446ZM96.7908 94.6046C96.0348 94.6046 95.4282 94.3993 94.9708 93.9886C94.5228 93.5779 94.2615 93.0599 94.1868 92.4346H95.3208C95.3862 92.7426 95.5262 93.0179 95.7408 93.2606C95.9555 93.5033 96.3055 93.6246 96.7908 93.6246C97.2295 93.6246 97.5748 93.5313 97.8268 93.3446C98.0788 93.1579 98.2048 92.9059 98.2048 92.5886C98.2048 92.2619 98.0742 92.0053 97.8128 91.8186C97.5515 91.6226 97.1735 91.5246 96.6788 91.5246V90.5446C97.1082 90.5446 97.4162 90.4653 97.6028 90.3066C97.7895 90.1386 97.8828 89.9379 97.8828 89.7046C97.8828 89.4526 97.7895 89.2566 97.6028 89.1166C97.4162 88.9673 97.1548 88.8926 96.8188 88.8926C96.3895 88.8926 96.0768 89.0093 95.8808 89.2426C95.6942 89.4666 95.6008 89.6859 95.6008 89.9006H94.4668C94.4668 89.5366 94.5695 89.2006 94.7748 88.8926C94.9802 88.5846 95.2602 88.3419 95.6148 88.1646C95.9695 87.9779 96.3708 87.8846 96.8188 87.8846C97.2388 87.8846 97.6168 87.9639 97.9528 88.1226C98.2888 88.2813 98.5502 88.4913 98.7368 88.7526C98.9328 89.0139 99.0308 89.3033 99.0308 89.6206C99.0308 90.2459 98.6948 90.7033 98.0228 90.9926C98.4242 91.1139 98.7368 91.3053 98.9608 91.5666C99.1942 91.8279 99.3108 92.1639 99.3108 92.5746C99.3108 92.9946 99.1942 93.3586 98.9608 93.6666C98.7368 93.9653 98.4335 94.1986 98.0508 94.3666C97.6682 94.5253 97.2482 94.6046 96.7908 94.6046ZM102.072 88.0246V92.1966L106.342 87.5346V94.4646H105.222V90.2926L100.952 94.9546V88.0246H102.072Z" fill="white"/>
<defs>
<filter id="filter0_d" x="0.816162" y="40.4646" width="180" height="89" filterUnits="userSpaceOnUse" color-interpolation-filters="sRGB">
<feFlood flood-opacity="0" result="BackgroundImageFix"/>
<feColorMatrix in="SourceAlpha" type="matrix" values="0 0 0 0 0 0 0 0 0 0 0 0 0 0 0 0 0 0 127 0"/>
<feOffset dx="12" dy="4"/>
<feGaussianBlur stdDeviation="12"/>
<feColorMatrix type="matrix" values="0 0 0 0 0 0 0 0 0 0 0 0 0 0 0 0 0 0 0.25 0"/>
<feBlend mode="normal" in2="BackgroundImageFix" result="effect1_dropShadow"/>
<feBlend mode="normal" in="SourceGraphic" in2="effect1_dropShadow" result="shape"/>
</filter>
</defs>
</svg>
