<svg width="358" height="140" viewBox="0 0 358 140" fill="none" xmlns="http://www.w3.org/2000/svg">
<path fill-rule="evenodd" clip-rule="evenodd" d="M91.1386 12.2144L157.334 71.7731L156.665 72.5165L90.6166 13.0899L14.1664 14.6124L14.242 18.407L7.53419 22.246L0.244806 18.6858L0.071623 9.9895L7.21562 6.2492L14.0795 10.2476L14.1465 13.6126L90.7942 12.0862L90.9917 12.0823L91.1386 12.2144Z" fill="#FEC901"/>
<g filter="url(#filter0_d)">
<path d="M146 49.6829H302.542L322 81.3029L302.542 111.683H146V49.6829Z" fill="#161616"/>
</g>
<path d="M158.91 56.8829L154.304 66.6829H152.974L154.234 63.7849L151 56.8829H152.47L154.976 62.6089L157.58 56.8829H158.91ZM159.301 62.6229C159.301 61.7455 159.385 60.9709 159.553 60.2989C159.721 59.6269 160.015 59.0575 160.435 58.5909C160.864 58.1242 161.452 57.7602 162.199 57.4989C162.834 57.2842 163.305 57.0275 163.613 56.7289C163.93 56.4209 164.122 56.0989 164.187 55.7629H165.293C165.228 56.3882 164.934 56.9249 164.411 57.3729C163.888 57.8209 163.244 58.1662 162.479 58.4089C161.938 58.5862 161.513 58.8429 161.205 59.1789C160.897 59.5149 160.673 59.8975 160.533 60.3269C160.393 60.7469 160.314 61.1762 160.295 61.6149C160.519 61.1295 160.832 60.7562 161.233 60.4949C161.644 60.2335 162.11 60.1029 162.633 60.1029C163.268 60.1029 163.832 60.2475 164.327 60.5369C164.831 60.8262 165.228 61.2229 165.517 61.7269C165.816 62.2309 165.965 62.8095 165.965 63.4629C165.965 64.1069 165.816 64.6855 165.517 65.1989C165.228 65.7029 164.831 66.0995 164.327 66.3889C163.832 66.6782 163.268 66.8229 162.633 66.8229C162.008 66.8229 161.443 66.6689 160.939 66.3609C160.435 66.0435 160.034 65.5722 159.735 64.9469C159.446 64.3215 159.301 63.5469 159.301 62.6229ZM160.421 63.4629C160.421 63.9109 160.519 64.3075 160.715 64.6529C160.911 64.9982 161.172 65.2735 161.499 65.4789C161.835 65.6749 162.213 65.7729 162.633 65.7729C163.053 65.7729 163.426 65.6749 163.753 65.4789C164.089 65.2735 164.35 64.9982 164.537 64.6529C164.733 64.3075 164.831 63.9109 164.831 63.4629C164.831 63.0149 164.733 62.6182 164.537 62.2729C164.35 61.9182 164.089 61.6429 163.753 61.4469C163.426 61.2509 163.053 61.1529 162.633 61.1529C162.306 61.1529 161.97 61.2415 161.625 61.4189C161.289 61.5962 161.004 61.8575 160.771 62.2029C160.538 62.5482 160.421 62.9682 160.421 63.4629ZM166.838 63.4629C166.838 62.8095 166.983 62.2309 167.272 61.7269C167.571 61.2229 167.972 60.8262 168.476 60.5369C168.98 60.2475 169.545 60.1029 170.17 60.1029C170.805 60.1029 171.37 60.2475 171.864 60.5369C172.368 60.8262 172.765 61.2229 173.054 61.7269C173.353 62.2309 173.502 62.8095 173.502 63.4629C173.502 64.1069 173.353 64.6855 173.054 65.1989C172.765 65.7029 172.368 66.0995 171.864 66.3889C171.37 66.6782 170.805 66.8229 170.17 66.8229C169.545 66.8229 168.98 66.6782 168.476 66.3889C167.972 66.0995 167.571 65.7029 167.272 65.1989C166.983 64.6855 166.838 64.1069 166.838 63.4629ZM167.972 63.4629C167.972 63.9109 168.066 64.3075 168.252 64.6529C168.448 64.9982 168.71 65.2735 169.036 65.4789C169.372 65.6749 169.75 65.7729 170.17 65.7729C170.59 65.7729 170.964 65.6749 171.29 65.4789C171.626 65.2735 171.888 64.9982 172.074 64.6529C172.27 64.3075 172.368 63.9109 172.368 63.4629C172.368 63.0149 172.27 62.6182 172.074 62.2729C171.888 61.9182 171.626 61.6429 171.29 61.4469C170.964 61.2509 170.59 61.1529 170.17 61.1529C169.75 61.1529 169.372 61.2509 169.036 61.4469C168.71 61.6429 168.448 61.9182 168.252 62.2729C168.066 62.6182 167.972 63.0149 167.972 63.4629ZM175.986 69.7629H174.866V60.2429H175.986V61.3489C176.219 60.9475 176.523 60.6395 176.896 60.4249C177.279 60.2102 177.708 60.1029 178.184 60.1029C178.772 60.1029 179.304 60.2382 179.78 60.5089C180.265 60.7795 180.653 61.1669 180.942 61.6709C181.231 62.1655 181.376 62.7629 181.376 63.4629C181.376 64.1535 181.231 64.7509 180.942 65.2549C180.653 65.7589 180.265 66.1462 179.78 66.4169C179.304 66.6875 178.772 66.8229 178.184 66.8229C177.708 66.8229 177.279 66.7155 176.896 66.5009C176.523 66.2862 176.219 65.9782 175.986 65.5769V69.7629ZM180.242 63.4629C180.242 62.9682 180.139 62.5482 179.934 62.2029C179.738 61.8575 179.472 61.5962 179.136 61.4189C178.809 61.2415 178.445 61.1529 178.044 61.1529C177.717 61.1529 177.395 61.2415 177.078 61.4189C176.761 61.5962 176.499 61.8575 176.294 62.2029C176.089 62.5482 175.986 62.9682 175.986 63.4629C175.986 63.9575 176.089 64.3775 176.294 64.7229C176.499 65.0682 176.761 65.3295 177.078 65.5069C177.395 65.6842 177.717 65.7729 178.044 65.7729C178.445 65.7729 178.809 65.6842 179.136 65.5069C179.472 65.3295 179.738 65.0682 179.934 64.7229C180.139 64.3775 180.242 63.9575 180.242 63.4629ZM182.745 60.2429H183.865V62.4969L186.245 60.2429H187.645L184.845 62.9029L187.925 66.6829H186.525L183.865 63.4209V66.6829H182.745V60.2429ZM189.38 61.7549L188.834 60.9009C189.077 60.7235 189.404 60.5462 189.814 60.3689C190.225 60.1915 190.72 60.1029 191.298 60.1029C192.036 60.1029 192.633 60.2755 193.09 60.6209C193.548 60.9569 193.776 61.4375 193.776 62.0629V66.6829H192.656V65.7589C192.46 66.1042 192.166 66.3702 191.774 66.5569C191.382 66.7342 190.944 66.8229 190.458 66.8229C190.057 66.8229 189.688 66.7482 189.352 66.5989C189.016 66.4495 188.746 66.2302 188.54 65.9409C188.344 65.6422 188.246 65.2735 188.246 64.8349C188.246 64.1535 188.489 63.6262 188.974 63.2529C189.469 62.8702 190.141 62.6789 190.99 62.6789C191.364 62.6789 191.69 62.7255 191.97 62.8189C192.25 62.9122 192.479 63.0195 192.656 63.1409V62.0629C192.656 61.7362 192.516 61.4935 192.236 61.3349C191.966 61.1669 191.653 61.0829 191.298 61.0829C190.841 61.0829 190.444 61.1669 190.108 61.3349C189.782 61.5029 189.539 61.6429 189.38 61.7549ZM189.38 64.7929C189.38 65.1382 189.511 65.3995 189.772 65.5769C190.043 65.7449 190.365 65.8289 190.738 65.8289C191.298 65.8289 191.756 65.7029 192.11 65.4509C192.474 65.1895 192.656 64.7602 192.656 64.1629V63.9109C192.18 63.6589 191.644 63.5329 191.046 63.5329C190.477 63.5329 190.057 63.6449 189.786 63.8689C189.516 64.0929 189.38 64.4009 189.38 64.7929ZM199.589 60.2429H200.709V62.4969L203.089 60.2429H204.489L201.689 62.9029L204.769 66.6829H203.369L200.709 63.4209V66.6829H199.589V60.2429ZM211.035 60.2429L206.835 69.7629H205.575L207.339 65.7729L204.875 60.2429H206.205L208.011 64.6809L209.775 60.2429H211.035ZM215.84 60.2429H217.1L214.902 63.3649L217.24 66.6829H215.98L214.3 64.2469L212.62 66.6829H211.36L213.698 63.3649L211.5 60.2429H212.76L214.3 62.4829L215.84 60.2429ZM217.418 63.4629C217.418 62.8095 217.563 62.2309 217.852 61.7269C218.151 61.2229 218.552 60.8262 219.056 60.5369C219.56 60.2475 220.125 60.1029 220.75 60.1029C221.385 60.1029 221.95 60.2475 222.444 60.5369C222.948 60.8262 223.345 61.2229 223.634 61.7269C223.933 62.2309 224.082 62.8095 224.082 63.4629C224.082 64.1069 223.933 64.6855 223.634 65.1989C223.345 65.7029 222.948 66.0995 222.444 66.3889C221.95 66.6782 221.385 66.8229 220.75 66.8229C220.125 66.8229 219.56 66.6782 219.056 66.3889C218.552 66.0995 218.151 65.7029 217.852 65.1989C217.563 64.6855 217.418 64.1069 217.418 63.4629ZM218.552 63.4629C218.552 63.9109 218.646 64.3075 218.832 64.6529C219.028 64.9982 219.29 65.2735 219.616 65.4789C219.952 65.6749 220.33 65.7729 220.75 65.7729C221.17 65.7729 221.544 65.6749 221.87 65.4789C222.206 65.2735 222.468 64.9982 222.654 64.6529C222.85 64.3075 222.948 63.9109 222.948 63.4629C222.948 63.0149 222.85 62.6182 222.654 62.2729C222.468 61.9182 222.206 61.6429 221.87 61.4469C221.544 61.2509 221.17 61.1529 220.75 61.1529C220.33 61.1529 219.952 61.2509 219.616 61.4469C219.29 61.6429 219.028 61.9182 218.832 62.2729C218.646 62.6182 218.552 63.0149 218.552 63.4629ZM225.516 60.2429H226.636V62.7629H230.206V60.2429H231.326V66.6829H230.206V63.8129H226.636V66.6829H225.516V60.2429ZM233.327 60.2429H234.447V62.7629H238.017V60.2429H239.137V66.6829H238.017V63.8129H234.447V66.6829H233.327V60.2429ZM240.578 63.4629C240.578 62.8095 240.723 62.2309 241.012 61.7269C241.311 61.2229 241.712 60.8262 242.216 60.5369C242.72 60.2475 243.285 60.1029 243.91 60.1029C244.545 60.1029 245.109 60.2475 245.604 60.5369C246.108 60.8262 246.505 61.2229 246.794 61.7269C247.093 62.2309 247.242 62.8095 247.242 63.4629C247.242 64.1069 247.093 64.6855 246.794 65.1989C246.505 65.7029 246.108 66.0995 245.604 66.3889C245.109 66.6782 244.545 66.8229 243.91 66.8229C243.285 66.8229 242.72 66.6782 242.216 66.3889C241.712 66.0995 241.311 65.7029 241.012 65.1989C240.723 64.6855 240.578 64.1069 240.578 63.4629ZM241.712 63.4629C241.712 63.9109 241.805 64.3075 241.992 64.6529C242.188 64.9982 242.449 65.2735 242.776 65.4789C243.112 65.6749 243.49 65.7729 243.91 65.7729C244.33 65.7729 244.703 65.6749 245.03 65.4789C245.366 65.2735 245.627 64.9982 245.814 64.6529C246.01 64.3075 246.108 63.9109 246.108 63.4629C246.108 63.0149 246.01 62.6182 245.814 62.2729C245.627 61.9182 245.366 61.6429 245.03 61.4469C244.703 61.2509 244.33 61.1529 243.91 61.1529C243.49 61.1529 243.112 61.2509 242.776 61.4469C242.449 61.6429 242.188 61.9182 241.992 62.2729C241.805 62.6182 241.712 63.0149 241.712 63.4629ZM249.264 56.9529H250.258C250.258 57.0742 250.29 57.2189 250.356 57.3869C250.421 57.5455 250.542 57.6902 250.72 57.8209C250.897 57.9422 251.149 58.0029 251.476 58.0029C251.802 58.0029 252.054 57.9422 252.232 57.8209C252.409 57.6902 252.53 57.5455 252.596 57.3869C252.661 57.2189 252.694 57.0742 252.694 56.9529H253.688C253.688 57.2702 253.604 57.5829 253.436 57.8909C253.277 58.1895 253.034 58.4369 252.708 58.6329C252.381 58.8195 251.97 58.9129 251.476 58.9129C250.99 58.9129 250.58 58.8195 250.244 58.6329C249.917 58.4369 249.67 58.1895 249.502 57.8909C249.343 57.5829 249.264 57.2702 249.264 56.9529ZM249.866 60.2429V64.4149L254.136 59.7529V66.6829H253.016V62.5109L248.746 67.1729V60.2429H249.866ZM152.12 78.2429H155.55V79.2929H153.24V84.6829H152.12V78.2429ZM157.07 79.7549L156.524 78.9009C156.767 78.7235 157.093 78.5462 157.504 78.3689C157.915 78.1915 158.409 78.1029 158.988 78.1029C159.725 78.1029 160.323 78.2755 160.78 78.6209C161.237 78.9569 161.466 79.4375 161.466 80.0629V84.6829H160.346V83.7589C160.15 84.1042 159.856 84.3702 159.464 84.5569C159.072 84.7342 158.633 84.8229 158.148 84.8229C157.747 84.8229 157.378 84.7482 157.042 84.5989C156.706 84.4495 156.435 84.2302 156.23 83.9409C156.034 83.6422 155.936 83.2735 155.936 82.8349C155.936 82.1535 156.179 81.6262 156.664 81.2529C157.159 80.8702 157.831 80.6789 158.68 80.6789C159.053 80.6789 159.38 80.7255 159.66 80.8189C159.94 80.9122 160.169 81.0195 160.346 81.1409V80.0629C160.346 79.7362 160.206 79.4935 159.926 79.3349C159.655 79.1669 159.343 79.0829 158.988 79.0829C158.531 79.0829 158.134 79.1669 157.798 79.3349C157.471 79.5029 157.229 79.6429 157.07 79.7549ZM157.07 82.7929C157.07 83.1382 157.201 83.3995 157.462 83.5769C157.733 83.7449 158.055 83.8289 158.428 83.8289C158.988 83.8289 159.445 83.7029 159.8 83.4509C160.164 83.1895 160.346 82.7602 160.346 82.1629V81.9109C159.87 81.6589 159.333 81.5329 158.736 81.5329C158.167 81.5329 157.747 81.6449 157.476 81.8689C157.205 82.0929 157.07 82.4009 157.07 82.7929ZM164.306 87.7629H163.186V78.2429H164.306V79.3489C164.539 78.9475 164.843 78.6395 165.216 78.4249C165.599 78.2102 166.028 78.1029 166.504 78.1029C167.092 78.1029 167.624 78.2382 168.1 78.5089C168.585 78.7795 168.973 79.1669 169.262 79.6709C169.551 80.1655 169.696 80.7629 169.696 81.4629C169.696 82.1535 169.551 82.7509 169.262 83.2549C168.973 83.7589 168.585 84.1462 168.1 84.4169C167.624 84.6875 167.092 84.8229 166.504 84.8229C166.028 84.8229 165.599 84.7155 165.216 84.5009C164.843 84.2862 164.539 83.9782 164.306 83.5769V87.7629ZM168.562 81.4629C168.562 80.9682 168.459 80.5482 168.254 80.2029C168.058 79.8575 167.792 79.5962 167.456 79.4189C167.129 79.2415 166.765 79.1529 166.364 79.1529C166.037 79.1529 165.715 79.2415 165.398 79.4189C165.081 79.5962 164.819 79.8575 164.614 80.2029C164.409 80.5482 164.306 80.9682 164.306 81.4629C164.306 81.9575 164.409 82.3775 164.614 82.7229C164.819 83.0682 165.081 83.3295 165.398 83.5069C165.715 83.6842 166.037 83.7729 166.364 83.7729C166.765 83.7729 167.129 83.6842 167.456 83.5069C167.792 83.3295 168.058 83.0682 168.254 82.7229C168.459 82.3775 168.562 81.9575 168.562 81.4629ZM171.135 78.2429H172.255V80.7629H175.825V78.2429H176.945V84.6829H175.825V81.8129H172.255V84.6829H171.135V78.2429ZM180.136 78.2429V82.4149L184.406 77.7529V84.6829H183.286V80.5109L179.016 85.1729V78.2429H180.136ZM185.49 78.2429H189.27V79.2929H187.94V84.6829H186.82V79.2929H185.49V78.2429ZM195.823 78.2429L191.623 87.7629H190.363L192.127 83.7729L189.663 78.2429H190.993L192.799 82.6809L194.563 78.2429H195.823ZM197.824 87.7629H196.704V78.2429H197.824V79.3489C198.057 78.9475 198.361 78.6395 198.734 78.4249C199.117 78.2102 199.546 78.1029 200.022 78.1029C200.61 78.1029 201.142 78.2382 201.618 78.5089C202.103 78.7795 202.491 79.1669 202.78 79.6709C203.069 80.1655 203.214 80.7629 203.214 81.4629C203.214 82.1535 203.069 82.7509 202.78 83.2549C202.491 83.7589 202.103 84.1462 201.618 84.4169C201.142 84.6875 200.61 84.8229 200.022 84.8229C199.546 84.8229 199.117 84.7155 198.734 84.5009C198.361 84.2862 198.057 83.9782 197.824 83.5769V87.7629ZM202.08 81.4629C202.08 80.9682 201.977 80.5482 201.772 80.2029C201.576 79.8575 201.31 79.5962 200.974 79.4189C200.647 79.2415 200.283 79.1529 199.882 79.1529C199.555 79.1529 199.233 79.2415 198.916 79.4189C198.599 79.5962 198.337 79.8575 198.132 80.2029C197.927 80.5482 197.824 80.9682 197.824 81.4629C197.824 81.9575 197.927 82.3775 198.132 82.7229C198.337 83.0682 198.599 83.3295 198.916 83.5069C199.233 83.6842 199.555 83.7729 199.882 83.7729C200.283 83.7729 200.647 83.6842 200.974 83.5069C201.31 83.3295 201.576 83.0682 201.772 82.7229C201.977 82.3775 202.08 81.9575 202.08 81.4629ZM210.463 78.2429H211.583V84.6829H210.463V78.2429ZM204.653 78.2429H205.773V80.6789H207.313C207.976 80.6789 208.531 80.8422 208.979 81.1689C209.437 81.4862 209.665 81.9902 209.665 82.6809C209.665 83.3715 209.437 83.8802 208.979 84.2069C208.531 84.5242 207.976 84.6829 207.313 84.6829H204.653V78.2429ZM207.313 81.6589H205.773V83.7029H207.313C207.724 83.7029 208.032 83.6142 208.237 83.4369C208.443 83.2502 208.545 82.9982 208.545 82.6809C208.545 82.3542 208.443 82.1022 208.237 81.9249C208.032 81.7475 207.724 81.6589 207.313 81.6589ZM218.854 78.2429V82.4149L223.124 77.7529V84.6829H222.004V80.5109L217.734 85.1729V78.2429H218.854ZM230.33 87.7629H229.21V78.2429H230.33V79.3489C230.563 78.9475 230.867 78.6395 231.24 78.4249C231.623 78.2102 232.052 78.1029 232.528 78.1029C233.116 78.1029 233.648 78.2382 234.124 78.5089C234.609 78.7795 234.997 79.1669 235.286 79.6709C235.575 80.1655 235.72 80.7629 235.72 81.4629C235.72 82.1535 235.575 82.7509 235.286 83.2549C234.997 83.7589 234.609 84.1462 234.124 84.4169C233.648 84.6875 233.116 84.8229 232.528 84.8229C232.052 84.8229 231.623 84.7155 231.24 84.5009C230.867 84.2862 230.563 83.9782 230.33 83.5769V87.7629ZM234.586 81.4629C234.586 80.9682 234.483 80.5482 234.278 80.2029C234.082 79.8575 233.816 79.5962 233.48 79.4189C233.153 79.2415 232.789 79.1529 232.388 79.1529C232.061 79.1529 231.739 79.2415 231.422 79.4189C231.105 79.5962 230.843 79.8575 230.638 80.2029C230.433 80.5482 230.33 80.9682 230.33 81.4629C230.33 81.9575 230.433 82.3775 230.638 82.7229C230.843 83.0682 231.105 83.3295 231.422 83.5069C231.739 83.6842 232.061 83.7729 232.388 83.7729C232.789 83.7729 233.153 83.6842 233.48 83.5069C233.816 83.3295 234.082 83.0682 234.278 82.7229C234.483 82.3775 234.586 81.9575 234.586 81.4629ZM237.663 79.7549L237.117 78.9009C237.36 78.7235 237.687 78.5462 238.097 78.3689C238.508 78.1915 239.003 78.1029 239.581 78.1029C240.319 78.1029 240.916 78.2755 241.373 78.6209C241.831 78.9569 242.059 79.4375 242.059 80.0629V84.6829H240.939V83.7589C240.743 84.1042 240.449 84.3702 240.057 84.5569C239.665 84.7342 239.227 84.8229 238.741 84.8229C238.34 84.8229 237.971 84.7482 237.635 84.5989C237.299 84.4495 237.029 84.2302 236.823 83.9409C236.627 83.6422 236.529 83.2735 236.529 82.8349C236.529 82.1535 236.772 81.6262 237.257 81.2529C237.752 80.8702 238.424 80.6789 239.273 80.6789C239.647 80.6789 239.973 80.7255 240.253 80.8189C240.533 80.9122 240.762 81.0195 240.939 81.1409V80.0629C240.939 79.7362 240.799 79.4935 240.519 79.3349C240.249 79.1669 239.936 79.0829 239.581 79.0829C239.124 79.0829 238.727 79.1669 238.391 79.3349C238.065 79.5029 237.822 79.6429 237.663 79.7549ZM237.663 82.7929C237.663 83.1382 237.794 83.3995 238.055 83.5769C238.326 83.7449 238.648 83.8289 239.021 83.8289C239.581 83.8289 240.039 83.7029 240.393 83.4509C240.757 83.1895 240.939 82.7602 240.939 82.1629V81.9109C240.463 81.6589 239.927 81.5329 239.329 81.5329C238.76 81.5329 238.34 81.6449 238.069 81.8689C237.799 82.0929 237.663 82.4009 237.663 82.7929ZM243.289 80.6229C243.289 79.7455 243.373 78.9709 243.541 78.2989C243.709 77.6269 244.003 77.0575 244.423 76.5909C244.853 76.1242 245.441 75.7602 246.187 75.4989C246.822 75.2842 247.293 75.0275 247.601 74.7289C247.919 74.4209 248.11 74.0989 248.175 73.7629H249.281C249.216 74.3882 248.922 74.9249 248.399 75.3729C247.877 75.8209 247.233 76.1662 246.467 76.4089C245.926 76.5862 245.501 76.8429 245.193 77.1789C244.885 77.5149 244.661 77.8975 244.521 78.3269C244.381 78.7469 244.302 79.1762 244.283 79.6149C244.507 79.1295 244.82 78.7562 245.221 78.4949C245.632 78.2335 246.099 78.1029 246.621 78.1029C247.256 78.1029 247.821 78.2475 248.315 78.5369C248.819 78.8262 249.216 79.2229 249.505 79.7269C249.804 80.2309 249.953 80.8095 249.953 81.4629C249.953 82.1069 249.804 82.6855 249.505 83.1989C249.216 83.7029 248.819 84.0995 248.315 84.3889C247.821 84.6782 247.256 84.8229 246.621 84.8229C245.996 84.8229 245.431 84.6689 244.927 84.3609C244.423 84.0435 244.022 83.5722 243.723 82.9469C243.434 82.3215 243.289 81.5469 243.289 80.6229ZM244.409 81.4629C244.409 81.9109 244.507 82.3075 244.703 82.6529C244.899 82.9982 245.161 83.2735 245.487 83.4789C245.823 83.6749 246.201 83.7729 246.621 83.7729C247.041 83.7729 247.415 83.6749 247.741 83.4789C248.077 83.2735 248.339 82.9982 248.525 82.6529C248.721 82.3075 248.819 81.9109 248.819 81.4629C248.819 81.0149 248.721 80.6182 248.525 80.2729C248.339 79.9182 248.077 79.6429 247.741 79.4469C247.415 79.2509 247.041 79.1529 246.621 79.1529C246.295 79.1529 245.959 79.2415 245.613 79.4189C245.277 79.5962 244.993 79.8575 244.759 80.2029C244.526 80.5482 244.409 80.9682 244.409 81.4629ZM250.827 81.4629C250.827 80.8095 250.972 80.2309 251.261 79.7269C251.56 79.2229 251.961 78.8262 252.465 78.5369C252.969 78.2475 253.534 78.1029 254.159 78.1029C254.794 78.1029 255.358 78.2475 255.853 78.5369C256.357 78.8262 256.754 79.2229 257.043 79.7269C257.342 80.2309 257.491 80.8095 257.491 81.4629C257.491 82.1069 257.342 82.6855 257.043 83.1989C256.754 83.7029 256.357 84.0995 255.853 84.3889C255.358 84.6782 254.794 84.8229 254.159 84.8229C253.534 84.8229 252.969 84.6782 252.465 84.3889C251.961 84.0995 251.56 83.7029 251.261 83.1989C250.972 82.6855 250.827 82.1069 250.827 81.4629ZM251.961 81.4629C251.961 81.9109 252.054 82.3075 252.241 82.6529C252.437 82.9982 252.698 83.2735 253.025 83.4789C253.361 83.6749 253.739 83.7729 254.159 83.7729C254.579 83.7729 254.952 83.6749 255.279 83.4789C255.615 83.2735 255.876 82.9982 256.063 82.6529C256.259 82.3075 256.357 81.9109 256.357 81.4629C256.357 81.0149 256.259 80.6182 256.063 80.2729C255.876 79.9182 255.615 79.6429 255.279 79.4469C254.952 79.2509 254.579 79.1529 254.159 79.1529C253.739 79.1529 253.361 79.2509 253.025 79.4469C252.698 79.6429 252.437 79.9182 252.241 80.2729C252.054 80.6182 251.961 81.0149 251.961 81.4629ZM259.695 78.2429V80.0909C259.695 80.6509 259.793 81.0569 259.989 81.3089C260.194 81.5515 260.563 81.6729 261.095 81.6729H262.495V78.2429H263.615V84.6829H262.495V82.7229H261.095C260.451 82.7229 259.942 82.6342 259.569 82.4569C259.205 82.2795 258.948 81.9995 258.799 81.6169C258.649 81.2249 258.575 80.7162 258.575 80.0909V78.2429H259.695ZM266.804 78.2429V82.4149L271.074 77.7529V84.6829H269.954V80.5109L265.684 85.1729V78.2429H266.804ZM276.568 78.2429H277.828L275.63 81.3649L277.968 84.6829H276.708L275.028 82.2469L273.348 84.6829H272.088L274.426 81.3649L272.228 78.2429H273.488L275.028 80.4829L276.568 78.2429ZM157.3 96.2429V102.683H156.18V97.2929H153.17V102.683H152.05V96.2429H157.3ZM158.74 99.4629C158.74 98.8095 158.885 98.2309 159.174 97.7269C159.473 97.2229 159.874 96.8262 160.378 96.5369C160.882 96.2475 161.447 96.1029 162.072 96.1029C162.707 96.1029 163.272 96.2475 163.766 96.5369C164.27 96.8262 164.667 97.2229 164.956 97.7269C165.255 98.2309 165.404 98.8095 165.404 99.4629C165.404 100.107 165.255 100.686 164.956 101.199C164.667 101.703 164.27 102.1 163.766 102.389C163.272 102.678 162.707 102.823 162.072 102.823C161.447 102.823 160.882 102.678 160.378 102.389C159.874 102.1 159.473 101.703 159.174 101.199C158.885 100.686 158.74 100.107 158.74 99.4629ZM159.874 99.4629C159.874 99.9109 159.968 100.308 160.154 100.653C160.35 100.998 160.612 101.274 160.938 101.479C161.274 101.675 161.652 101.773 162.072 101.773C162.492 101.773 162.866 101.675 163.192 101.479C163.528 101.274 163.79 100.998 163.976 100.653C164.172 100.308 164.27 99.9109 164.27 99.4629C164.27 99.0149 164.172 98.6182 163.976 98.2729C163.79 97.9182 163.528 97.6429 163.192 97.4469C162.866 97.2509 162.492 97.1529 162.072 97.1529C161.652 97.1529 161.274 97.2509 160.938 97.4469C160.612 97.6429 160.35 97.9182 160.154 98.2729C159.968 98.6182 159.874 99.0149 159.874 99.4629ZM166.838 96.2429H169.218C169.619 96.2429 169.983 96.3035 170.31 96.4249C170.646 96.5369 170.917 96.7235 171.122 96.9849C171.327 97.2369 171.43 97.5729 171.43 97.9929C171.43 98.3569 171.332 98.6555 171.136 98.8889C170.94 99.1222 170.683 99.2995 170.366 99.4209C170.767 99.5049 171.089 99.6635 171.332 99.8969C171.584 100.13 171.71 100.476 171.71 100.933C171.71 101.418 171.547 101.834 171.22 102.179C170.903 102.515 170.375 102.683 169.638 102.683H166.838V96.2429ZM169.218 97.2229H167.958V98.9449H169.218C169.554 98.9449 169.82 98.8609 170.016 98.6929C170.212 98.5249 170.31 98.3149 170.31 98.0629C170.31 97.8109 170.212 97.6102 170.016 97.4609C169.82 97.3022 169.554 97.2229 169.218 97.2229ZM169.358 99.9109H167.958V101.703H169.358C169.778 101.703 170.086 101.614 170.282 101.437C170.487 101.26 170.59 101.045 170.59 100.793C170.59 100.541 170.487 100.331 170.282 100.163C170.086 99.9949 169.778 99.9109 169.358 99.9109ZM178.635 101.185C178.42 101.512 178.182 101.801 177.921 102.053C177.659 102.296 177.342 102.487 176.969 102.627C176.595 102.758 176.129 102.823 175.569 102.823C174.99 102.823 174.467 102.678 174.001 102.389C173.543 102.1 173.179 101.703 172.909 101.199C172.647 100.686 172.517 100.107 172.517 99.4629C172.517 99.3415 172.521 99.2249 172.531 99.1129C172.54 99.0009 172.554 98.8889 172.573 98.7769C172.666 98.2449 172.853 97.7782 173.133 97.3769C173.413 96.9755 173.772 96.6629 174.211 96.4389C174.659 96.2149 175.158 96.1029 175.709 96.1029C176.315 96.1029 176.847 96.2382 177.305 96.5089C177.762 96.7795 178.117 97.1622 178.369 97.6569C178.621 98.1422 178.747 98.7255 178.747 99.4069C178.747 99.4629 178.747 99.5189 178.747 99.5749C178.747 99.6309 178.742 99.6869 178.733 99.7429H173.665C173.711 100.396 173.917 100.9 174.281 101.255C174.645 101.6 175.121 101.773 175.709 101.773C176.175 101.773 176.572 101.666 176.899 101.451C177.235 101.236 177.51 100.956 177.725 100.611L178.635 101.185ZM175.709 97.0829C175.186 97.0829 174.733 97.2369 174.351 97.5449C173.968 97.8435 173.749 98.2589 173.693 98.7909H177.529C177.473 98.2869 177.295 97.8762 176.997 97.5589C176.698 97.2415 176.269 97.0829 175.709 97.0829ZM181.227 105.763H180.107V96.2429H181.227V97.3489C181.46 96.9475 181.763 96.6395 182.137 96.4249C182.519 96.2102 182.949 96.1029 183.425 96.1029C184.013 96.1029 184.545 96.2382 185.021 96.5089C185.506 96.7795 185.893 97.1669 186.183 97.6709C186.472 98.1655 186.617 98.7629 186.617 99.4629C186.617 100.154 186.472 100.751 186.183 101.255C185.893 101.759 185.506 102.146 185.021 102.417C184.545 102.688 184.013 102.823 183.425 102.823C182.949 102.823 182.519 102.716 182.137 102.501C181.763 102.286 181.46 101.978 181.227 101.577V105.763ZM185.483 99.4629C185.483 98.9682 185.38 98.5482 185.175 98.2029C184.979 97.8575 184.713 97.5962 184.377 97.4189C184.05 97.2415 183.686 97.1529 183.285 97.1529C182.958 97.1529 182.636 97.2415 182.319 97.4189C182.001 97.5962 181.74 97.8575 181.535 98.2029C181.329 98.5482 181.227 98.9682 181.227 99.4629C181.227 99.9575 181.329 100.378 181.535 100.723C181.74 101.068 182.001 101.33 182.319 101.507C182.636 101.684 182.958 101.773 183.285 101.773C183.686 101.773 184.05 101.684 184.377 101.507C184.713 101.33 184.979 101.068 185.175 100.723C185.38 100.378 185.483 99.9575 185.483 99.4629ZM191.281 96.2429H192.541L190.343 99.3649L192.681 102.683H191.421L189.741 100.247L188.061 102.683H186.801L189.139 99.3649L186.941 96.2429H188.201L189.741 98.4829L191.281 96.2429ZM193.625 96.2429H194.745V98.7629H198.315V96.2429H199.435V102.683H198.315V99.8129H194.745V102.683H193.625V96.2429ZM200.876 99.4629C200.876 98.8095 201.021 98.2309 201.31 97.7269C201.609 97.2229 202.01 96.8262 202.514 96.5369C203.018 96.2475 203.583 96.1029 204.208 96.1029C204.843 96.1029 205.407 96.2475 205.902 96.5369C206.406 96.8262 206.803 97.2229 207.092 97.7269C207.391 98.2309 207.54 98.8095 207.54 99.4629C207.54 100.107 207.391 100.686 207.092 101.199C206.803 101.703 206.406 102.1 205.902 102.389C205.407 102.678 204.843 102.823 204.208 102.823C203.583 102.823 203.018 102.678 202.514 102.389C202.01 102.1 201.609 101.703 201.31 101.199C201.021 100.686 200.876 100.107 200.876 99.4629ZM202.01 99.4629C202.01 99.9109 202.103 100.308 202.29 100.653C202.486 100.998 202.747 101.274 203.074 101.479C203.41 101.675 203.788 101.773 204.208 101.773C204.628 101.773 205.001 101.675 205.328 101.479C205.664 101.274 205.925 100.998 206.112 100.653C206.308 100.308 206.406 99.9109 206.406 99.4629C206.406 99.0149 206.308 98.6182 206.112 98.2729C205.925 97.9182 205.664 97.6429 205.328 97.4469C205.001 97.2509 204.628 97.1529 204.208 97.1529C203.788 97.1529 203.41 97.2509 203.074 97.4469C202.747 97.6429 202.486 97.9182 202.29 98.2729C202.103 98.6182 202.01 99.0149 202.01 99.4629ZM209.478 99.4629C209.478 99.9109 209.571 100.308 209.758 100.653C209.954 100.998 210.215 101.274 210.542 101.479C210.878 101.675 211.256 101.773 211.676 101.773C212.198 101.773 212.665 101.656 213.076 101.423C213.486 101.19 213.766 100.914 213.916 100.597V101.997C213.692 102.258 213.37 102.464 212.95 102.613C212.539 102.753 212.114 102.823 211.676 102.823C211.05 102.823 210.486 102.678 209.982 102.389C209.478 102.1 209.076 101.703 208.778 101.199C208.488 100.686 208.344 100.107 208.344 99.4629C208.344 98.8095 208.488 98.2309 208.778 97.7269C209.076 97.2229 209.478 96.8262 209.982 96.5369C210.486 96.2475 211.05 96.1029 211.676 96.1029C212.114 96.1029 212.539 96.1775 212.95 96.3269C213.37 96.4669 213.692 96.6675 213.916 96.9289V98.3289C213.766 98.0115 213.486 97.7362 213.076 97.5029C212.665 97.2695 212.198 97.1529 211.676 97.1529C211.256 97.1529 210.878 97.2509 210.542 97.4469C210.215 97.6429 209.954 97.9182 209.758 98.2729C209.571 98.6182 209.478 99.0149 209.478 99.4629ZM214.574 96.2429H218.354V97.2929H217.024V102.683H215.904V97.2929H214.574V96.2429ZM224.726 101.185C224.511 101.512 224.273 101.801 224.012 102.053C223.751 102.296 223.433 102.487 223.06 102.627C222.687 102.758 222.22 102.823 221.66 102.823C221.081 102.823 220.559 102.678 220.092 102.389C219.635 102.1 219.271 101.703 219 101.199C218.739 100.686 218.608 100.107 218.608 99.4629C218.608 99.3415 218.613 99.2249 218.622 99.1129C218.631 99.0009 218.645 98.8889 218.664 98.7769C218.757 98.2449 218.944 97.7782 219.224 97.3769C219.504 96.9755 219.863 96.6629 220.302 96.4389C220.75 96.2149 221.249 96.1029 221.8 96.1029C222.407 96.1029 222.939 96.2382 223.396 96.5089C223.853 96.7795 224.208 97.1622 224.46 97.6569C224.712 98.1422 224.838 98.7255 224.838 99.4069C224.838 99.4629 224.838 99.5189 224.838 99.5749C224.838 99.6309 224.833 99.6869 224.824 99.7429H219.756C219.803 100.396 220.008 100.9 220.372 101.255C220.736 101.6 221.212 101.773 221.8 101.773C222.267 101.773 222.663 101.666 222.99 101.451C223.326 101.236 223.601 100.956 223.816 100.611L224.726 101.185ZM221.8 97.0829C221.277 97.0829 220.825 97.2369 220.442 97.5449C220.059 97.8435 219.84 98.2589 219.784 98.7909H223.62C223.564 98.2869 223.387 97.8762 223.088 97.5589C222.789 97.2415 222.36 97.0829 221.8 97.0829ZM226.856 92.9529H227.85C227.85 93.0742 227.883 93.2189 227.948 93.3869C228.013 93.5455 228.135 93.6902 228.312 93.8209C228.489 93.9422 228.741 94.0029 229.068 94.0029C229.395 94.0029 229.647 93.9422 229.824 93.8209C230.001 93.6902 230.123 93.5455 230.188 93.3869C230.253 93.2189 230.286 93.0742 230.286 92.9529H231.28C231.28 93.2702 231.196 93.5829 231.028 93.8909C230.869 94.1895 230.627 94.4369 230.3 94.6329C229.973 94.8195 229.563 94.9129 229.068 94.9129C228.583 94.9129 228.172 94.8195 227.836 94.6329C227.509 94.4369 227.262 94.1895 227.094 93.8909C226.935 93.5829 226.856 93.2702 226.856 92.9529ZM227.458 96.2429V100.415L231.728 95.7529V102.683H230.608V98.5109L226.338 103.173V96.2429H227.458Z" fill="white"/>
<defs>
<filter id="filter0_d" x="134" y="29.6829" width="224" height="110" filterUnits="userSpaceOnUse" color-interpolation-filters="sRGB">
<feFlood flood-opacity="0" result="BackgroundImageFix"/>
<feColorMatrix in="SourceAlpha" type="matrix" values="0 0 0 0 0 0 0 0 0 0 0 0 0 0 0 0 0 0 127 0"/>
<feOffset dx="12" dy="4"/>
<feGaussianBlur stdDeviation="12"/>
<feColorMatrix type="matrix" values="0 0 0 0 0 0 0 0 0 0 0 0 0 0 0 0 0 0 0.25 0"/>
<feBlend mode="normal" in2="BackgroundImageFix" result="effect1_dropShadow"/>
<feBlend mode="normal" in="SourceGraphic" in2="effect1_dropShadow" result="shape"/>
</filter>
</defs>
</svg>
