<svg width="210" height="215" viewBox="0 0 210 215" fill="none" xmlns="http://www.w3.org/2000/svg">
<path fill-rule="evenodd" clip-rule="evenodd" d="M159.371 130.394L106.371 71.665L105.629 72.335L158.5 130.922V200H159.5V130.729V130.537L159.371 130.394ZM155.058 200.354H163.219L167.353 207.137L163.756 214.354H155.058L151.353 207.137L155.058 200.354Z" fill="#FEC901"/>
<g filter="url(#filter0_d)">
<path d="M12 20H156.09L174 48.05L156.09 75H12V20Z" fill="#161616"/>
</g>
<path d="M26.112 31.13C26.112 31.774 25.9627 32.3107 25.664 32.74C25.3747 33.16 24.978 33.4773 24.474 33.692C23.9793 33.8973 23.4147 34 22.78 34H20.12V24.2H22.64C23.5173 24.2 24.222 24.4007 24.754 24.802C25.286 25.2033 25.552 25.8193 25.552 26.65C25.552 27.154 25.4073 27.5787 25.118 27.924C24.8287 28.26 24.432 28.5027 23.928 28.652C24.572 28.7827 25.0947 29.0533 25.496 29.464C25.9067 29.8653 26.112 30.4207 26.112 31.13ZM22.64 25.25H21.31V28.162H22.64C23.1347 28.162 23.5453 28.036 23.872 27.784C24.1987 27.532 24.362 27.1773 24.362 26.72C24.362 26.2533 24.1987 25.894 23.872 25.642C23.5453 25.3807 23.1347 25.25 22.64 25.25ZM21.31 32.95H22.78C23.4147 32.95 23.928 32.7867 24.32 32.46C24.7213 32.124 24.922 31.6573 24.922 31.06C24.922 30.4533 24.7213 29.9913 24.32 29.674C23.928 29.3567 23.4147 29.198 22.78 29.198H21.31V32.95ZM33.3936 27.56V34H32.2736V28.61H28.9836V31.76C28.9836 32.5253 28.8063 33.09 28.4516 33.454C28.1063 33.818 27.5696 34 26.8416 34V32.978C27.1216 32.978 27.3596 32.8893 27.5556 32.712C27.761 32.5347 27.8636 32.2173 27.8636 31.76V27.56H33.3936ZM35.9573 29.072L35.4113 28.218C35.6539 28.0407 35.9806 27.8633 36.3913 27.686C36.8019 27.5087 37.2966 27.42 37.8753 27.42C38.6126 27.42 39.2099 27.5927 39.6673 27.938C40.1246 28.274 40.3533 28.7547 40.3533 29.38V34H39.2333V33.076C39.0373 33.4213 38.7433 33.6873 38.3513 33.874C37.9593 34.0513 37.5206 34.14 37.0353 34.14C36.6339 34.14 36.2653 34.0653 35.9293 33.916C35.5933 33.7667 35.3226 33.5473 35.1173 33.258C34.9213 32.9593 34.8233 32.5907 34.8233 32.152C34.8233 31.4707 35.0659 30.9433 35.5513 30.57C36.0459 30.1873 36.7179 29.996 37.5673 29.996C37.9406 29.996 38.2673 30.0427 38.5473 30.136C38.8273 30.2293 39.0559 30.3367 39.2333 30.458V29.38C39.2333 29.0533 39.0933 28.8107 38.8133 28.652C38.5426 28.484 38.2299 28.4 37.8753 28.4C37.4179 28.4 37.0213 28.484 36.6853 28.652C36.3586 28.82 36.1159 28.96 35.9573 29.072ZM35.9573 32.11C35.9573 32.4553 36.0879 32.7167 36.3493 32.894C36.6199 33.062 36.9419 33.146 37.3153 33.146C37.8753 33.146 38.3326 33.02 38.6873 32.768C39.0513 32.5067 39.2333 32.0773 39.2333 31.48V31.228C38.7573 30.976 38.2206 30.85 37.6233 30.85C37.0539 30.85 36.6339 30.962 36.3633 31.186C36.0926 31.41 35.9573 31.718 35.9573 32.11ZM42.7732 27.56L45.2932 29.954V27.56H46.3432V29.954L48.8632 27.56H50.2632L47.3232 30.36L50.5432 34H49.1432L46.3432 30.57V34H45.2932V30.57L42.4932 34H41.0932L44.3132 30.36L41.3732 27.56H42.7732ZM51.4855 27.56H52.6055V30.08H56.1755V27.56H57.2955V34H56.1755V31.13H52.6055V34H51.4855V27.56ZM59.8005 29.072L59.2545 28.218C59.4971 28.0407 59.8238 27.8633 60.2345 27.686C60.6451 27.5087 61.1398 27.42 61.7185 27.42C62.4558 27.42 63.0531 27.5927 63.5105 27.938C63.9678 28.274 64.1965 28.7547 64.1965 29.38V34H63.0765V33.076C62.8805 33.4213 62.5865 33.6873 62.1945 33.874C61.8025 34.0513 61.3638 34.14 60.8785 34.14C60.4771 34.14 60.1085 34.0653 59.7725 33.916C59.4365 33.7667 59.1658 33.5473 58.9605 33.258C58.7645 32.9593 58.6665 32.5907 58.6665 32.152C58.6665 31.4707 58.9091 30.9433 59.3945 30.57C59.8891 30.1873 60.5611 29.996 61.4105 29.996C61.7838 29.996 62.1105 30.0427 62.3905 30.136C62.6705 30.2293 62.8991 30.3367 63.0765 30.458V29.38C63.0765 29.0533 62.9365 28.8107 62.6565 28.652C62.3858 28.484 62.0731 28.4 61.7185 28.4C61.2611 28.4 60.8645 28.484 60.5285 28.652C60.2018 28.82 59.9591 28.96 59.8005 29.072ZM59.8005 32.11C59.8005 32.4553 59.9311 32.7167 60.1925 32.894C60.4631 33.062 60.7851 33.146 61.1585 33.146C61.7185 33.146 62.1758 33.02 62.5305 32.768C62.8945 32.5067 63.0765 32.0773 63.0765 31.48V31.228C62.6005 30.976 62.0638 30.85 61.4665 30.85C60.8971 30.85 60.4771 30.962 60.2065 31.186C59.9358 31.41 59.8005 31.718 59.8005 32.11ZM66.9104 34H65.6784L67.5544 31.354C67.0877 31.2607 66.7097 31.0647 66.4204 30.766C66.1311 30.4673 65.9864 30.0427 65.9864 29.492C65.9864 29.0253 66.0891 28.652 66.2944 28.372C66.4997 28.092 66.7797 27.8867 67.1344 27.756C67.4984 27.6253 67.8997 27.56 68.3384 27.56H70.9984V34H69.8784V31.424H68.7304L66.9104 34ZM68.3384 30.444H69.8784V28.54H68.3384C67.5171 28.54 67.1064 28.8573 67.1064 29.492C67.1064 30.1267 67.5171 30.444 68.3384 30.444ZM77.9313 27.56V31.732L82.2013 27.07V34H81.0813V29.828L76.8112 34.49V27.56H77.9313ZM88.8614 30.78C88.8614 31.228 88.9548 31.6247 89.1414 31.97C89.3374 32.3153 89.5988 32.5907 89.9254 32.796C90.2614 32.992 90.6394 33.09 91.0594 33.09C91.5821 33.09 92.0488 32.9733 92.4594 32.74C92.8701 32.5067 93.1501 32.2313 93.2994 31.914V33.314C93.0754 33.5753 92.7534 33.7807 92.3334 33.93C91.9228 34.07 91.4981 34.14 91.0594 34.14C90.4341 34.14 89.8694 33.9953 89.3654 33.706C88.8614 33.4167 88.4601 33.02 88.1614 32.516C87.8721 32.0027 87.7274 31.424 87.7274 30.78C87.7274 30.1267 87.8721 29.548 88.1614 29.044C88.4601 28.54 88.8614 28.1433 89.3654 27.854C89.8694 27.5647 90.4341 27.42 91.0594 27.42C91.4981 27.42 91.9228 27.4947 92.3334 27.644C92.7534 27.784 93.0754 27.9847 93.2994 28.246V29.646C93.1501 29.3287 92.8701 29.0533 92.4594 28.82C92.0488 28.5867 91.5821 28.47 91.0594 28.47C90.6394 28.47 90.2614 28.568 89.9254 28.764C89.5988 28.96 89.3374 29.2353 89.1414 29.59C88.9548 29.9353 88.8614 30.332 88.8614 30.78ZM100.048 27.56L95.848 37.08H94.588L96.352 33.09L93.888 27.56H95.218L97.024 31.998L98.788 27.56H100.048ZM104.853 27.56H106.113L103.915 30.682L106.253 34H104.993L103.313 31.564L101.633 34H100.373L102.711 30.682L100.513 27.56H101.773L103.313 29.8L104.853 27.56ZM107.701 29.072L107.155 28.218C107.397 28.0407 107.724 27.8633 108.135 27.686C108.545 27.5087 109.04 27.42 109.619 27.42C110.356 27.42 110.953 27.5927 111.411 27.938C111.868 28.274 112.097 28.7547 112.097 29.38V34H110.977V33.076C110.781 33.4213 110.487 33.6873 110.095 33.874C109.703 34.0513 109.264 34.14 108.779 34.14C108.377 34.14 108.009 34.0653 107.673 33.916C107.337 33.7667 107.066 33.5473 106.861 33.258C106.665 32.9593 106.567 32.5907 106.567 32.152C106.567 31.4707 106.809 30.9433 107.295 30.57C107.789 30.1873 108.461 29.996 109.311 29.996C109.684 29.996 110.011 30.0427 110.291 30.136C110.571 30.2293 110.799 30.3367 110.977 30.458V29.38C110.977 29.0533 110.837 28.8107 110.557 28.652C110.286 28.484 109.973 28.4 109.619 28.4C109.161 28.4 108.765 28.484 108.429 28.652C108.102 28.82 107.859 28.96 107.701 29.072ZM107.701 32.11C107.701 32.4553 107.831 32.7167 108.093 32.894C108.363 33.062 108.685 33.146 109.059 33.146C109.619 33.146 110.076 33.02 110.431 32.768C110.795 32.5067 110.977 32.0773 110.977 31.48V31.228C110.501 30.976 109.964 30.85 109.367 30.85C108.797 30.85 108.377 30.962 108.107 31.186C107.836 31.41 107.701 31.718 107.701 32.11ZM114.811 34H113.579L115.455 31.354C114.988 31.2607 114.61 31.0647 114.321 30.766C114.031 30.4673 113.887 30.0427 113.887 29.492C113.887 29.0253 113.989 28.652 114.195 28.372C114.4 28.092 114.68 27.8867 115.035 27.756C115.399 27.6253 115.8 27.56 116.239 27.56H118.899V34H117.779V31.424H116.631L114.811 34ZM116.239 30.444H117.779V28.54H116.239C115.417 28.54 115.007 28.8573 115.007 29.492C115.007 30.1267 115.417 30.444 116.239 30.444ZM25.16 45.56L20.96 55.08H19.7L21.464 51.09L19 45.56H20.33L22.136 49.998L23.9 45.56H25.16ZM25.551 47.94C25.551 47.0627 25.635 46.288 25.803 45.616C25.971 44.944 26.265 44.3747 26.685 43.908C27.1143 43.4413 27.7023 43.0773 28.449 42.816C29.0837 42.6013 29.555 42.3447 29.863 42.046C30.1803 41.738 30.3717 41.416 30.437 41.08H31.543C31.4777 41.7053 31.1837 42.242 30.661 42.69C30.1383 43.138 29.4943 43.4833 28.729 43.726C28.1877 43.9033 27.763 44.16 27.455 44.496C27.147 44.832 26.923 45.2147 26.783 45.644C26.643 46.064 26.5637 46.4933 26.545 46.932C26.769 46.4467 27.0817 46.0733 27.483 45.812C27.8937 45.5507 28.3603 45.42 28.883 45.42C29.5177 45.42 30.0823 45.5647 30.577 45.854C31.081 46.1433 31.4777 46.54 31.767 47.044C32.0657 47.548 32.215 48.1267 32.215 48.78C32.215 49.424 32.0657 50.0027 31.767 50.516C31.4777 51.02 31.081 51.4167 30.577 51.706C30.0823 51.9953 29.5177 52.14 28.883 52.14C28.2577 52.14 27.693 51.986 27.189 51.678C26.685 51.3607 26.2837 50.8893 25.985 50.264C25.6957 49.6387 25.551 48.864 25.551 47.94ZM26.671 48.78C26.671 49.228 26.769 49.6247 26.965 49.97C27.161 50.3153 27.4223 50.5907 27.749 50.796C28.085 50.992 28.463 51.09 28.883 51.09C29.303 51.09 29.6763 50.992 30.003 50.796C30.339 50.5907 30.6003 50.3153 30.787 49.97C30.983 49.6247 31.081 49.228 31.081 48.78C31.081 48.332 30.983 47.9353 30.787 47.59C30.6003 47.2353 30.339 46.96 30.003 46.764C29.6763 46.568 29.303 46.47 28.883 46.47C28.5563 46.47 28.2203 46.5587 27.875 46.736C27.539 46.9133 27.2543 47.1747 27.021 47.52C26.7877 47.8653 26.671 48.2853 26.671 48.78ZM33.0886 48.78C33.0886 48.1267 33.2333 47.548 33.5226 47.044C33.8213 46.54 34.2226 46.1433 34.7266 45.854C35.2306 45.5647 35.7953 45.42 36.4206 45.42C37.0553 45.42 37.6199 45.5647 38.1146 45.854C38.6186 46.1433 39.0153 46.54 39.3046 47.044C39.6033 47.548 39.7526 48.1267 39.7526 48.78C39.7526 49.424 39.6033 50.0027 39.3046 50.516C39.0153 51.02 38.6186 51.4167 38.1146 51.706C37.6199 51.9953 37.0553 52.14 36.4206 52.14C35.7953 52.14 35.2306 51.9953 34.7266 51.706C34.2226 51.4167 33.8213 51.02 33.5226 50.516C33.2333 50.0027 33.0886 49.424 33.0886 48.78ZM34.2226 48.78C34.2226 49.228 34.3159 49.6247 34.5026 49.97C34.6986 50.3153 34.9599 50.5907 35.2866 50.796C35.6226 50.992 36.0006 51.09 36.4206 51.09C36.8406 51.09 37.2139 50.992 37.5406 50.796C37.8766 50.5907 38.1379 50.3153 38.3246 49.97C38.5206 49.6247 38.6186 49.228 38.6186 48.78C38.6186 48.332 38.5206 47.9353 38.3246 47.59C38.1379 47.2353 37.8766 46.96 37.5406 46.764C37.2139 46.568 36.8406 46.47 36.4206 46.47C36.0006 46.47 35.6226 46.568 35.2866 46.764C34.9599 46.96 34.6986 47.2353 34.5026 47.59C34.3159 47.9353 34.2226 48.332 34.2226 48.78ZM42.2362 55.08H41.1162V45.56H42.2362V46.666C42.4695 46.2647 42.7728 45.9567 43.1462 45.742C43.5288 45.5273 43.9582 45.42 44.4342 45.42C45.0222 45.42 45.5542 45.5553 46.0302 45.826C46.5155 46.0967 46.9028 46.484 47.1922 46.988C47.4815 47.4827 47.6262 48.08 47.6262 48.78C47.6262 49.4707 47.4815 50.068 47.1922 50.572C46.9028 51.076 46.5155 51.4633 46.0302 51.734C45.5542 52.0047 45.0222 52.14 44.4342 52.14C43.9582 52.14 43.5288 52.0327 43.1462 51.818C42.7728 51.6033 42.4695 51.2953 42.2362 50.894V55.08ZM46.4922 48.78C46.4922 48.2853 46.3895 47.8653 46.1842 47.52C45.9882 47.1747 45.7222 46.9133 45.3862 46.736C45.0595 46.5587 44.6955 46.47 44.2942 46.47C43.9675 46.47 43.6455 46.5587 43.3282 46.736C43.0108 46.9133 42.7495 47.1747 42.5442 47.52C42.3388 47.8653 42.2362 48.2853 42.2362 48.78C42.2362 49.2747 42.3388 49.6947 42.5442 50.04C42.7495 50.3853 43.0108 50.6467 43.3282 50.824C43.6455 51.0013 43.9675 51.09 44.2942 51.09C44.6955 51.09 45.0595 51.0013 45.3862 50.824C45.7222 50.6467 45.9882 50.3853 46.1842 50.04C46.3895 49.6947 46.4922 49.2747 46.4922 48.78ZM48.9955 45.56H50.1155V47.814L52.4955 45.56H53.8955L51.0955 48.22L54.1755 52H52.7755L50.1155 48.738V52H48.9955V45.56ZM55.6306 47.072L55.0846 46.218C55.3272 46.0407 55.6539 45.8633 56.0646 45.686C56.4752 45.5087 56.9699 45.42 57.5486 45.42C58.2859 45.42 58.8832 45.5927 59.3406 45.938C59.7979 46.274 60.0266 46.7547 60.0266 47.38V52H58.9066V51.076C58.7106 51.4213 58.4166 51.6873 58.0246 51.874C57.6326 52.0513 57.1939 52.14 56.7086 52.14C56.3072 52.14 55.9386 52.0653 55.6026 51.916C55.2666 51.7667 54.9959 51.5473 54.7906 51.258C54.5946 50.9593 54.4966 50.5907 54.4966 50.152C54.4966 49.4707 54.7392 48.9433 55.2246 48.57C55.7192 48.1873 56.3912 47.996 57.2406 47.996C57.6139 47.996 57.9406 48.0427 58.2206 48.136C58.5006 48.2293 58.7292 48.3367 58.9066 48.458V47.38C58.9066 47.0533 58.7666 46.8107 58.4866 46.652C58.2159 46.484 57.9032 46.4 57.5486 46.4C57.0912 46.4 56.6946 46.484 56.3586 46.652C56.0319 46.82 55.7892 46.96 55.6306 47.072ZM55.6306 50.11C55.6306 50.4553 55.7612 50.7167 56.0226 50.894C56.2932 51.062 56.6152 51.146 56.9886 51.146C57.5486 51.146 58.0059 51.02 58.3606 50.768C58.7246 50.5067 58.9066 50.0773 58.9066 49.48V49.228C58.4306 48.976 57.8939 48.85 57.2966 48.85C56.7272 48.85 56.3072 48.962 56.0366 49.186C55.7659 49.41 55.6306 49.718 55.6306 50.11ZM65.9087 45.56H67.0287V48.08H70.5987V45.56H71.7187V52H70.5987V49.13H67.0287V52H65.9087V45.56ZM74.2238 47.072L73.6778 46.218C73.9204 46.0407 74.2471 45.8633 74.6578 45.686C75.0684 45.5087 75.5631 45.42 76.1418 45.42C76.8791 45.42 77.4764 45.5927 77.9338 45.938C78.3911 46.274 78.6198 46.7547 78.6198 47.38V52H77.4998V51.076C77.3038 51.4213 77.0098 51.6873 76.6178 51.874C76.2258 52.0513 75.7871 52.14 75.3018 52.14C74.9004 52.14 74.5318 52.0653 74.1958 51.916C73.8598 51.7667 73.5891 51.5473 73.3838 51.258C73.1878 50.9593 73.0898 50.5907 73.0898 50.152C73.0898 49.4707 73.3324 48.9433 73.8178 48.57C74.3124 48.1873 74.9844 47.996 75.8338 47.996C76.2071 47.996 76.5338 48.0427 76.8138 48.136C77.0938 48.2293 77.3224 48.3367 77.4998 48.458V47.38C77.4998 47.0533 77.3598 46.8107 77.0798 46.652C76.8091 46.484 76.4964 46.4 76.1418 46.4C75.6844 46.4 75.2878 46.484 74.9518 46.652C74.6251 46.82 74.3824 46.96 74.2238 47.072ZM74.2238 50.11C74.2238 50.4553 74.3544 50.7167 74.6158 50.894C74.8864 51.062 75.2084 51.146 75.5818 51.146C76.1418 51.146 76.5991 51.02 76.9538 50.768C77.3178 50.5067 77.4998 50.0773 77.4998 49.48V49.228C77.0238 48.976 76.4871 48.85 75.8898 48.85C75.3204 48.85 74.9004 48.962 74.6298 49.186C74.3591 49.41 74.2238 49.718 74.2238 50.11ZM85.6597 45.56V52H84.5397V46.61H81.5297V52H80.4097V45.56H85.6597ZM87.1002 48.78C87.1002 48.1267 87.2448 47.548 87.5342 47.044C87.8328 46.54 88.2342 46.1433 88.7382 45.854C89.2422 45.5647 89.8068 45.42 90.4322 45.42C91.0668 45.42 91.6315 45.5647 92.1262 45.854C92.6302 46.1433 93.0268 46.54 93.3162 47.044C93.6148 47.548 93.7642 48.1267 93.7642 48.78C93.7642 49.424 93.6148 50.0027 93.3162 50.516C93.0268 51.02 92.6302 51.4167 92.1262 51.706C91.6315 51.9953 91.0668 52.14 90.4322 52.14C89.8068 52.14 89.2422 51.9953 88.7382 51.706C88.2342 51.4167 87.8328 51.02 87.5342 50.516C87.2448 50.0027 87.1002 49.424 87.1002 48.78ZM88.2342 48.78C88.2342 49.228 88.3275 49.6247 88.5142 49.97C88.7102 50.3153 88.9715 50.5907 89.2982 50.796C89.6342 50.992 90.0122 51.09 90.4322 51.09C90.8522 51.09 91.2255 50.992 91.5522 50.796C91.8882 50.5907 92.1495 50.3153 92.3362 49.97C92.5322 49.6247 92.6302 49.228 92.6302 48.78C92.6302 48.332 92.5322 47.9353 92.3362 47.59C92.1495 47.2353 91.8882 46.96 91.5522 46.764C91.2255 46.568 90.8522 46.47 90.4322 46.47C90.0122 46.47 89.6342 46.568 89.2982 46.764C88.9715 46.96 88.7102 47.2353 88.5142 47.59C88.3275 47.9353 88.2342 48.332 88.2342 48.78ZM100.84 45.56V52H99.7197V46.61H96.4297V49.76C96.4297 50.5253 96.2524 51.09 95.8977 51.454C95.5524 51.818 95.0157 52 94.2877 52V50.978C94.5677 50.978 94.8057 50.8893 95.0017 50.712C95.2071 50.5347 95.3097 50.2173 95.3097 49.76V45.56H100.84ZM102.899 45.56H104.019V47.996H105.559C106.222 47.996 106.777 48.1593 107.225 48.486C107.683 48.8033 107.911 49.3073 107.911 49.998C107.911 50.6887 107.683 51.1973 107.225 51.524C106.777 51.8413 106.222 52 105.559 52H102.899V45.56ZM105.559 48.976H104.019V51.02H105.559C105.97 51.02 106.278 50.9313 106.483 50.754C106.689 50.5673 106.791 50.3153 106.791 49.998C106.791 49.6713 106.689 49.4193 106.483 49.242C106.278 49.0647 105.97 48.976 105.559 48.976ZM109.562 45.56H110.682V48.08H114.252V45.56H115.372V52H114.252V49.13H110.682V52H109.562V45.56ZM116.813 48.78C116.813 48.1267 116.958 47.548 117.247 47.044C117.546 46.54 117.947 46.1433 118.451 45.854C118.955 45.5647 119.52 45.42 120.145 45.42C120.78 45.42 121.344 45.5647 121.839 45.854C122.343 46.1433 122.74 46.54 123.029 47.044C123.328 47.548 123.477 48.1267 123.477 48.78C123.477 49.424 123.328 50.0027 123.029 50.516C122.74 51.02 122.343 51.4167 121.839 51.706C121.344 51.9953 120.78 52.14 120.145 52.14C119.52 52.14 118.955 51.9953 118.451 51.706C117.947 51.4167 117.546 51.02 117.247 50.516C116.958 50.0027 116.813 49.424 116.813 48.78ZM117.947 48.78C117.947 49.228 118.04 49.6247 118.227 49.97C118.423 50.3153 118.684 50.5907 119.011 50.796C119.347 50.992 119.725 51.09 120.145 51.09C120.565 51.09 120.938 50.992 121.265 50.796C121.601 50.5907 121.862 50.3153 122.049 49.97C122.245 49.6247 122.343 49.228 122.343 48.78C122.343 48.332 122.245 47.9353 122.049 47.59C121.862 47.2353 121.601 46.96 121.265 46.764C120.938 46.568 120.565 46.47 120.145 46.47C119.725 46.47 119.347 46.568 119.011 46.764C118.684 46.96 118.423 47.2353 118.227 47.59C118.04 47.9353 117.947 48.332 117.947 48.78ZM124.981 45.56H128.411V46.61H126.101V52H124.981V45.56ZM128.662 48.78C128.662 48.1267 128.806 47.548 129.096 47.044C129.394 46.54 129.796 46.1433 130.3 45.854C130.804 45.5647 131.368 45.42 131.994 45.42C132.628 45.42 133.193 45.5647 133.688 45.854C134.192 46.1433 134.588 46.54 134.878 47.044C135.176 47.548 135.326 48.1267 135.326 48.78C135.326 49.424 135.176 50.0027 134.878 50.516C134.588 51.02 134.192 51.4167 133.688 51.706C133.193 51.9953 132.628 52.14 131.994 52.14C131.368 52.14 130.804 51.9953 130.3 51.706C129.796 51.4167 129.394 51.02 129.096 50.516C128.806 50.0027 128.662 49.424 128.662 48.78ZM129.796 48.78C129.796 49.228 129.889 49.6247 130.076 49.97C130.272 50.3153 130.533 50.5907 130.86 50.796C131.196 50.992 131.574 51.09 131.994 51.09C132.414 51.09 132.787 50.992 133.114 50.796C133.45 50.5907 133.711 50.3153 133.898 49.97C134.094 49.6247 134.192 49.228 134.192 48.78C134.192 48.332 134.094 47.9353 133.898 47.59C133.711 47.2353 133.45 46.96 133.114 46.764C132.787 46.568 132.414 46.47 131.994 46.47C131.574 46.47 131.196 46.568 130.86 46.764C130.533 46.96 130.272 47.2353 130.076 47.59C129.889 47.9353 129.796 48.332 129.796 48.78ZM25.3 63.56V70H24.18V64.61H21.17V70H20.05V63.56H25.3ZM26.7405 66.78C26.7405 66.1267 26.8851 65.548 27.1745 65.044C27.4731 64.54 27.8745 64.1433 28.3785 63.854C28.8825 63.5647 29.4471 63.42 30.0725 63.42C30.7071 63.42 31.2718 63.5647 31.7665 63.854C32.2705 64.1433 32.6671 64.54 32.9565 65.044C33.2551 65.548 33.4045 66.1267 33.4045 66.78C33.4045 67.424 33.2551 68.0027 32.9565 68.516C32.6671 69.02 32.2705 69.4167 31.7665 69.706C31.2718 69.9953 30.7071 70.14 30.0725 70.14C29.4471 70.14 28.8825 69.9953 28.3785 69.706C27.8745 69.4167 27.4731 69.02 27.1745 68.516C26.8851 68.0027 26.7405 67.424 26.7405 66.78ZM27.8745 66.78C27.8745 67.228 27.9678 67.6247 28.1545 67.97C28.3505 68.3153 28.6118 68.5907 28.9385 68.796C29.2745 68.992 29.6525 69.09 30.0725 69.09C30.4925 69.09 30.8658 68.992 31.1925 68.796C31.5285 68.5907 31.7898 68.3153 31.9765 67.97C32.1725 67.6247 32.2705 67.228 32.2705 66.78C32.2705 66.332 32.1725 65.9353 31.9765 65.59C31.7898 65.2353 31.5285 64.96 31.1925 64.764C30.8658 64.568 30.4925 64.47 30.0725 64.47C29.6525 64.47 29.2745 64.568 28.9385 64.764C28.6118 64.96 28.3505 65.2353 28.1545 65.59C27.9678 65.9353 27.8745 66.332 27.8745 66.78ZM34.768 63.56H35.888V65.814L38.268 63.56H39.668L36.868 66.22L39.948 70H38.548L35.888 66.738V70H34.768V63.56ZM41.9491 73.08H40.8291V63.56H41.9491V64.666C42.1824 64.2647 42.4857 63.9567 42.8591 63.742C43.2417 63.5273 43.6711 63.42 44.1471 63.42C44.7351 63.42 45.2671 63.5553 45.7431 63.826C46.2284 64.0967 46.6157 64.484 46.9051 64.988C47.1944 65.4827 47.3391 66.08 47.3391 66.78C47.3391 67.4707 47.1944 68.068 46.9051 68.572C46.6157 69.076 46.2284 69.4633 45.7431 69.734C45.2671 70.0047 44.7351 70.14 44.1471 70.14C43.6711 70.14 43.2417 70.0327 42.8591 69.818C42.4857 69.6033 42.1824 69.2953 41.9491 68.894V73.08ZM46.2051 66.78C46.2051 66.2853 46.1024 65.8653 45.8971 65.52C45.7011 65.1747 45.4351 64.9133 45.0991 64.736C44.7724 64.5587 44.4084 64.47 44.0071 64.47C43.6804 64.47 43.3584 64.5587 43.0411 64.736C42.7237 64.9133 42.4624 65.1747 42.2571 65.52C42.0517 65.8653 41.9491 66.2853 41.9491 66.78C41.9491 67.2747 42.0517 67.6947 42.2571 68.04C42.4624 68.3853 42.7237 68.6467 43.0411 68.824C43.3584 69.0013 43.6804 69.09 44.0071 69.09C44.4084 69.09 44.7724 69.0013 45.0991 68.824C45.4351 68.6467 45.7011 68.3853 45.8971 68.04C46.1024 67.6947 46.2051 67.2747 46.2051 66.78ZM54.5884 63.56H55.7084V70H54.5884V63.56ZM48.7784 63.56H49.8984V65.996H51.4384C52.1011 65.996 52.6564 66.1593 53.1044 66.486C53.5618 66.8033 53.7904 67.3073 53.7904 67.998C53.7904 68.6887 53.5618 69.1973 53.1044 69.524C52.6564 69.8413 52.1011 70 51.4384 70H48.7784V63.56ZM51.4384 66.976H49.8984V69.02H51.4384C51.8491 69.02 52.1571 68.9313 52.3624 68.754C52.5678 68.5673 52.6704 68.3153 52.6704 67.998C52.6704 67.6713 52.5678 67.4193 52.3624 67.242C52.1571 67.0647 51.8491 66.976 51.4384 66.976ZM56.7169 63.56H60.4969V64.61H59.1669V70H58.0469V64.61H56.7169V63.56ZM62.7057 63.56V67.732L66.9757 63.07V70H65.8557V65.828L61.5857 70.49V63.56H62.7057ZM69.9636 70H68.7316L70.6076 67.354C70.1409 67.2607 69.7629 67.0647 69.4736 66.766C69.1843 66.4673 69.0396 66.0427 69.0396 65.492C69.0396 65.0253 69.1423 64.652 69.3476 64.372C69.5529 64.092 69.8329 63.8867 70.1876 63.756C70.5516 63.6253 70.9529 63.56 71.3916 63.56H74.0516V70H72.9316V67.424H71.7836L69.9636 70ZM71.3916 66.444H72.9316V64.54H71.3916C70.5703 64.54 70.1596 64.8573 70.1596 65.492C70.1596 66.1267 70.5703 66.444 71.3916 66.444Z" fill="white"/>
<defs>
<filter id="filter0_d" x="0" y="0" width="210" height="103" filterUnits="userSpaceOnUse" color-interpolation-filters="sRGB">
<feFlood flood-opacity="0" result="BackgroundImageFix"/>
<feColorMatrix in="SourceAlpha" type="matrix" values="0 0 0 0 0 0 0 0 0 0 0 0 0 0 0 0 0 0 127 0"/>
<feOffset dx="12" dy="4"/>
<feGaussianBlur stdDeviation="12"/>
<feColorMatrix type="matrix" values="0 0 0 0 0 0 0 0 0 0 0 0 0 0 0 0 0 0 0.25 0"/>
<feBlend mode="normal" in2="BackgroundImageFix" result="effect1_dropShadow"/>
<feBlend mode="normal" in="SourceGraphic" in2="effect1_dropShadow" result="shape"/>
</filter>
</defs>
</svg>
