<svg width="314" height="130" viewBox="0 0 314 130" fill="none" xmlns="http://www.w3.org/2000/svg">
<path fill-rule="evenodd" clip-rule="evenodd" d="M91.1389 12.0687L157.335 71.6274L156.666 72.3708L90.617 12.9442L14.1668 14.4667L14.2424 18.2613L7.53456 22.1003L0.245172 18.54L0.0719892 9.84375L7.21599 6.10345L14.0799 10.1018L14.1469 13.4669L90.7946 11.9404L90.9921 11.9365L91.1389 12.0687Z" fill="#FEC901"/>
<g filter="url(#filter0_d)">
<path d="M146 61.0002H263.407L278 81.9102L263.407 102H146V61.0002Z" fill="#161616"/>
</g>
<path d="M152.82 72.1002C152.82 72.8562 152.988 73.5236 153.324 74.1022C153.67 74.6809 154.118 75.1336 154.668 75.4602C155.219 75.7869 155.816 75.9502 156.46 75.9502C157.151 75.9502 157.762 75.8149 158.294 75.5442C158.826 75.2736 159.265 74.9236 159.61 74.4942V76.0622C159.2 76.4262 158.752 76.6969 158.266 76.8742C157.781 77.0516 157.179 77.1402 156.46 77.1402C155.779 77.1402 155.14 77.0189 154.542 76.7762C153.954 76.5242 153.436 76.1742 152.988 75.7262C152.54 75.2689 152.19 74.7322 151.938 74.1162C151.686 73.5002 151.56 72.8282 151.56 72.1002C151.56 71.3722 151.686 70.7002 151.938 70.0842C152.19 69.4682 152.54 68.9362 152.988 68.4882C153.436 68.0309 153.954 67.6809 154.542 67.4382C155.14 67.1862 155.779 67.0602 156.46 67.0602C157.179 67.0602 157.781 67.1489 158.266 67.3262C158.752 67.5036 159.2 67.7742 159.61 68.1382V69.7062C159.265 69.2676 158.826 68.9176 158.294 68.6562C157.762 68.3856 157.151 68.2502 156.46 68.2502C155.816 68.2502 155.219 68.4136 154.668 68.7402C154.118 69.0669 153.67 69.5196 153.324 70.0982C152.988 70.6676 152.82 71.3349 152.82 72.1002ZM166.639 70.5602L162.439 80.0802H161.179L162.943 76.0902L160.479 70.5602H161.809L163.615 74.9982L165.379 70.5602H166.639ZM171.444 70.5602H172.704L170.506 73.6822L172.844 77.0002H171.584L169.904 74.5642L168.224 77.0002H166.964L169.302 73.6822L167.104 70.5602H168.364L169.904 72.8002L171.444 70.5602ZM174.292 72.0722L173.746 71.2182C173.989 71.0409 174.315 70.8636 174.726 70.6862C175.137 70.5089 175.631 70.4202 176.21 70.4202C176.947 70.4202 177.545 70.5929 178.002 70.9382C178.459 71.2742 178.688 71.7549 178.688 72.3802V77.0002H177.568V76.0762C177.372 76.4216 177.078 76.6876 176.686 76.8742C176.294 77.0516 175.855 77.1402 175.37 77.1402C174.969 77.1402 174.6 77.0656 174.264 76.9162C173.928 76.7669 173.657 76.5476 173.452 76.2582C173.256 75.9596 173.158 75.5909 173.158 75.1522C173.158 74.4709 173.401 73.9436 173.886 73.5702C174.381 73.1876 175.053 72.9962 175.902 72.9962C176.275 72.9962 176.602 73.0429 176.882 73.1362C177.162 73.2296 177.391 73.3369 177.568 73.4582V72.3802C177.568 72.0536 177.428 71.8109 177.148 71.6522C176.877 71.4842 176.565 71.4002 176.21 71.4002C175.753 71.4002 175.356 71.4842 175.02 71.6522C174.693 71.8202 174.451 71.9602 174.292 72.0722ZM174.292 75.1102C174.292 75.4556 174.423 75.7169 174.684 75.8942C174.955 76.0622 175.277 76.1462 175.65 76.1462C176.21 76.1462 176.667 76.0202 177.022 75.7682C177.386 75.5069 177.568 75.0776 177.568 74.4802V74.2282C177.092 73.9762 176.555 73.8502 175.958 73.8502C175.389 73.8502 174.969 73.9622 174.698 74.1862C174.427 74.4102 174.292 74.7182 174.292 75.1102ZM181.402 77.0002H180.17L182.046 74.3542C181.579 74.2609 181.201 74.0649 180.912 73.7662C180.623 73.4676 180.478 73.0429 180.478 72.4922C180.478 72.0256 180.581 71.6522 180.786 71.3722C180.991 71.0922 181.271 70.8869 181.626 70.7562C181.99 70.6256 182.391 70.5602 182.83 70.5602H185.49V77.0002H184.37V74.4242H183.222L181.402 77.0002ZM182.83 73.4442H184.37V71.5402H182.83C182.009 71.5402 181.598 71.8576 181.598 72.4922C181.598 73.1269 182.009 73.4442 182.83 73.4442ZM192.423 70.5602V74.7322L196.693 70.0702V77.0002H195.573V72.8282L191.303 77.4902V70.5602H192.423ZM202.849 70.5602H205.229C205.63 70.5602 205.994 70.6209 206.321 70.7422C206.657 70.8542 206.928 71.0409 207.133 71.3022C207.338 71.5542 207.441 71.8902 207.441 72.3102C207.441 72.6742 207.343 72.9729 207.147 73.2062C206.951 73.4396 206.694 73.6169 206.377 73.7382C206.778 73.8222 207.1 73.9809 207.343 74.2142C207.595 74.4476 207.721 74.7929 207.721 75.2502C207.721 75.7356 207.558 76.1509 207.231 76.4962C206.914 76.8322 206.386 77.0002 205.649 77.0002H202.849V70.5602ZM205.229 71.5402H203.969V73.2622H205.229C205.565 73.2622 205.831 73.1782 206.027 73.0102C206.223 72.8422 206.321 72.6322 206.321 72.3802C206.321 72.1282 206.223 71.9276 206.027 71.7782C205.831 71.6196 205.565 71.5402 205.229 71.5402ZM205.369 74.2282H203.969V76.0202H205.369C205.789 76.0202 206.097 75.9316 206.293 75.7542C206.498 75.5769 206.601 75.3622 206.601 75.1102C206.601 74.8582 206.498 74.6482 206.293 74.4802C206.097 74.3122 205.789 74.2282 205.369 74.2282ZM214.73 70.5602V77.0002H213.61V71.6102H210.32V74.7602C210.32 75.5256 210.142 76.0902 209.788 76.4542C209.442 76.8182 208.906 77.0002 208.178 77.0002V75.9782C208.458 75.9782 208.696 75.8896 208.892 75.7122C209.097 75.5349 209.2 75.2176 209.2 74.7602V70.5602H214.73ZM217.293 72.0722L216.747 71.2182C216.99 71.0409 217.317 70.8636 217.727 70.6862C218.138 70.5089 218.633 70.4202 219.211 70.4202C219.949 70.4202 220.546 70.5929 221.003 70.9382C221.461 71.2742 221.689 71.7549 221.689 72.3802V77.0002H220.569V76.0762C220.373 76.4216 220.079 76.6876 219.687 76.8742C219.295 77.0516 218.857 77.1402 218.371 77.1402C217.97 77.1402 217.601 77.0656 217.265 76.9162C216.929 76.7669 216.659 76.5476 216.453 76.2582C216.257 75.9596 216.159 75.5909 216.159 75.1522C216.159 74.4709 216.402 73.9436 216.887 73.5702C217.382 73.1876 218.054 72.9962 218.903 72.9962C219.277 72.9962 219.603 73.0429 219.883 73.1362C220.163 73.2296 220.392 73.3369 220.569 73.4582V72.3802C220.569 72.0536 220.429 71.8109 220.149 71.6522C219.879 71.4842 219.566 71.4002 219.211 71.4002C218.754 71.4002 218.357 71.4842 218.021 71.6522C217.695 71.8202 217.452 71.9602 217.293 72.0722ZM217.293 75.1102C217.293 75.4556 217.424 75.7169 217.685 75.8942C217.956 76.0622 218.278 76.1462 218.651 76.1462C219.211 76.1462 219.669 76.0202 220.023 75.7682C220.387 75.5069 220.569 75.0776 220.569 74.4802V74.2282C220.093 73.9762 219.557 73.8502 218.959 73.8502C218.39 73.8502 217.97 73.9622 217.699 74.1862C217.429 74.4102 217.293 74.7182 217.293 75.1102ZM224.109 70.5602L226.629 72.9542V70.5602H227.679V72.9542L230.199 70.5602H231.599L228.659 73.3602L231.879 77.0002H230.479L227.679 73.5702V77.0002H226.629V73.5702L223.829 77.0002H222.429L225.649 73.3602L222.709 70.5602H224.109ZM232.821 70.5602H233.941V73.0802H237.511V70.5602H238.631V77.0002H237.511V74.1302H233.941V77.0002H232.821V70.5602ZM241.137 72.0722L240.591 71.2182C240.833 71.0409 241.16 70.8636 241.571 70.6862C241.981 70.5089 242.476 70.4202 243.055 70.4202C243.792 70.4202 244.389 70.5929 244.847 70.9382C245.304 71.2742 245.533 71.7549 245.533 72.3802V77.0002H244.413V76.0762C244.217 76.4216 243.923 76.6876 243.531 76.8742C243.139 77.0516 242.7 77.1402 242.215 77.1402C241.813 77.1402 241.445 77.0656 241.109 76.9162C240.773 76.7669 240.502 76.5476 240.297 76.2582C240.101 75.9596 240.003 75.5909 240.003 75.1522C240.003 74.4709 240.245 73.9436 240.731 73.5702C241.225 73.1876 241.897 72.9962 242.747 72.9962C243.12 72.9962 243.447 73.0429 243.727 73.1362C244.007 73.2296 244.235 73.3369 244.413 73.4582V72.3802C244.413 72.0536 244.273 71.8109 243.993 71.6522C243.722 71.4842 243.409 71.4002 243.055 71.4002C242.597 71.4002 242.201 71.4842 241.865 71.6522C241.538 71.8202 241.295 71.9602 241.137 72.0722ZM241.137 75.1102C241.137 75.4556 241.267 75.7169 241.529 75.8942C241.799 76.0622 242.121 76.1462 242.495 76.1462C243.055 76.1462 243.512 76.0202 243.867 75.7682C244.231 75.5069 244.413 75.0776 244.413 74.4802V74.2282C243.937 73.9762 243.4 73.8502 242.803 73.8502C242.233 73.8502 241.813 73.9622 241.543 74.1862C241.272 74.4102 241.137 74.7182 241.137 75.1102ZM248.246 77.0002H247.014L248.89 74.3542C248.424 74.2609 248.046 74.0649 247.756 73.7662C247.467 73.4676 247.322 73.0429 247.322 72.4922C247.322 72.0256 247.425 71.6522 247.63 71.3722C247.836 71.0922 248.116 70.8869 248.47 70.7562C248.834 70.6256 249.236 70.5602 249.674 70.5602H252.334V77.0002H251.214V74.4242H250.066L248.246 77.0002ZM249.674 73.4442H251.214V71.5402H249.674C248.853 71.5402 248.442 71.8576 248.442 72.4922C248.442 73.1269 248.853 73.4442 249.674 73.4442ZM152.82 88.5602V90.4082C152.82 90.9682 152.918 91.3742 153.114 91.6262C153.32 91.8689 153.688 91.9902 154.22 91.9902H155.62V88.5602H156.74V95.0002H155.62V93.0402H154.22C153.576 93.0402 153.068 92.9516 152.694 92.7742C152.33 92.5969 152.074 92.3169 151.924 91.9342C151.775 91.5422 151.7 91.0336 151.7 90.4082V88.5602H152.82ZM159.93 88.5602V92.7322L164.2 88.0702V95.0002H163.08V90.8282L158.81 95.4902V88.5602H159.93ZM166.768 91.7802C166.768 92.2282 166.861 92.6249 167.048 92.9702C167.244 93.3156 167.505 93.5909 167.832 93.7962C168.168 93.9922 168.546 94.0902 168.966 94.0902C169.489 94.0902 169.955 93.9736 170.366 93.7402C170.777 93.5069 171.057 93.2316 171.206 92.9142V94.3142C170.982 94.5756 170.66 94.7809 170.24 94.9302C169.829 95.0702 169.405 95.1402 168.966 95.1402C168.341 95.1402 167.776 94.9956 167.272 94.7062C166.768 94.4169 166.367 94.0202 166.068 93.5162C165.779 93.0029 165.634 92.4242 165.634 91.7802C165.634 91.1269 165.779 90.5482 166.068 90.0442C166.367 89.5402 166.768 89.1436 167.272 88.8542C167.776 88.5649 168.341 88.4202 168.966 88.4202C169.405 88.4202 169.829 88.4949 170.24 88.6442C170.66 88.7842 170.982 88.9849 171.206 89.2462V90.6462C171.057 90.3289 170.777 90.0536 170.366 89.8202C169.955 89.5869 169.489 89.4702 168.966 89.4702C168.546 89.4702 168.168 89.5682 167.832 89.7642C167.505 89.9602 167.244 90.2356 167.048 90.5902C166.861 90.9356 166.768 91.3322 166.768 91.7802ZM171.865 88.5602H175.645V89.6102H174.315V95.0002H173.195V89.6102H171.865V88.5602ZM176.593 88.5602H177.713V90.8142L180.093 88.5602H181.493L178.693 91.2202L181.773 95.0002H180.373L177.713 91.7382V95.0002H176.593V88.5602ZM183.228 90.0722L182.682 89.2182C182.925 89.0409 183.252 88.8636 183.662 88.6862C184.073 88.5089 184.568 88.4202 185.146 88.4202C185.884 88.4202 186.481 88.5929 186.938 88.9382C187.396 89.2742 187.624 89.7549 187.624 90.3802V95.0002H186.504V94.0762C186.308 94.4216 186.014 94.6876 185.622 94.8742C185.23 95.0516 184.792 95.1402 184.306 95.1402C183.905 95.1402 183.536 95.0656 183.2 94.9162C182.864 94.7669 182.594 94.5476 182.388 94.2582C182.192 93.9596 182.094 93.5909 182.094 93.1522C182.094 92.4709 182.337 91.9436 182.822 91.5702C183.317 91.1876 183.989 90.9962 184.838 90.9962C185.212 90.9962 185.538 91.0429 185.818 91.1362C186.098 91.2296 186.327 91.3369 186.504 91.4582V90.3802C186.504 90.0536 186.364 89.8109 186.084 89.6522C185.814 89.4842 185.501 89.4002 185.146 89.4002C184.689 89.4002 184.292 89.4842 183.956 89.6522C183.63 89.8202 183.387 89.9602 183.228 90.0722ZM183.228 93.1102C183.228 93.4556 183.359 93.7169 183.62 93.8942C183.891 94.0622 184.213 94.1462 184.586 94.1462C185.146 94.1462 185.604 94.0202 185.958 93.7682C186.322 93.5069 186.504 93.0776 186.504 92.4802V92.2282C186.028 91.9762 185.492 91.8502 184.894 91.8502C184.325 91.8502 183.905 91.9622 183.634 92.1862C183.364 92.4102 183.228 92.7182 183.228 93.1102ZM194.011 91.7802C194.011 92.2282 194.104 92.6249 194.291 92.9702C194.487 93.3156 194.748 93.5909 195.075 93.7962C195.411 93.9922 195.789 94.0902 196.209 94.0902C196.731 94.0902 197.198 93.9736 197.609 93.7402C198.019 93.5069 198.299 93.2316 198.449 92.9142V94.3142C198.225 94.5756 197.903 94.7809 197.483 94.9302C197.072 95.0702 196.647 95.1402 196.209 95.1402C195.583 95.1402 195.019 94.9956 194.515 94.7062C194.011 94.4169 193.609 94.0202 193.311 93.5162C193.021 93.0029 192.877 92.4242 192.877 91.7802C192.877 91.1269 193.021 90.5482 193.311 90.0442C193.609 89.5402 194.011 89.1436 194.515 88.8542C195.019 88.5649 195.583 88.4202 196.209 88.4202C196.647 88.4202 197.072 88.4949 197.483 88.6442C197.903 88.7842 198.225 88.9849 198.449 89.2462V90.6462C198.299 90.3289 198.019 90.0536 197.609 89.8202C197.198 89.5869 196.731 89.4702 196.209 89.4702C195.789 89.4702 195.411 89.5682 195.075 89.7642C194.748 89.9602 194.487 90.2356 194.291 90.5902C194.104 90.9356 194.011 91.3322 194.011 91.7802ZM199.107 88.5602H202.887V89.6102H201.557V95.0002H200.437V89.6102H199.107V88.5602ZM209.259 93.5022C209.044 93.8289 208.806 94.1182 208.545 94.3702C208.284 94.6129 207.966 94.8042 207.593 94.9442C207.22 95.0749 206.753 95.1402 206.193 95.1402C205.614 95.1402 205.092 94.9956 204.625 94.7062C204.168 94.4169 203.804 94.0202 203.533 93.5162C203.272 93.0029 203.141 92.4242 203.141 91.7802C203.141 91.6589 203.146 91.5422 203.155 91.4302C203.164 91.3182 203.178 91.2062 203.197 91.0942C203.29 90.5622 203.477 90.0956 203.757 89.6942C204.037 89.2929 204.396 88.9802 204.835 88.7562C205.283 88.5322 205.782 88.4202 206.333 88.4202C206.94 88.4202 207.472 88.5556 207.929 88.8262C208.386 89.0969 208.741 89.4796 208.993 89.9742C209.245 90.4596 209.371 91.0429 209.371 91.7242C209.371 91.7802 209.371 91.8362 209.371 91.8922C209.371 91.9482 209.366 92.0042 209.357 92.0602H204.289C204.336 92.7136 204.541 93.2176 204.905 93.5722C205.269 93.9176 205.745 94.0902 206.333 94.0902C206.8 94.0902 207.196 93.9829 207.523 93.7682C207.859 93.5536 208.134 93.2736 208.349 92.9282L209.259 93.5022ZM206.333 89.4002C205.81 89.4002 205.358 89.5542 204.975 89.8622C204.592 90.1609 204.373 90.5762 204.317 91.1082H208.153C208.097 90.6042 207.92 90.1936 207.621 89.8762C207.322 89.5589 206.893 89.4002 206.333 89.4002ZM210.801 88.5602H211.921V91.0802H215.491V88.5602H216.611V95.0002H215.491V92.1302H211.921V95.0002H210.801V88.5602Z" fill="white"/>
<defs>
<filter id="filter0_d" x="134" y="41.0002" width="180" height="89" filterUnits="userSpaceOnUse" color-interpolation-filters="sRGB">
<feFlood flood-opacity="0" result="BackgroundImageFix"/>
<feColorMatrix in="SourceAlpha" type="matrix" values="0 0 0 0 0 0 0 0 0 0 0 0 0 0 0 0 0 0 127 0"/>
<feOffset dx="12" dy="4"/>
<feGaussianBlur stdDeviation="12"/>
<feColorMatrix type="matrix" values="0 0 0 0 0 0 0 0 0 0 0 0 0 0 0 0 0 0 0.25 0"/>
<feBlend mode="normal" in2="BackgroundImageFix" result="effect1_dropShadow"/>
<feBlend mode="normal" in="SourceGraphic" in2="effect1_dropShadow" result="shape"/>
</filter>
</defs>
</svg>
