<svg width="210" height="169" viewBox="0 0 210 169" fill="none" xmlns="http://www.w3.org/2000/svg">
<path fill-rule="evenodd" clip-rule="evenodd" d="M191.268 95.1308L113.268 45.5779L112.732 46.422L190.5 95.8276V154H191.5V95.5529V95.2781L191.268 95.1308ZM187.058 154.353H195.219L199.354 161.136L195.756 168.353H187.058L183.354 161.136L187.058 154.353Z" fill="#FEC901"/>
<g filter="url(#filter0_d)">
<path d="M12 20H156.09L174 41.93L156.09 63H12V20Z" fill="#161616"/>
</g>
<path d="M23.02 27.2H24.42L21.522 31.862L24.63 37H23.23L20.92 32.898L18.54 37H17.14L20.332 31.862L17.49 27.2H18.89L20.934 30.826L23.02 27.2ZM26.9006 30.56V34.732L31.1706 30.07V37H30.0506V32.828L25.7806 37.49V30.56H26.9006ZM32.2545 37L33.9345 30.07L36.4125 35.18L38.9325 30.07L40.6125 37H39.3525L38.5825 33.248L36.4125 37.434L34.2845 33.262L33.5145 37H32.2545ZM42.4034 30.56V32.408C42.4034 32.968 42.5014 33.374 42.6974 33.626C42.9028 33.8687 43.2714 33.99 43.8034 33.99H45.2034V30.56H46.3234V37H45.2034V35.04H43.8034C43.1594 35.04 42.6508 34.9513 42.2774 34.774C41.9134 34.5967 41.6568 34.3167 41.5074 33.934C41.3581 33.542 41.2834 33.0333 41.2834 32.408V30.56H42.4034ZM49.5134 30.56V34.732L53.7834 30.07V37H52.6634V32.828L48.3934 37.49V30.56H49.5134ZM56.3513 33.78C56.3513 34.228 56.4446 34.6247 56.6313 34.97C56.8273 35.3153 57.0886 35.5907 57.4153 35.796C57.7513 35.992 58.1293 36.09 58.5493 36.09C59.0719 36.09 59.5386 35.9733 59.9493 35.74C60.3599 35.5067 60.6399 35.2313 60.7893 34.914V36.314C60.5653 36.5753 60.2433 36.7807 59.8233 36.93C59.4126 37.07 58.9879 37.14 58.5493 37.14C57.9239 37.14 57.3593 36.9953 56.8553 36.706C56.3513 36.4167 55.9499 36.02 55.6513 35.516C55.3619 35.0027 55.2173 34.424 55.2173 33.78C55.2173 33.1267 55.3619 32.548 55.6513 32.044C55.9499 31.54 56.3513 31.1433 56.8553 30.854C57.3593 30.5647 57.9239 30.42 58.5493 30.42C58.9879 30.42 59.4126 30.4947 59.8233 30.644C60.2433 30.784 60.5653 30.9847 60.7893 31.246V32.646C60.6399 32.3287 60.3599 32.0533 59.9493 31.82C59.5386 31.5867 59.0719 31.47 58.5493 31.47C58.1293 31.47 57.7513 31.568 57.4153 31.764C57.0886 31.96 56.8273 32.2353 56.6313 32.59C56.4446 32.9353 56.3513 33.332 56.3513 33.78ZM61.4478 30.56H65.2278V31.61H63.8978V37H62.7778V31.61H61.4478V30.56ZM66.1766 30.56H67.2966V32.814L69.6766 30.56H71.0766L68.2766 33.22L71.3566 37H69.9566L67.2966 33.738V37H66.1766V30.56ZM72.8117 32.072L72.2657 31.218C72.5083 31.0407 72.835 30.8633 73.2457 30.686C73.6563 30.5087 74.151 30.42 74.7297 30.42C75.467 30.42 76.0643 30.5927 76.5217 30.938C76.979 31.274 77.2077 31.7547 77.2077 32.38V37H76.0877V36.076C75.8917 36.4213 75.5977 36.6873 75.2057 36.874C74.8137 37.0513 74.375 37.14 73.8897 37.14C73.4883 37.14 73.1197 37.0653 72.7837 36.916C72.4477 36.7667 72.177 36.5473 71.9717 36.258C71.7757 35.9593 71.6777 35.5907 71.6777 35.152C71.6777 34.4707 71.9203 33.9433 72.4057 33.57C72.9003 33.1873 73.5723 32.996 74.4217 32.996C74.795 32.996 75.1217 33.0427 75.4017 33.136C75.6817 33.2293 75.9103 33.3367 76.0877 33.458V32.38C76.0877 32.0533 75.9477 31.8107 75.6677 31.652C75.397 31.484 75.0843 31.4 74.7297 31.4C74.2723 31.4 73.8757 31.484 73.5397 31.652C73.213 31.82 72.9703 31.96 72.8117 32.072ZM72.8117 35.11C72.8117 35.4553 72.9423 35.7167 73.2037 35.894C73.4743 36.062 73.7963 36.146 74.1697 36.146C74.7297 36.146 75.187 36.02 75.5417 35.768C75.9057 35.5067 76.0877 35.0773 76.0877 34.48V34.228C75.6117 33.976 75.075 33.85 74.4777 33.85C73.9083 33.85 73.4883 33.962 73.2177 34.186C72.947 34.41 72.8117 34.718 72.8117 35.11ZM83.0198 30.56H84.1398V32.814L86.5198 30.56H87.9198L85.1198 33.22L88.1998 37H86.7998L84.1398 33.738V37H83.0198V30.56ZM88.3858 33.78C88.3858 33.1267 88.5304 32.548 88.8198 32.044C89.1184 31.54 89.5198 31.1433 90.0238 30.854C90.5278 30.5647 91.0924 30.42 91.7178 30.42C92.3524 30.42 92.9171 30.5647 93.4118 30.854C93.9158 31.1433 94.3124 31.54 94.6018 32.044C94.9004 32.548 95.0498 33.1267 95.0498 33.78C95.0498 34.424 94.9004 35.0027 94.6018 35.516C94.3124 36.02 93.9158 36.4167 93.4118 36.706C92.9171 36.9953 92.3524 37.14 91.7178 37.14C91.0924 37.14 90.5278 36.9953 90.0238 36.706C89.5198 36.4167 89.1184 36.02 88.8198 35.516C88.5304 35.0027 88.3858 34.424 88.3858 33.78ZM89.5198 33.78C89.5198 34.228 89.6131 34.6247 89.7998 34.97C89.9958 35.3153 90.2571 35.5907 90.5838 35.796C90.9198 35.992 91.2978 36.09 91.7178 36.09C92.1378 36.09 92.5111 35.992 92.8378 35.796C93.1738 35.5907 93.4351 35.3153 93.6218 34.97C93.8178 34.6247 93.9158 34.228 93.9158 33.78C93.9158 33.332 93.8178 32.9353 93.6218 32.59C93.4351 32.2353 93.1738 31.96 92.8378 31.764C92.5111 31.568 92.1378 31.47 91.7178 31.47C91.2978 31.47 90.9198 31.568 90.5838 31.764C90.2571 31.96 89.9958 32.2353 89.7998 32.59C89.6131 32.9353 89.5198 33.332 89.5198 33.78ZM96.4834 30.56H98.8634C99.2647 30.56 99.6287 30.6207 99.9554 30.742C100.291 30.854 100.562 31.0407 100.767 31.302C100.973 31.554 101.075 31.89 101.075 32.31C101.075 32.674 100.977 32.9727 100.781 33.206C100.585 33.4393 100.329 33.6167 100.011 33.738C100.413 33.822 100.735 33.9807 100.977 34.214C101.229 34.4473 101.355 34.7927 101.355 35.25C101.355 35.7353 101.192 36.1507 100.865 36.496C100.548 36.832 100.021 37 99.2834 37H96.4834V30.56ZM98.8634 31.54H97.6034V33.262H98.8634C99.1994 33.262 99.4654 33.178 99.6614 33.01C99.8574 32.842 99.9554 32.632 99.9554 32.38C99.9554 32.128 99.8574 31.9273 99.6614 31.778C99.4654 31.6193 99.1994 31.54 98.8634 31.54ZM99.0034 34.228H97.6034V36.02H99.0034C99.4234 36.02 99.7314 35.9313 99.9274 35.754C100.133 35.5767 100.235 35.362 100.235 35.11C100.235 34.858 100.133 34.648 99.9274 34.48C99.7314 34.312 99.4234 34.228 99.0034 34.228ZM103.772 40.08H102.652V30.56H103.772V31.666C104.005 31.2647 104.309 30.9567 104.682 30.742C105.065 30.5273 105.494 30.42 105.97 30.42C106.558 30.42 107.09 30.5553 107.566 30.826C108.051 31.0967 108.439 31.484 108.728 31.988C109.017 32.4827 109.162 33.08 109.162 33.78C109.162 34.4707 109.017 35.068 108.728 35.572C108.439 36.076 108.051 36.4633 107.566 36.734C107.09 37.0047 106.558 37.14 105.97 37.14C105.494 37.14 105.065 37.0327 104.682 36.818C104.309 36.6033 104.005 36.2953 103.772 35.894V40.08ZM108.028 33.78C108.028 33.2853 107.925 32.8653 107.72 32.52C107.524 32.1747 107.258 31.9133 106.922 31.736C106.595 31.5587 106.231 31.47 105.83 31.47C105.503 31.47 105.181 31.5587 104.864 31.736C104.547 31.9133 104.285 32.1747 104.08 32.52C103.875 32.8653 103.772 33.2853 103.772 33.78C103.772 34.2747 103.875 34.6947 104.08 35.04C104.285 35.3853 104.547 35.6467 104.864 35.824C105.181 36.0013 105.503 36.09 105.83 36.09C106.231 36.09 106.595 36.0013 106.922 35.824C107.258 35.6467 107.524 35.3853 107.72 35.04C107.925 34.6947 108.028 34.2747 108.028 33.78ZM110.041 33.78C110.041 33.1267 110.186 32.548 110.475 32.044C110.774 31.54 111.175 31.1433 111.679 30.854C112.183 30.5647 112.748 30.42 113.373 30.42C114.008 30.42 114.573 30.5647 115.067 30.854C115.571 31.1433 115.968 31.54 116.257 32.044C116.556 32.548 116.705 33.1267 116.705 33.78C116.705 34.424 116.556 35.0027 116.257 35.516C115.968 36.02 115.571 36.4167 115.067 36.706C114.573 36.9953 114.008 37.14 113.373 37.14C112.748 37.14 112.183 36.9953 111.679 36.706C111.175 36.4167 110.774 36.02 110.475 35.516C110.186 35.0027 110.041 34.424 110.041 33.78ZM111.175 33.78C111.175 34.228 111.269 34.6247 111.455 34.97C111.651 35.3153 111.913 35.5907 112.239 35.796C112.575 35.992 112.953 36.09 113.373 36.09C113.793 36.09 114.167 35.992 114.493 35.796C114.829 35.5907 115.091 35.3153 115.277 34.97C115.473 34.6247 115.571 34.228 115.571 33.78C115.571 33.332 115.473 32.9353 115.277 32.59C115.091 32.2353 114.829 31.96 114.493 31.764C114.167 31.568 113.793 31.47 113.373 31.47C112.953 31.47 112.575 31.568 112.239 31.764C111.913 31.96 111.651 32.2353 111.455 32.59C111.269 32.9353 111.175 33.332 111.175 33.78ZM118.139 30.56H120.519C120.92 30.56 121.284 30.6207 121.611 30.742C121.947 30.854 122.218 31.0407 122.423 31.302C122.628 31.554 122.731 31.89 122.731 32.31C122.731 32.674 122.633 32.9727 122.437 33.206C122.241 33.4393 121.984 33.6167 121.667 33.738C122.068 33.822 122.39 33.9807 122.633 34.214C122.885 34.4473 123.011 34.7927 123.011 35.25C123.011 35.7353 122.848 36.1507 122.521 36.496C122.204 36.832 121.676 37 120.939 37H118.139V30.56ZM120.519 31.54H119.259V33.262H120.519C120.855 33.262 121.121 33.178 121.317 33.01C121.513 32.842 121.611 32.632 121.611 32.38C121.611 32.128 121.513 31.9273 121.317 31.778C121.121 31.6193 120.855 31.54 120.519 31.54ZM120.659 34.228H119.259V36.02H120.659C121.079 36.02 121.387 35.9313 121.583 35.754C121.788 35.5767 121.891 35.362 121.891 35.11C121.891 34.858 121.788 34.648 121.583 34.48C121.387 34.312 121.079 34.228 120.659 34.228ZM130.188 30.56H131.308V37H130.188V30.56ZM124.378 30.56H125.498V32.996H127.038C127.7 32.996 128.256 33.1593 128.704 33.486C129.161 33.8033 129.39 34.3073 129.39 34.998C129.39 35.6887 129.161 36.1973 128.704 36.524C128.256 36.8413 127.7 37 127.038 37H124.378V30.56ZM127.038 33.976H125.498V36.02H127.038C127.448 36.02 127.756 35.9313 127.962 35.754C128.167 35.5673 128.27 35.3153 128.27 34.998C128.27 34.6713 128.167 34.4193 127.962 34.242C127.756 34.0647 127.448 33.976 127.038 33.976ZM136.726 30.56H137.986L135.788 33.682L138.126 37H136.866L135.186 34.564L133.506 37H132.246L134.584 33.682L132.386 30.56H133.646L135.186 32.8L136.726 30.56ZM23.3 48.56V55H22.18V49.61H19.17V55H18.05V48.56H23.3ZM24.7405 51.78C24.7405 51.1267 24.8851 50.548 25.1745 50.044C25.4731 49.54 25.8745 49.1433 26.3785 48.854C26.8825 48.5647 27.4471 48.42 28.0725 48.42C28.7071 48.42 29.2718 48.5647 29.7665 48.854C30.2705 49.1433 30.6671 49.54 30.9565 50.044C31.2551 50.548 31.4045 51.1267 31.4045 51.78C31.4045 52.424 31.2551 53.0027 30.9565 53.516C30.6671 54.02 30.2705 54.4167 29.7665 54.706C29.2718 54.9953 28.7071 55.14 28.0725 55.14C27.4471 55.14 26.8825 54.9953 26.3785 54.706C25.8745 54.4167 25.4731 54.02 25.1745 53.516C24.8851 53.0027 24.7405 52.424 24.7405 51.78ZM25.8745 51.78C25.8745 52.228 25.9678 52.6247 26.1545 52.97C26.3505 53.3153 26.6118 53.5907 26.9385 53.796C27.2745 53.992 27.6525 54.09 28.0725 54.09C28.4925 54.09 28.8658 53.992 29.1925 53.796C29.5285 53.5907 29.7898 53.3153 29.9765 52.97C30.1725 52.6247 30.2705 52.228 30.2705 51.78C30.2705 51.332 30.1725 50.9353 29.9765 50.59C29.7898 50.2353 29.5285 49.96 29.1925 49.764C28.8658 49.568 28.4925 49.47 28.0725 49.47C27.6525 49.47 27.2745 49.568 26.9385 49.764C26.6118 49.96 26.3505 50.2353 26.1545 50.59C25.9678 50.9353 25.8745 51.332 25.8745 51.78ZM32.768 48.56H33.888V50.814L36.268 48.56H37.668L34.868 51.22L37.948 55H36.548L33.888 51.738V55H32.768V48.56ZM39.9491 58.08H38.8291V48.56H39.9491V49.666C40.1824 49.2647 40.4857 48.9567 40.8591 48.742C41.2417 48.5273 41.6711 48.42 42.1471 48.42C42.7351 48.42 43.2671 48.5553 43.7431 48.826C44.2284 49.0967 44.6157 49.484 44.9051 49.988C45.1944 50.4827 45.3391 51.08 45.3391 51.78C45.3391 52.4707 45.1944 53.068 44.9051 53.572C44.6157 54.076 44.2284 54.4633 43.7431 54.734C43.2671 55.0047 42.7351 55.14 42.1471 55.14C41.6711 55.14 41.2417 55.0327 40.8591 54.818C40.4857 54.6033 40.1824 54.2953 39.9491 53.894V58.08ZM44.2051 51.78C44.2051 51.2853 44.1024 50.8653 43.8971 50.52C43.7011 50.1747 43.4351 49.9133 43.0991 49.736C42.7724 49.5587 42.4084 49.47 42.0071 49.47C41.6804 49.47 41.3584 49.5587 41.0411 49.736C40.7237 49.9133 40.4624 50.1747 40.2571 50.52C40.0517 50.8653 39.9491 51.2853 39.9491 51.78C39.9491 52.2747 40.0517 52.6947 40.2571 53.04C40.4624 53.3853 40.7237 53.6467 41.0411 53.824C41.3584 54.0013 41.6804 54.09 42.0071 54.09C42.4084 54.09 42.7724 54.0013 43.0991 53.824C43.4351 53.6467 43.7011 53.3853 43.8971 53.04C44.1024 52.6947 44.2051 52.2747 44.2051 51.78ZM52.5884 48.56H53.7084V55H52.5884V48.56ZM46.7784 48.56H47.8984V50.996H49.4384C50.1011 50.996 50.6564 51.1593 51.1044 51.486C51.5618 51.8033 51.7904 52.3073 51.7904 52.998C51.7904 53.6887 51.5618 54.1973 51.1044 54.524C50.6564 54.8413 50.1011 55 49.4384 55H46.7784V48.56ZM49.4384 51.976H47.8984V54.02H49.4384C49.8491 54.02 50.1571 53.9313 50.3624 53.754C50.5678 53.5673 50.6704 53.3153 50.6704 52.998C50.6704 52.6713 50.5678 52.4193 50.3624 52.242C50.1571 52.0647 49.8491 51.976 49.4384 51.976ZM54.7169 48.56H58.4969V49.61H57.1669V55H56.0469V49.61H54.7169V48.56ZM60.7057 48.56V52.732L64.9757 48.07V55H63.8557V50.828L59.5857 55.49V48.56H60.7057ZM67.6276 45.27H68.6216C68.6216 45.3913 68.6543 45.536 68.7196 45.704C68.7849 45.8627 68.9063 46.0073 69.0836 46.138C69.2609 46.2593 69.5129 46.32 69.8396 46.32C70.1663 46.32 70.4183 46.2593 70.5956 46.138C70.7729 46.0073 70.8943 45.8627 70.9596 45.704C71.0249 45.536 71.0576 45.3913 71.0576 45.27H72.0516C72.0516 45.5873 71.9676 45.9 71.7996 46.208C71.6409 46.5067 71.3983 46.754 71.0716 46.95C70.7449 47.1367 70.3343 47.23 69.8396 47.23C69.3543 47.23 68.9436 47.1367 68.6076 46.95C68.2809 46.754 68.0336 46.5067 67.8656 46.208C67.7069 45.9 67.6276 45.5873 67.6276 45.27ZM68.2296 48.56V52.732L72.4996 48.07V55H71.3796V50.828L67.1096 55.49V48.56H68.2296Z" fill="white"/>
<defs>
<filter id="filter0_d" x="0" y="0" width="210" height="91" filterUnits="userSpaceOnUse" color-interpolation-filters="sRGB">
<feFlood flood-opacity="0" result="BackgroundImageFix"/>
<feColorMatrix in="SourceAlpha" type="matrix" values="0 0 0 0 0 0 0 0 0 0 0 0 0 0 0 0 0 0 127 0"/>
<feOffset dx="12" dy="4"/>
<feGaussianBlur stdDeviation="12"/>
<feColorMatrix type="matrix" values="0 0 0 0 0 0 0 0 0 0 0 0 0 0 0 0 0 0 0.25 0"/>
<feBlend mode="normal" in2="BackgroundImageFix" result="effect1_dropShadow"/>
<feBlend mode="normal" in="SourceGraphic" in2="effect1_dropShadow" result="shape"/>
</filter>
</defs>
</svg>
