<svg width="251" height="234" viewBox="0 0 251 234" fill="none" xmlns="http://www.w3.org/2000/svg">
<path fill-rule="evenodd" clip-rule="evenodd" d="M8.29295 127L86.293 49L87.0001 49.7071L9.14651 127.561V219.354H12.9418L16.6465 226.136L12.9418 233.354H4.24382L0.646507 226.136L4.78074 219.354H8.14651V127.354V127.146L8.29295 127Z" fill="#FEC901"/>
<g filter="url(#filter0_d)">
<path d="M52.9999 20H197.09L215 36.32L197.09 52H52.9999V20Z" fill="#161616"/>
</g>
<path d="M64.0199 22.2H65.4199L62.5219 26.862L65.6299 32H64.2299L61.9199 27.898L59.5399 32H58.1399L61.3319 26.862L58.4899 22.2H59.8899L61.9339 25.826L64.0199 22.2ZM67.9006 25.56V29.732L72.1706 25.07V32H71.0506V27.828L66.7806 32.49V25.56H67.9006ZM73.2545 32L74.9345 25.07L77.4125 30.18L79.9325 25.07L81.6125 32H80.3525L79.5825 28.248L77.4125 32.434L75.2845 28.262L74.5145 32H73.2545ZM83.4034 25.56V27.408C83.4034 27.968 83.5014 28.374 83.6974 28.626C83.9027 28.8687 84.2714 28.99 84.8034 28.99H86.2034V25.56H87.3234V32H86.2034V30.04H84.8034C84.1594 30.04 83.6507 29.9513 83.2774 29.774C82.9134 29.5967 82.6567 29.3167 82.5074 28.934C82.358 28.542 82.2834 28.0333 82.2834 27.408V25.56H83.4034ZM90.5133 25.56V29.732L94.7833 25.07V32H93.6633V27.828L89.3933 32.49V25.56H90.5133ZM97.3512 28.78C97.3512 29.228 97.4445 29.6247 97.6312 29.97C97.8272 30.3153 98.0885 30.5907 98.4152 30.796C98.7512 30.992 99.1292 31.09 99.5492 31.09C100.072 31.09 100.539 30.9733 100.949 30.74C101.36 30.5067 101.64 30.2313 101.789 29.914V31.314C101.565 31.5753 101.243 31.7807 100.823 31.93C100.413 32.07 99.9879 32.14 99.5492 32.14C98.9239 32.14 98.3592 31.9953 97.8552 31.706C97.3512 31.4167 96.9499 31.02 96.6512 30.516C96.3619 30.0027 96.2172 29.424 96.2172 28.78C96.2172 28.1267 96.3619 27.548 96.6512 27.044C96.9499 26.54 97.3512 26.1433 97.8552 25.854C98.3592 25.5647 98.9239 25.42 99.5492 25.42C99.9879 25.42 100.413 25.4947 100.823 25.644C101.243 25.784 101.565 25.9847 101.789 26.246V27.646C101.64 27.3287 101.36 27.0533 100.949 26.82C100.539 26.5867 100.072 26.47 99.5492 26.47C99.1292 26.47 98.7512 26.568 98.4152 26.764C98.0885 26.96 97.8272 27.2353 97.6312 27.59C97.4445 27.9353 97.3512 28.332 97.3512 28.78ZM102.448 25.56H106.228V26.61H104.898V32H103.778V26.61H102.448V25.56ZM107.177 25.56H108.297V27.814L110.677 25.56H112.077L109.277 28.22L112.357 32H110.957L108.297 28.738V32H107.177V25.56ZM113.812 27.072L113.266 26.218C113.508 26.0407 113.835 25.8633 114.246 25.686C114.656 25.5087 115.151 25.42 115.73 25.42C116.467 25.42 117.064 25.5927 117.522 25.938C117.979 26.274 118.208 26.7547 118.208 27.38V32H117.088V31.076C116.892 31.4213 116.598 31.6873 116.206 31.874C115.814 32.0513 115.375 32.14 114.89 32.14C114.488 32.14 114.12 32.0653 113.784 31.916C113.448 31.7667 113.177 31.5473 112.972 31.258C112.776 30.9593 112.678 30.5907 112.678 30.152C112.678 29.4707 112.92 28.9433 113.406 28.57C113.9 28.1873 114.572 27.996 115.422 27.996C115.795 27.996 116.122 28.0427 116.402 28.136C116.682 28.2293 116.91 28.3367 117.088 28.458V27.38C117.088 27.0533 116.948 26.8107 116.668 26.652C116.397 26.484 116.084 26.4 115.73 26.4C115.272 26.4 114.876 26.484 114.54 26.652C114.213 26.82 113.97 26.96 113.812 27.072ZM113.812 30.11C113.812 30.4553 113.942 30.7167 114.204 30.894C114.474 31.062 114.796 31.146 115.17 31.146C115.73 31.146 116.187 31.02 116.542 30.768C116.906 30.5067 117.088 30.0773 117.088 29.48V29.228C116.612 28.976 116.075 28.85 115.478 28.85C114.908 28.85 114.488 28.962 114.218 29.186C113.947 29.41 113.812 29.718 113.812 30.11ZM123.11 32L124.79 25.07L127.268 30.18L129.788 25.07L131.468 32H130.208L129.438 28.248L127.268 32.434L125.14 28.262L124.37 32H123.11ZM133.413 32H132.181L134.057 29.354C133.59 29.2607 133.212 29.0647 132.923 28.766C132.633 28.4673 132.489 28.0427 132.489 27.492C132.489 27.0253 132.591 26.652 132.797 26.372C133.002 26.092 133.282 25.8867 133.637 25.756C134.001 25.6253 134.402 25.56 134.841 25.56H137.501V32H136.381V29.424H135.233L133.413 32ZM134.841 28.444H136.381V26.54H134.841C134.019 26.54 133.609 26.8573 133.609 27.492C133.609 28.1267 134.019 28.444 134.841 28.444ZM139.221 25.56H142.651V26.61H140.341V32H139.221V25.56ZM143.597 25.56H144.717V27.814L147.097 25.56H148.497L145.697 28.22L148.777 32H147.377L144.717 28.738V32H143.597V25.56ZM148.963 28.78C148.963 28.1267 149.108 27.548 149.397 27.044C149.696 26.54 150.097 26.1433 150.601 25.854C151.105 25.5647 151.67 25.42 152.295 25.42C152.93 25.42 153.495 25.5647 153.989 25.854C154.493 26.1433 154.89 26.54 155.179 27.044C155.478 27.548 155.627 28.1267 155.627 28.78C155.627 29.424 155.478 30.0027 155.179 30.516C154.89 31.02 154.493 31.4167 153.989 31.706C153.495 31.9953 152.93 32.14 152.295 32.14C151.67 32.14 151.105 31.9953 150.601 31.706C150.097 31.4167 149.696 31.02 149.397 30.516C149.108 30.0027 148.963 29.424 148.963 28.78ZM150.097 28.78C150.097 29.228 150.191 29.6247 150.377 29.97C150.573 30.3153 150.835 30.5907 151.161 30.796C151.497 30.992 151.875 31.09 152.295 31.09C152.715 31.09 153.089 30.992 153.415 30.796C153.751 30.5907 154.013 30.3153 154.199 29.97C154.395 29.6247 154.493 29.228 154.493 28.78C154.493 28.332 154.395 27.9353 154.199 27.59C154.013 27.2353 153.751 26.96 153.415 26.764C153.089 26.568 152.715 26.47 152.295 26.47C151.875 26.47 151.497 26.568 151.161 26.764C150.835 26.96 150.573 27.2353 150.377 27.59C150.191 27.9353 150.097 28.332 150.097 28.78ZM157.649 22.27H158.643C158.643 22.3913 158.676 22.536 158.741 22.704C158.806 22.8627 158.928 23.0073 159.105 23.138C159.282 23.2593 159.534 23.32 159.861 23.32C160.188 23.32 160.44 23.2593 160.617 23.138C160.794 23.0073 160.916 22.8627 160.981 22.704C161.046 22.536 161.079 22.3913 161.079 22.27H162.073C162.073 22.5873 161.989 22.9 161.821 23.208C161.662 23.5067 161.42 23.754 161.093 23.95C160.766 24.1367 160.356 24.23 159.861 24.23C159.376 24.23 158.965 24.1367 158.629 23.95C158.302 23.754 158.055 23.5067 157.887 23.208C157.728 22.9 157.649 22.5873 157.649 22.27ZM158.251 25.56V29.732L162.521 25.07V32H161.401V27.828L157.131 32.49V25.56H158.251ZM58.0699 50L59.7499 43.07L62.2279 48.18L64.7479 43.07L66.4279 50H65.1679L64.3979 46.248L62.2279 50.434L60.0999 46.262L59.3299 50H58.0699ZM73.0068 48.502C72.7922 48.8287 72.5542 49.118 72.2928 49.37C72.0315 49.6127 71.7142 49.804 71.3408 49.944C70.9675 50.0747 70.5008 50.14 69.9408 50.14C69.3622 50.14 68.8395 49.9953 68.3728 49.706C67.9155 49.4167 67.5515 49.02 67.2808 48.516C67.0195 48.0027 66.8888 47.424 66.8888 46.78C66.8888 46.6587 66.8935 46.542 66.9028 46.43C66.9122 46.318 66.9262 46.206 66.9448 46.094C67.0382 45.562 67.2248 45.0953 67.5048 44.694C67.7848 44.2927 68.1442 43.98 68.5828 43.756C69.0308 43.532 69.5302 43.42 70.0808 43.42C70.6875 43.42 71.2195 43.5553 71.6768 43.826C72.1342 44.0967 72.4888 44.4793 72.7408 44.974C72.9928 45.4593 73.1188 46.0427 73.1188 46.724C73.1188 46.78 73.1188 46.836 73.1188 46.892C73.1188 46.948 73.1142 47.004 73.1048 47.06H68.0368C68.0835 47.7133 68.2888 48.2173 68.6528 48.572C69.0168 48.9173 69.4928 49.09 70.0808 49.09C70.5475 49.09 70.9442 48.9827 71.2708 48.768C71.6068 48.5533 71.8822 48.2733 72.0968 47.928L73.0068 48.502ZM70.0808 44.4C69.5582 44.4 69.1055 44.554 68.7228 44.862C68.3402 45.1607 68.1208 45.576 68.0648 46.108H71.9008C71.8448 45.604 71.6675 45.1933 71.3688 44.876C71.0702 44.5587 70.6408 44.4 70.0808 44.4ZM73.9889 45.94C73.9889 45.0627 74.0729 44.288 74.2409 43.616C74.4089 42.944 74.7029 42.3747 75.1229 41.908C75.5523 41.4413 76.1403 41.0773 76.8869 40.816C77.5216 40.6013 77.9929 40.3447 78.3009 40.046C78.6183 39.738 78.8096 39.416 78.8749 39.08H79.9809C79.9156 39.7053 79.6216 40.242 79.0989 40.69C78.5763 41.138 77.9323 41.4833 77.1669 41.726C76.6256 41.9033 76.2009 42.16 75.8929 42.496C75.5849 42.832 75.3609 43.2147 75.2209 43.644C75.0809 44.064 75.0016 44.4933 74.9829 44.932C75.2069 44.4467 75.5196 44.0733 75.9209 43.812C76.3316 43.5507 76.7983 43.42 77.3209 43.42C77.9556 43.42 78.5203 43.5647 79.0149 43.854C79.5189 44.1433 79.9156 44.54 80.2049 45.044C80.5036 45.548 80.6529 46.1267 80.6529 46.78C80.6529 47.424 80.5036 48.0027 80.2049 48.516C79.9156 49.02 79.5189 49.4167 79.0149 49.706C78.5203 49.9953 77.9556 50.14 77.3209 50.14C76.6956 50.14 76.1309 49.986 75.6269 49.678C75.1229 49.3607 74.7216 48.8893 74.4229 48.264C74.1336 47.6387 73.9889 46.864 73.9889 45.94ZM75.1089 46.78C75.1089 47.228 75.2069 47.6247 75.4029 47.97C75.5989 48.3153 75.8603 48.5907 76.1869 48.796C76.5229 48.992 76.9009 49.09 77.3209 49.09C77.7409 49.09 78.1143 48.992 78.4409 48.796C78.7769 48.5907 79.0383 48.3153 79.2249 47.97C79.4209 47.6247 79.5189 47.228 79.5189 46.78C79.5189 46.332 79.4209 45.9353 79.2249 45.59C79.0383 45.2353 78.7769 44.96 78.4409 44.764C78.1143 44.568 77.7409 44.47 77.3209 44.47C76.9943 44.47 76.6583 44.5587 76.3129 44.736C75.9769 44.9133 75.6923 45.1747 75.4589 45.52C75.2256 45.8653 75.1089 46.2853 75.1089 46.78ZM87.6445 48.502C87.4298 48.8287 87.1918 49.118 86.9305 49.37C86.6692 49.6127 86.3518 49.804 85.9785 49.944C85.6052 50.0747 85.1385 50.14 84.5785 50.14C83.9998 50.14 83.4772 49.9953 83.0105 49.706C82.5532 49.4167 82.1892 49.02 81.9185 48.516C81.6572 48.0027 81.5265 47.424 81.5265 46.78C81.5265 46.6587 81.5312 46.542 81.5405 46.43C81.5498 46.318 81.5638 46.206 81.5825 46.094C81.6758 45.562 81.8625 45.0953 82.1425 44.694C82.4225 44.2927 82.7818 43.98 83.2205 43.756C83.6685 43.532 84.1678 43.42 84.7185 43.42C85.3252 43.42 85.8572 43.5553 86.3145 43.826C86.7718 44.0967 87.1265 44.4793 87.3785 44.974C87.6305 45.4593 87.7565 46.0427 87.7565 46.724C87.7565 46.78 87.7565 46.836 87.7565 46.892C87.7565 46.948 87.7518 47.004 87.7425 47.06H82.6745C82.7212 47.7133 82.9265 48.2173 83.2905 48.572C83.6545 48.9173 84.1305 49.09 84.7185 49.09C85.1852 49.09 85.5818 48.9827 85.9085 48.768C86.2445 48.5533 86.5198 48.2733 86.7345 47.928L87.6445 48.502ZM84.7185 44.4C84.1958 44.4 83.7432 44.554 83.3605 44.862C82.9778 45.1607 82.7585 45.576 82.7025 46.108H86.5385C86.4825 45.604 86.3052 45.1933 86.0065 44.876C85.7078 44.5587 85.2785 44.4 84.7185 44.4ZM94.8286 43.56V50H93.7086V44.61H90.4186V47.76C90.4186 48.5253 90.2412 49.09 89.8866 49.454C89.5412 49.818 89.0046 50 88.2766 50V48.978C88.5566 48.978 88.7946 48.8893 88.9906 48.712C89.1959 48.5347 89.2986 48.2173 89.2986 47.76V43.56H94.8286ZM98.0782 43.56V47.732L102.348 43.07V50H101.228V45.828L96.9582 50.49V43.56H98.0782Z" fill="white"/>
<defs>
<filter id="filter0_d" x="40.9999" y="0" width="210" height="80" filterUnits="userSpaceOnUse" color-interpolation-filters="sRGB">
<feFlood flood-opacity="0" result="BackgroundImageFix"/>
<feColorMatrix in="SourceAlpha" type="matrix" values="0 0 0 0 0 0 0 0 0 0 0 0 0 0 0 0 0 0 127 0"/>
<feOffset dx="12" dy="4"/>
<feGaussianBlur stdDeviation="12"/>
<feColorMatrix type="matrix" values="0 0 0 0 0 0 0 0 0 0 0 0 0 0 0 0 0 0 0.25 0"/>
<feBlend mode="normal" in2="BackgroundImageFix" result="effect1_dropShadow"/>
<feBlend mode="normal" in="SourceGraphic" in2="effect1_dropShadow" result="shape"/>
</filter>
</defs>
</svg>
