<svg width="68" height="57" viewBox="0 0 68 57" fill="none" xmlns="http://www.w3.org/2000/svg">
<path d="M17.9329 48.237C14.6253 49.3395 10.6744 53.1066 9.11247 54.8523C8.0099 49.6152 11.8689 49.6152 13.5227 46.8588C15.7278 42.4486 12.0526 41.5298 9.9394 41.6216C10.9501 40.4272 13.6881 38.3691 16.5547 39.6922C21.7919 42.1729 20.1381 47.1344 17.9329 48.237Z" fill="#161616"/>
<path d="M5.79403 0.329562C25.5447 -2.85175 32.4707 17.7826 33.4648 28.4975C32.4707 18.3902 18.5524 3.31205 9.77067 6.79161C0.657532 11.4134 21.0378 23.361 20.5408 24.0237C4.30279 28.1661 4.79987 43.0785 4.79987 44.9011C-7.13006 34.4624 5.79403 24.6865 15.2386 23.1953C9.60498 23.1953 -7.62714 4.30621 5.79403 0.329562Z" fill="white"/>
<path fill-rule="evenodd" clip-rule="evenodd" d="M43.396 13.0924C46.4268 9.11639 54.7655 2.18563 64.7918 5.23712C64.0424 5.83665 62.2334 5.86567 60.074 5.90031C58.2623 5.92938 56.2038 5.9624 54.3175 6.33967C50.5941 7.08434 46.1242 10.4175 44.7055 13.4297C44.9186 13.5094 45.1201 13.5975 45.3082 13.6907C49.084 10.1377 57.9631 4.8998 67.1729 9.10024C66.3167 9.61607 64.871 9.45449 62.749 9.21732H62.749C61.1239 9.03569 59.1021 8.80973 56.6447 8.80973C52.9495 8.80973 48.2446 11.6091 46.3322 14.3423C48.5358 16.739 51.2216 23.4391 44.3944 31.1472C44.4911 31.0358 44.3119 30.9662 43.9976 30.8442C43.253 30.5552 41.7501 29.9717 41.3624 27.8396C41.3183 28.1044 41.26 28.3551 41.2034 28.5984C40.9067 29.8747 40.657 30.949 42.7406 32.8011C42.6487 32.9848 42.3547 33.4075 41.9137 33.628C41.9137 33.9036 41.3624 34.7305 40.8111 33.3523C40.7378 33.1692 40.5478 32.8012 40.2837 32.2896C38.5597 28.951 33.6792 19.499 37.5034 15.4358C39.5392 13.2728 41.6728 12.8411 43.396 13.0924ZM10.2152 56.2304C9.11259 56.4509 8.83696 56.3223 8.83696 56.2304C10.8079 52.5513 13.9689 51.6908 16.9764 50.8721C20.278 49.9734 23.3945 49.1251 24.5484 44.6535C26.3125 37.8177 18.3006 35.7412 14.0741 35.5574C21.1305 30.0446 27.6723 36.3844 30.0612 40.2433C34.1958 29.769 24.824 29.4933 22.3433 29.4933C24.824 27.8395 31.1638 26.737 35.8496 31.1472C40.5355 35.5574 37.2278 48.2368 28.1317 50.7176C11.5084 54.6547 10.8532 55.6412 10.6027 56.0184C10.5375 56.1166 10.4997 56.1735 10.2152 56.2304ZM43.0343 20.528C43.4319 22.5058 44.8231 23.8942 46.1416 23.6291C47.4601 23.3641 48.2067 21.5459 47.8091 19.5681C47.4115 17.5903 46.0204 16.2019 44.7018 16.467C43.3833 16.732 42.6368 18.5502 43.0343 20.528Z" fill="#161616"/>
</svg>
